solid OpenSCAD_Model
  facet normal -2.22045e-016 1 0
    outer loop
      vertex -43 105 0
      vertex -43 105 3
      vertex -3 105 0
    endloop
  endfacet
  facet normal -2.22045e-016 1 0
    outer loop
      vertex -3 105 0
      vertex -43 105 3
      vertex -3 105 3
    endloop
  endfacet
  facet normal -0.934488 -0.355995 0
    outer loop
      vertex -43 105 0
      vertex -3 6.38455e-014 0
      vertex -43 105 3
    endloop
  endfacet
  facet normal -0.934488 -0.355995 0
    outer loop
      vertex -43 105 3
      vertex -3 6.38455e-014 0
      vertex -3 6.38455e-014 3
    endloop
  endfacet
  facet normal 0 0 -1
    outer loop
      vertex -43 105 0
      vertex -3 105 0
      vertex -3 6.38455e-014 0
    endloop
  endfacet
  facet normal 0 0 -1
    outer loop
      vertex 0 120 0
      vertex -3 105 0
      vertex -3 120 0
    endloop
  endfacet
  facet normal 0 0 -1
    outer loop
      vertex -3 6.38455e-014 0
      vertex -3 105 0
      vertex 0 120 0
    endloop
  endfacet
  facet normal 0 0 -1
    outer loop
      vertex -3 6.38455e-014 0
      vertex 0 120 0
      vertex 0 36 0
    endloop
  endfacet
  facet normal 0 0 -1
    outer loop
      vertex -3 6.38455e-014 0
      vertex 0 36 0
      vertex 0 5.55112e-015 0
    endloop
  endfacet
  facet normal 0 0 -1
    outer loop
      vertex -3 6.38455e-014 0
      vertex 0 5.55112e-015 0
      vertex 0 0 0
    endloop
  endfacet
  facet normal 0 0 -1
    outer loop
      vertex -3 6.38455e-014 0
      vertex 0 0 0
      vertex -3 0 0
    endloop
  endfacet
  facet normal -1 0 0
    outer loop
      vertex -3 0 0
      vertex -3 0 25
      vertex -3 6.38455e-014 0
    endloop
  endfacet
  facet normal -1 0 0
    outer loop
      vertex -3 6.38455e-014 3
      vertex -3 0 25
      vertex -3 120 25
    endloop
  endfacet
  facet normal -1 0 0
    outer loop
      vertex -3 113.927 4.53647
      vertex -3 120 25
      vertex -3 120 0
    endloop
  endfacet
  facet normal -1 0 0
    outer loop
      vertex -3 105 3
      vertex -3 120 25
      vertex -3 105 0
    endloop
  endfacet
  facet normal -1 0 0
    outer loop
      vertex -3 113.927 19.5365
      vertex -3 120 25
      vertex -3 105 3
    endloop
  endfacet
  facet normal -1 0 0
    outer loop
      vertex -3 6.38455e-014 0
      vertex -3 0 25
      vertex -3 6.38455e-014 3
    endloop
  endfacet
  facet normal -1 0 0
    outer loop
      vertex -3 113.927 4.53647
      vertex -3 120 0
      vertex -3 112.5 3.5
    endloop
  endfacet
  facet normal -1 0 0
    outer loop
      vertex -3 105 0
      vertex -3 120 25
      vertex -3 111.618 6.21352
    endloop
  endfacet
  facet normal -1 0 0
    outer loop
      vertex -3 105 0
      vertex -3 111.618 6.21352
      vertex -3 111.073 4.53647
    endloop
  endfacet
  facet normal -1 0 0
    outer loop
      vertex -3 105 0
      vertex -3 111.073 4.53647
      vertex -3 112.5 3.5
    endloop
  endfacet
  facet normal -1 0 0
    outer loop
      vertex -3 105 0
      vertex -3 112.5 3.5
      vertex -3 120 0
    endloop
  endfacet
  facet normal -1 0 0
    outer loop
      vertex -3 113.382 6.21352
      vertex -3 120 25
      vertex -3 113.927 4.53647
    endloop
  endfacet
  facet normal -1 0 0
    outer loop
      vertex -3 113.382 21.2135
      vertex -3 120 25
      vertex -3 113.927 19.5365
    endloop
  endfacet
  facet normal -1 0 0
    outer loop
      vertex -3 111.618 6.21352
      vertex -3 120 25
      vertex -3 113.382 6.21352
    endloop
  endfacet
  facet normal -1 0 0
    outer loop
      vertex -3 111.618 21.2135
      vertex -3 111.073 19.5365
      vertex -3 105 3
    endloop
  endfacet
  facet normal -1 0 0
    outer loop
      vertex -3 111.073 19.5365
      vertex -3 112.5 18.5
      vertex -3 105 3
    endloop
  endfacet
  facet normal -1 0 0
    outer loop
      vertex -3 112.5 18.5
      vertex -3 113.927 19.5365
      vertex -3 105 3
    endloop
  endfacet
  facet normal -1 0 0
    outer loop
      vertex -3 111.618 21.2135
      vertex -3 120 25
      vertex -3 113.382 21.2135
    endloop
  endfacet
  facet normal -1 0 0
    outer loop
      vertex -3 6.38455e-014 3
      vertex -3 120 25
      vertex -3 111.618 21.2135
    endloop
  endfacet
  facet normal -1 0 0
    outer loop
      vertex -3 6.38455e-014 3
      vertex -3 111.618 21.2135
      vertex -3 105 3
    endloop
  endfacet
  facet normal 0 0 1
    outer loop
      vertex -3 105 3
      vertex -43 105 3
      vertex -3 6.38455e-014 3
    endloop
  endfacet
  facet normal 0 -1 0
    outer loop
      vertex -3 0 25
      vertex -3 0 0
      vertex 0 0 0
    endloop
  endfacet
  facet normal 0 -1 0
    outer loop
      vertex 0 0 25
      vertex -3 0 25
      vertex 0 0 0
    endloop
  endfacet
  facet normal 1 0 0
    outer loop
      vertex 0 5.55112e-015 0
      vertex 0 0 25
      vertex 0 0 0
    endloop
  endfacet
  facet normal 0 -1 -2.22045e-016
    outer loop
      vertex 5.69806 4.07846e-015 6.63223
      vertex 0 0 25
      vertex 0 5.55112e-015 0
    endloop
  endfacet
  facet normal 0 -1 -2.22045e-016
    outer loop
      vertex 5.69806 3.6931e-015 8.36777
      vertex 0 0 25
      vertex 5.69806 4.07846e-015 6.63223
    endloop
  endfacet
  facet normal 0 -1 -2.22045e-016
    outer loop
      vertex 7.05496 4.31874e-015 5.55014
      vertex 5.69806 4.07846e-015 6.63223
      vertex 0 5.55112e-015 0
    endloop
  endfacet
  facet normal 0 -1 -2.22045e-016
    outer loop
      vertex 7.05496 3.45283e-015 9.44986
      vertex 0 0 25
      vertex 5.69806 3.6931e-015 8.36777
    endloop
  endfacet
  facet normal 0 -1 -2.22045e-016
    outer loop
      vertex 8.74698 3.53858e-015 9.06366
      vertex 0 0 25
      vertex 7.05496 3.45283e-015 9.44986
    endloop
  endfacet
  facet normal 0 -1 -2.22045e-016
    outer loop
      vertex 9.5 3.88578e-015 7.5
      vertex 8.74698 4.23298e-015 5.93634
      vertex 25 5.55112e-015 0
    endloop
  endfacet
  facet normal 0 -1 -2.22045e-016
    outer loop
      vertex 25 5.55112e-015 0
      vertex 0 0 25
      vertex 8.74698 3.53858e-015 9.06366
    endloop
  endfacet
  facet normal 0 -1 -2.22045e-016
    outer loop
      vertex 8.74698 4.23298e-015 5.93634
      vertex 7.05496 4.31874e-015 5.55014
      vertex 25 5.55112e-015 0
    endloop
  endfacet
  facet normal 0 -1 -2.22045e-016
    outer loop
      vertex 25 5.55112e-015 0
      vertex 7.05496 4.31874e-015 5.55014
      vertex 0 5.55112e-015 0
    endloop
  endfacet
  facet normal 0 -1 -2.22045e-016
    outer loop
      vertex 8.74698 3.53858e-015 9.06366
      vertex 9.5 3.88578e-015 7.5
      vertex 25 5.55112e-015 0
    endloop
  endfacet
  facet normal 0 2.22045e-016 -1
    outer loop
      vertex 0 5.55112e-015 0
      vertex 0 3 6.66134e-016
      vertex 25 5.55112e-015 0
    endloop
  endfacet
  facet normal 0 2.22045e-016 -1
    outer loop
      vertex 25 5.55112e-015 0
      vertex 0 3 6.66134e-016
      vertex 25 3 6.66134e-016
    endloop
  endfacet
  facet normal 1 0 0
    outer loop
      vertex 0 36 0
      vertex 0 36 25
      vertex 0 3 25
    endloop
  endfacet
  facet normal 1 0 0
    outer loop
      vertex 0 5.55112e-015 0
      vertex 0 36 0
      vertex 0 3 6.66134e-016
    endloop
  endfacet
  facet normal 1 0 0
    outer loop
      vertex 0 3 6.66134e-016
      vertex 0 36 0
      vertex 0 3 25
    endloop
  endfacet
  facet normal 0 -1 -2.22045e-016
    outer loop
      vertex 5.69806 36 6.63223
      vertex 0 36 25
      vertex 0 36 0
    endloop
  endfacet
  facet normal 0 -1 -2.22045e-016
    outer loop
      vertex 5.69806 36 8.36777
      vertex 0 36 25
      vertex 5.69806 36 6.63223
    endloop
  endfacet
  facet normal 0 -1 -2.22045e-016
    outer loop
      vertex 7.05496 36 5.55014
      vertex 5.69806 36 6.63223
      vertex 0 36 0
    endloop
  endfacet
  facet normal 0 -1 -2.22045e-016
    outer loop
      vertex 7.05496 36 9.44986
      vertex 0 36 25
      vertex 5.69806 36 8.36777
    endloop
  endfacet
  facet normal 0 -1 -2.22045e-016
    outer loop
      vertex 8.74698 36 9.06366
      vertex 0 36 25
      vertex 7.05496 36 9.44986
    endloop
  endfacet
  facet normal 0 -1 -2.22045e-016
    outer loop
      vertex 9.5 36 7.5
      vertex 8.74698 36 5.93634
      vertex 25 36 0
    endloop
  endfacet
  facet normal 0 -1 -2.22045e-016
    outer loop
      vertex 25 36 0
      vertex 0 36 25
      vertex 8.74698 36 9.06366
    endloop
  endfacet
  facet normal 0 -1 -2.22045e-016
    outer loop
      vertex 8.74698 36 5.93634
      vertex 7.05496 36 5.55014
      vertex 25 36 0
    endloop
  endfacet
  facet normal 0 -1 -2.22045e-016
    outer loop
      vertex 25 36 0
      vertex 7.05496 36 5.55014
      vertex 0 36 0
    endloop
  endfacet
  facet normal 0 -1 -2.22045e-016
    outer loop
      vertex 8.74698 36 9.06366
      vertex 9.5 36 7.5
      vertex 25 36 0
    endloop
  endfacet
  facet normal 0 2.22045e-016 -1
    outer loop
      vertex 0 36 0
      vertex 0 39 6.66134e-016
      vertex 25 36 0
    endloop
  endfacet
  facet normal 0 2.22045e-016 -1
    outer loop
      vertex 25 36 0
      vertex 0 39 6.66134e-016
      vertex 25 39 6.66134e-016
    endloop
  endfacet
  facet normal 1 0 0
    outer loop
      vertex 0 111.618 21.2135
      vertex 0 120 25
      vertex 0 39 25
    endloop
  endfacet
  facet normal 1 0 0
    outer loop
      vertex 0 36 0
      vertex 0 120 0
      vertex 0 39 6.66134e-016
    endloop
  endfacet
  facet normal 1 0 0
    outer loop
      vertex 0 39 6.66134e-016
      vertex 0 120 0
      vertex 0 39 25
    endloop
  endfacet
  facet normal 1 0 0
    outer loop
      vertex 0 111.073 4.53648
      vertex 0 111.618 6.21353
      vertex 0 39 25
    endloop
  endfacet
  facet normal 1 0 0
    outer loop
      vertex 0 113.382 6.21353
      vertex 0 120 25
      vertex 0 111.618 6.21353
    endloop
  endfacet
  facet normal 1 0 0
    outer loop
      vertex 0 120 0
      vertex 0 120 25
      vertex 0 113.382 6.21353
    endloop
  endfacet
  facet normal 1 0 0
    outer loop
      vertex 0 113.927 19.5365
      vertex 0 112.5 18.5
      vertex 0 111.618 6.21353
    endloop
  endfacet
  facet normal 1 0 0
    outer loop
      vertex 0 120 0
      vertex 0 113.382 6.21353
      vertex 0 113.927 4.53648
    endloop
  endfacet
  facet normal 1 0 0
    outer loop
      vertex 0 120 0
      vertex 0 112.5 3.5
      vertex 0 39 25
    endloop
  endfacet
  facet normal 1 0 0
    outer loop
      vertex 0 112.5 3.5
      vertex 0 111.073 4.53648
      vertex 0 39 25
    endloop
  endfacet
  facet normal 1 0 0
    outer loop
      vertex 0 111.073 19.5365
      vertex 0 111.618 21.2135
      vertex 0 39 25
    endloop
  endfacet
  facet normal 1 0 0
    outer loop
      vertex 0 113.382 21.2135
      vertex 0 120 25
      vertex 0 111.618 21.2135
    endloop
  endfacet
  facet normal 1 0 0
    outer loop
      vertex 0 113.927 19.5365
      vertex 0 120 25
      vertex 0 113.382 21.2135
    endloop
  endfacet
  facet normal 1 0 0
    outer loop
      vertex 0 112.5 18.5
      vertex 0 111.073 19.5365
      vertex 0 111.618 6.21353
    endloop
  endfacet
  facet normal 1 0 0
    outer loop
      vertex 0 111.618 6.21353
      vertex 0 120 25
      vertex 0 113.927 19.5365
    endloop
  endfacet
  facet normal 1 0 0
    outer loop
      vertex 0 111.618 6.21353
      vertex 0 111.073 19.5365
      vertex 0 39 25
    endloop
  endfacet
  facet normal 1 0 0
    outer loop
      vertex 0 113.927 4.53648
      vertex 0 112.5 3.5
      vertex 0 120 0
    endloop
  endfacet
  facet normal 0 1 0
    outer loop
      vertex -3 120 0
      vertex -3 120 25
      vertex 0 120 0
    endloop
  endfacet
  facet normal 0 1 0
    outer loop
      vertex 0 120 0
      vertex -3 120 25
      vertex 0 120 25
    endloop
  endfacet
  facet normal 0 0 1
    outer loop
      vertex -3 120 25
      vertex -3 0 25
      vertex 0 0 25
    endloop
  endfacet
  facet normal 0 0 1
    outer loop
      vertex 0 36 25
      vertex -3 120 25
      vertex 0 3 25
    endloop
  endfacet
  facet normal 0 0 1
    outer loop
      vertex 0 3 25
      vertex -3 120 25
      vertex 0 0 25
    endloop
  endfacet
  facet normal 0 0 1
    outer loop
      vertex 0 39 25
      vertex -3 120 25
      vertex 0 36 25
    endloop
  endfacet
  facet normal 0 0 1
    outer loop
      vertex 0 120 25
      vertex -3 120 25
      vertex 0 39 25
    endloop
  endfacet
  facet normal 2.22045e-016 0 -1
    outer loop
      vertex 0 113.382 6.21353
      vertex 0 111.618 6.21353
      vertex -3 113.382 6.21352
    endloop
  endfacet
  facet normal 2.22045e-016 0 -1
    outer loop
      vertex -3 113.382 6.21352
      vertex 0 111.618 6.21353
      vertex -3 111.618 6.21352
    endloop
  endfacet
  facet normal 6.86156e-017 0.951056 -0.309017
    outer loop
      vertex 0 111.618 6.21353
      vertex 0 111.073 4.53648
      vertex -3 111.618 6.21352
    endloop
  endfacet
  facet normal 6.86156e-017 0.951056 -0.309017
    outer loop
      vertex -3 111.618 6.21352
      vertex 0 111.073 4.53648
      vertex -3 111.073 4.53647
    endloop
  endfacet
  facet normal 6.86156e-017 -0.951056 -0.309017
    outer loop
      vertex -3 113.927 4.53647
      vertex 0 113.927 4.53648
      vertex 0 113.382 6.21353
    endloop
  endfacet
  facet normal 6.86156e-017 -0.951056 -0.309017
    outer loop
      vertex -3 113.382 6.21352
      vertex -3 113.927 4.53647
      vertex 0 113.382 6.21353
    endloop
  endfacet
  facet normal -1.79638e-016 -0.587785 0.809017
    outer loop
      vertex 0 112.5 3.5
      vertex 0 113.927 4.53648
      vertex -3 113.927 4.53647
    endloop
  endfacet
  facet normal -1.79638e-016 -0.587785 0.809017
    outer loop
      vertex -3 112.5 3.5
      vertex 0 112.5 3.5
      vertex -3 113.927 4.53647
    endloop
  endfacet
  facet normal -1.79638e-016 0.587785 0.809017
    outer loop
      vertex 0 111.073 4.53648
      vertex 0 112.5 3.5
      vertex -3 112.5 3.5
    endloop
  endfacet
  facet normal -1.79638e-016 0.587785 0.809017
    outer loop
      vertex -3 111.073 4.53647
      vertex 0 111.073 4.53648
      vertex -3 112.5 3.5
    endloop
  endfacet
  facet normal 2.22045e-016 0 -1
    outer loop
      vertex 0 113.382 21.2135
      vertex 0 111.618 21.2135
      vertex -3 113.382 21.2135
    endloop
  endfacet
  facet normal 2.22045e-016 0 -1
    outer loop
      vertex -3 113.382 21.2135
      vertex 0 111.618 21.2135
      vertex -3 111.618 21.2135
    endloop
  endfacet
  facet normal 6.86156e-017 0.951056 -0.309017
    outer loop
      vertex 0 111.618 21.2135
      vertex 0 111.073 19.5365
      vertex -3 111.618 21.2135
    endloop
  endfacet
  facet normal 6.86156e-017 0.951056 -0.309017
    outer loop
      vertex -3 111.618 21.2135
      vertex 0 111.073 19.5365
      vertex -3 111.073 19.5365
    endloop
  endfacet
  facet normal 6.86156e-017 -0.951056 -0.309017
    outer loop
      vertex -3 113.927 19.5365
      vertex 0 113.927 19.5365
      vertex 0 113.382 21.2135
    endloop
  endfacet
  facet normal 6.86156e-017 -0.951056 -0.309017
    outer loop
      vertex -3 113.382 21.2135
      vertex -3 113.927 19.5365
      vertex 0 113.382 21.2135
    endloop
  endfacet
  facet normal -1.79638e-016 -0.587785 0.809017
    outer loop
      vertex 0 112.5 18.5
      vertex 0 113.927 19.5365
      vertex -3 113.927 19.5365
    endloop
  endfacet
  facet normal -1.79638e-016 -0.587785 0.809017
    outer loop
      vertex -3 112.5 18.5
      vertex 0 112.5 18.5
      vertex -3 113.927 19.5365
    endloop
  endfacet
  facet normal -1.79638e-016 0.587785 0.809017
    outer loop
      vertex 0 111.073 19.5365
      vertex 0 112.5 18.5
      vertex -3 112.5 18.5
    endloop
  endfacet
  facet normal -1.79638e-016 0.587785 0.809017
    outer loop
      vertex -3 111.073 19.5365
      vertex 0 111.073 19.5365
      vertex -3 112.5 18.5
    endloop
  endfacet
  facet normal 0.707107 -1.57009e-016 0.707107
    outer loop
      vertex 0 3 25
      vertex 0 0 25
      vertex 25 5.55112e-015 0
    endloop
  endfacet
  facet normal 0.707107 -1.57009e-016 0.707107
    outer loop
      vertex 25 3 6.66134e-016
      vertex 0 3 25
      vertex 25 5.55112e-015 0
    endloop
  endfacet
  facet normal 0.62349 -1.73601e-016 0.781831
    outer loop
      vertex 7.05496 4.31874e-015 5.55014
      vertex 7.05496 3 5.55014
      vertex 5.69806 3 6.63223
    endloop
  endfacet
  facet normal 0.62349 -1.73601e-016 0.781831
    outer loop
      vertex 5.69806 4.07846e-015 6.63223
      vertex 7.05496 4.31874e-015 5.55014
      vertex 5.69806 3 6.63223
    endloop
  endfacet
  facet normal 1 0 0
    outer loop
      vertex 5.69806 4.07846e-015 6.63223
      vertex 5.69806 3 6.63223
      vertex 5.69806 3 8.36777
    endloop
  endfacet
  facet normal 1 0 0
    outer loop
      vertex 5.69806 3.6931e-015 8.36777
      vertex 5.69806 4.07846e-015 6.63223
      vertex 5.69806 3 8.36777
    endloop
  endfacet
  facet normal -0.222521 -2.16477e-016 0.974928
    outer loop
      vertex 8.74698 4.23298e-015 5.93634
      vertex 8.74698 3 5.93634
      vertex 7.05496 3 5.55014
    endloop
  endfacet
  facet normal -0.222521 -2.16477e-016 0.974928
    outer loop
      vertex 7.05496 4.31874e-015 5.55014
      vertex 8.74698 4.23298e-015 5.93634
      vertex 7.05496 3 5.55014
    endloop
  endfacet
  facet normal -0.900969 -9.63415e-017 0.433884
    outer loop
      vertex 9.5 3 7.5
      vertex 8.74698 3 5.93634
      vertex 9.5 3.88578e-015 7.5
    endloop
  endfacet
  facet normal -0.900969 -9.63415e-017 0.433884
    outer loop
      vertex 9.5 3.88578e-015 7.5
      vertex 8.74698 3 5.93634
      vertex 8.74698 4.23298e-015 5.93634
    endloop
  endfacet
  facet normal -0.900969 9.63415e-017 -0.433884
    outer loop
      vertex 9.5 3 7.5
      vertex 9.5 3.88578e-015 7.5
      vertex 8.74698 3 9.06366
    endloop
  endfacet
  facet normal -0.900969 9.63415e-017 -0.433884
    outer loop
      vertex 8.74698 3 9.06366
      vertex 9.5 3.88578e-015 7.5
      vertex 8.74698 3.53858e-015 9.06366
    endloop
  endfacet
  facet normal -0.222521 2.16477e-016 -0.974928
    outer loop
      vertex 8.74698 3 9.06366
      vertex 8.74698 3.53858e-015 9.06366
      vertex 7.05496 3 9.44986
    endloop
  endfacet
  facet normal -0.222521 2.16477e-016 -0.974928
    outer loop
      vertex 7.05496 3 9.44986
      vertex 8.74698 3.53858e-015 9.06366
      vertex 7.05496 3.45283e-015 9.44986
    endloop
  endfacet
  facet normal 0.62349 1.73601e-016 -0.781831
    outer loop
      vertex 7.05496 3 9.44986
      vertex 7.05496 3.45283e-015 9.44986
      vertex 5.69806 3 8.36777
    endloop
  endfacet
  facet normal 0.62349 1.73601e-016 -0.781831
    outer loop
      vertex 5.69806 3 8.36777
      vertex 7.05496 3.45283e-015 9.44986
      vertex 5.69806 3.6931e-015 8.36777
    endloop
  endfacet
  facet normal 0 1 2.22045e-016
    outer loop
      vertex 7.05496 3 5.55014
      vertex 25 3 6.66134e-016
      vertex 0 3 6.66134e-016
    endloop
  endfacet
  facet normal 0 1 2.22045e-016
    outer loop
      vertex 7.05496 3 9.44986
      vertex 0 3 25
      vertex 8.74698 3 9.06366
    endloop
  endfacet
  facet normal 0 1 2.22045e-016
    outer loop
      vertex 0 3 25
      vertex 5.69806 3 8.36777
      vertex 0 3 6.66134e-016
    endloop
  endfacet
  facet normal 0 1 2.22045e-016
    outer loop
      vertex 9.5 3 7.5
      vertex 25 3 6.66134e-016
      vertex 8.74698 3 5.93634
    endloop
  endfacet
  facet normal 0 1 2.22045e-016
    outer loop
      vertex 5.69806 3 8.36777
      vertex 5.69806 3 6.63223
      vertex 0 3 6.66134e-016
    endloop
  endfacet
  facet normal 0 1 2.22045e-016
    outer loop
      vertex 5.69806 3 6.63223
      vertex 7.05496 3 5.55014
      vertex 0 3 6.66134e-016
    endloop
  endfacet
  facet normal 0 1 2.22045e-016
    outer loop
      vertex 8.74698 3 9.06366
      vertex 25 3 6.66134e-016
      vertex 9.5 3 7.5
    endloop
  endfacet
  facet normal 0 1 2.22045e-016
    outer loop
      vertex 0 3 25
      vertex 25 3 6.66134e-016
      vertex 8.74698 3 9.06366
    endloop
  endfacet
  facet normal 0 1 2.22045e-016
    outer loop
      vertex 0 3 25
      vertex 7.05496 3 9.44986
      vertex 5.69806 3 8.36777
    endloop
  endfacet
  facet normal 0 1 2.22045e-016
    outer loop
      vertex 8.74698 3 5.93634
      vertex 25 3 6.66134e-016
      vertex 7.05496 3 5.55014
    endloop
  endfacet
  facet normal 0.707107 -1.57009e-016 0.707107
    outer loop
      vertex 0 39 25
      vertex 0 36 25
      vertex 25 36 0
    endloop
  endfacet
  facet normal 0.707107 -1.57009e-016 0.707107
    outer loop
      vertex 25 39 6.66134e-016
      vertex 0 39 25
      vertex 25 36 0
    endloop
  endfacet
  facet normal 0.62349 -1.73601e-016 0.781831
    outer loop
      vertex 7.05496 36 5.55014
      vertex 7.05496 39 5.55014
      vertex 5.69806 39 6.63223
    endloop
  endfacet
  facet normal 0.62349 -1.73601e-016 0.781831
    outer loop
      vertex 5.69806 36 6.63223
      vertex 7.05496 36 5.55014
      vertex 5.69806 39 6.63223
    endloop
  endfacet
  facet normal 1 0 0
    outer loop
      vertex 5.69806 36 6.63223
      vertex 5.69806 39 6.63223
      vertex 5.69806 39 8.36777
    endloop
  endfacet
  facet normal 1 0 0
    outer loop
      vertex 5.69806 36 8.36777
      vertex 5.69806 36 6.63223
      vertex 5.69806 39 8.36777
    endloop
  endfacet
  facet normal -0.222521 -2.16477e-016 0.974928
    outer loop
      vertex 8.74698 36 5.93634
      vertex 8.74698 39 5.93634
      vertex 7.05496 39 5.55014
    endloop
  endfacet
  facet normal -0.222521 -2.16477e-016 0.974928
    outer loop
      vertex 7.05496 36 5.55014
      vertex 8.74698 36 5.93634
      vertex 7.05496 39 5.55014
    endloop
  endfacet
  facet normal -0.900969 -9.63415e-017 0.433884
    outer loop
      vertex 9.5 39 7.5
      vertex 8.74698 39 5.93634
      vertex 9.5 36 7.5
    endloop
  endfacet
  facet normal -0.900969 -9.63415e-017 0.433884
    outer loop
      vertex 9.5 36 7.5
      vertex 8.74698 39 5.93634
      vertex 8.74698 36 5.93634
    endloop
  endfacet
  facet normal -0.900969 9.63415e-017 -0.433884
    outer loop
      vertex 9.5 39 7.5
      vertex 9.5 36 7.5
      vertex 8.74698 39 9.06366
    endloop
  endfacet
  facet normal -0.900969 9.63415e-017 -0.433884
    outer loop
      vertex 8.74698 39 9.06366
      vertex 9.5 36 7.5
      vertex 8.74698 36 9.06366
    endloop
  endfacet
  facet normal -0.222521 2.16477e-016 -0.974928
    outer loop
      vertex 8.74698 39 9.06366
      vertex 8.74698 36 9.06366
      vertex 7.05496 39 9.44986
    endloop
  endfacet
  facet normal -0.222521 2.16477e-016 -0.974928
    outer loop
      vertex 7.05496 39 9.44986
      vertex 8.74698 36 9.06366
      vertex 7.05496 36 9.44986
    endloop
  endfacet
  facet normal 0.62349 1.73601e-016 -0.781831
    outer loop
      vertex 7.05496 39 9.44986
      vertex 7.05496 36 9.44986
      vertex 5.69806 39 8.36777
    endloop
  endfacet
  facet normal 0.62349 1.73601e-016 -0.781831
    outer loop
      vertex 5.69806 39 8.36777
      vertex 7.05496 36 9.44986
      vertex 5.69806 36 8.36777
    endloop
  endfacet
  facet normal 0 1 2.22045e-016
    outer loop
      vertex 7.05496 39 5.55014
      vertex 25 39 6.66134e-016
      vertex 0 39 6.66134e-016
    endloop
  endfacet
  facet normal 0 1 2.22045e-016
    outer loop
      vertex 7.05496 39 9.44986
      vertex 0 39 25
      vertex 8.74698 39 9.06366
    endloop
  endfacet
  facet normal 0 1 2.22045e-016
    outer loop
      vertex 0 39 25
      vertex 5.69806 39 8.36777
      vertex 0 39 6.66134e-016
    endloop
  endfacet
  facet normal 0 1 2.22045e-016
    outer loop
      vertex 9.5 39 7.5
      vertex 25 39 6.66134e-016
      vertex 8.74698 39 5.93634
    endloop
  endfacet
  facet normal 0 1 2.22045e-016
    outer loop
      vertex 5.69806 39 8.36777
      vertex 5.69806 39 6.63223
      vertex 0 39 6.66134e-016
    endloop
  endfacet
  facet normal 0 1 2.22045e-016
    outer loop
      vertex 5.69806 39 6.63223
      vertex 7.05496 39 5.55014
      vertex 0 39 6.66134e-016
    endloop
  endfacet
  facet normal 0 1 2.22045e-016
    outer loop
      vertex 8.74698 39 9.06366
      vertex 25 39 6.66134e-016
      vertex 9.5 39 7.5
    endloop
  endfacet
  facet normal 0 1 2.22045e-016
    outer loop
      vertex 0 39 25
      vertex 25 39 6.66134e-016
      vertex 8.74698 39 9.06366
    endloop
  endfacet
  facet normal 0 1 2.22045e-016
    outer loop
      vertex 0 39 25
      vertex 7.05496 39 9.44986
      vertex 5.69806 39 8.36777
    endloop
  endfacet
  facet normal 0 1 2.22045e-016
    outer loop
      vertex 8.74698 39 5.93634
      vertex 25 39 6.66134e-016
      vertex 7.05496 39 5.55014
    endloop
  endfacet
  facet normal 0 -1 -2.22045e-016
    outer loop
      vertex 18.253 5 9.06366
      vertex 27 5 25
      vertex 2 5 0
    endloop
  endfacet
  facet normal 0 -1 -2.22045e-016
    outer loop
      vertex 19.945 5 9.44986
      vertex 27 5 25
      vertex 18.253 5 9.06366
    endloop
  endfacet
  facet normal 0 -1 -2.22045e-016
    outer loop
      vertex 17.5 5 7.5
      vertex 18.253 5 9.06366
      vertex 2 5 0
    endloop
  endfacet
  facet normal 0 -1 -2.22045e-016
    outer loop
      vertex 21.3019 5 8.36777
      vertex 27 5 25
      vertex 19.945 5 9.44986
    endloop
  endfacet
  facet normal 0 -1 -2.22045e-016
    outer loop
      vertex 21.3019 5 6.63223
      vertex 19.945 5 5.55014
      vertex 27 5 0
    endloop
  endfacet
  facet normal 0 -1 -2.22045e-016
    outer loop
      vertex 27 5 0
      vertex 27 5 25
      vertex 21.3019 5 8.36777
    endloop
  endfacet
  facet normal 0 -1 -2.22045e-016
    outer loop
      vertex 27 5 0
      vertex 19.945 5 5.55014
      vertex 2 5 0
    endloop
  endfacet
  facet normal 0 -1 -2.22045e-016
    outer loop
      vertex 19.945 5 5.55014
      vertex 18.253 5 5.93634
      vertex 2 5 0
    endloop
  endfacet
  facet normal 0 -1 -2.22045e-016
    outer loop
      vertex 18.253 5 5.93634
      vertex 17.5 5 7.5
      vertex 2 5 0
    endloop
  endfacet
  facet normal 0 -1 -2.22045e-016
    outer loop
      vertex 21.3019 5 8.36777
      vertex 21.3019 5 6.63223
      vertex 27 5 0
    endloop
  endfacet
  facet normal 0 2.22045e-016 -1
    outer loop
      vertex 27 8 6.66134e-016
      vertex 27 5 0
      vertex 2 8 6.66134e-016
    endloop
  endfacet
  facet normal 0 2.22045e-016 -1
    outer loop
      vertex 2 8 6.66134e-016
      vertex 27 5 0
      vertex 2 5 0
    endloop
  endfacet
  facet normal -0.707107 -1.57009e-016 0.707107
    outer loop
      vertex 27 8 25
      vertex 2 8 6.66134e-016
      vertex 27 5 25
    endloop
  endfacet
  facet normal -0.707107 -1.57009e-016 0.707107
    outer loop
      vertex 27 5 25
      vertex 2 8 6.66134e-016
      vertex 2 5 0
    endloop
  endfacet
  facet normal 0 0 -1
    outer loop
      vertex 27 125 0
      vertex 30 125 0
      vertex 27 41 0
    endloop
  endfacet
  facet normal 0 0 -1
    outer loop
      vertex 27 41 0
      vertex 30 125 0
      vertex 27 5 0
    endloop
  endfacet
  facet normal 0 0 -1
    outer loop
      vertex 27 5 0
      vertex 30 125 0
      vertex 30 110 0
    endloop
  endfacet
  facet normal 0 0 -1
    outer loop
      vertex 27 5 0
      vertex 30 110 0
      vertex 70 110 0
    endloop
  endfacet
  facet normal 0 0 -1
    outer loop
      vertex 27 5 0
      vertex 70 110 0
      vertex 30 5 0
    endloop
  endfacet
  facet normal -1 0 0
    outer loop
      vertex 27 5 0
      vertex 27 8 6.66134e-016
      vertex 27 41 0
    endloop
  endfacet
  facet normal -1 0 0
    outer loop
      vertex 27 41 0
      vertex 27 8 6.66134e-016
      vertex 27 8 25
    endloop
  endfacet
  facet normal -1 0 0
    outer loop
      vertex 27 41 0
      vertex 27 8 25
      vertex 27 41 25
    endloop
  endfacet
  facet normal 0 0 1
    outer loop
      vertex 30 5 25
      vertex 30 125 25
      vertex 27 125 25
    endloop
  endfacet
  facet normal 0 0 1
    outer loop
      vertex 27 41 25
      vertex 30 5 25
      vertex 27 44 25
    endloop
  endfacet
  facet normal 0 0 1
    outer loop
      vertex 27 44 25
      vertex 30 5 25
      vertex 27 125 25
    endloop
  endfacet
  facet normal 0 0 1
    outer loop
      vertex 27 8 25
      vertex 30 5 25
      vertex 27 41 25
    endloop
  endfacet
  facet normal 0 0 1
    outer loop
      vertex 27 5 25
      vertex 30 5 25
      vertex 27 8 25
    endloop
  endfacet
  facet normal 0 -1 0
    outer loop
      vertex 30 5 0
      vertex 30 5 25
      vertex 27 5 25
    endloop
  endfacet
  facet normal 0 -1 0
    outer loop
      vertex 27 5 0
      vertex 30 5 0
      vertex 27 5 25
    endloop
  endfacet
  facet normal 0.222521 2.16477e-016 -0.974928
    outer loop
      vertex 18.253 5 9.06366
      vertex 18.253 8 9.06366
      vertex 19.945 5 9.44986
    endloop
  endfacet
  facet normal 0.222521 2.16477e-016 -0.974928
    outer loop
      vertex 19.945 5 9.44986
      vertex 18.253 8 9.06366
      vertex 19.945 8 9.44986
    endloop
  endfacet
  facet normal 0.900969 9.63415e-017 -0.433884
    outer loop
      vertex 18.253 5 9.06366
      vertex 17.5 5 7.5
      vertex 17.5 8 7.5
    endloop
  endfacet
  facet normal 0.900969 9.63415e-017 -0.433884
    outer loop
      vertex 18.253 8 9.06366
      vertex 18.253 5 9.06366
      vertex 17.5 8 7.5
    endloop
  endfacet
  facet normal 0.900969 -9.63415e-017 0.433884
    outer loop
      vertex 17.5 8 7.5
      vertex 17.5 5 7.5
      vertex 18.253 5 5.93634
    endloop
  endfacet
  facet normal 0.900969 -9.63415e-017 0.433884
    outer loop
      vertex 18.253 8 5.93634
      vertex 17.5 8 7.5
      vertex 18.253 5 5.93634
    endloop
  endfacet
  facet normal 0.222521 -2.16477e-016 0.974928
    outer loop
      vertex 18.253 8 5.93634
      vertex 18.253 5 5.93634
      vertex 19.945 5 5.55014
    endloop
  endfacet
  facet normal 0.222521 -2.16477e-016 0.974928
    outer loop
      vertex 19.945 8 5.55014
      vertex 18.253 8 5.93634
      vertex 19.945 5 5.55014
    endloop
  endfacet
  facet normal -0.62349 -1.73601e-016 0.781831
    outer loop
      vertex 19.945 8 5.55014
      vertex 19.945 5 5.55014
      vertex 21.3019 5 6.63223
    endloop
  endfacet
  facet normal -0.62349 -1.73601e-016 0.781831
    outer loop
      vertex 21.3019 8 6.63223
      vertex 19.945 8 5.55014
      vertex 21.3019 5 6.63223
    endloop
  endfacet
  facet normal -1 0 0
    outer loop
      vertex 21.3019 5 8.36777
      vertex 21.3019 8 8.36777
      vertex 21.3019 5 6.63223
    endloop
  endfacet
  facet normal -1 0 0
    outer loop
      vertex 21.3019 5 6.63223
      vertex 21.3019 8 8.36777
      vertex 21.3019 8 6.63223
    endloop
  endfacet
  facet normal -0.62349 1.73601e-016 -0.781831
    outer loop
      vertex 19.945 5 9.44986
      vertex 19.945 8 9.44986
      vertex 21.3019 5 8.36777
    endloop
  endfacet
  facet normal -0.62349 1.73601e-016 -0.781831
    outer loop
      vertex 21.3019 5 8.36777
      vertex 19.945 8 9.44986
      vertex 21.3019 8 8.36777
    endloop
  endfacet
  facet normal 0 1 2.22045e-016
    outer loop
      vertex 18.253 8 9.06366
      vertex 2 8 6.66134e-016
      vertex 27 8 25
    endloop
  endfacet
  facet normal 0 1 2.22045e-016
    outer loop
      vertex 18.253 8 5.93634
      vertex 2 8 6.66134e-016
      vertex 17.5 8 7.5
    endloop
  endfacet
  facet normal 0 1 2.22045e-016
    outer loop
      vertex 27 8 6.66134e-016
      vertex 2 8 6.66134e-016
      vertex 18.253 8 5.93634
    endloop
  endfacet
  facet normal 0 1 2.22045e-016
    outer loop
      vertex 27 8 6.66134e-016
      vertex 18.253 8 5.93634
      vertex 19.945 8 5.55014
    endloop
  endfacet
  facet normal 0 1 2.22045e-016
    outer loop
      vertex 18.253 8 9.06366
      vertex 27 8 25
      vertex 19.945 8 9.44986
    endloop
  endfacet
  facet normal 0 1 2.22045e-016
    outer loop
      vertex 27 8 6.66134e-016
      vertex 21.3019 8 6.63223
      vertex 27 8 25
    endloop
  endfacet
  facet normal 0 1 2.22045e-016
    outer loop
      vertex 21.3019 8 6.63223
      vertex 21.3019 8 8.36777
      vertex 27 8 25
    endloop
  endfacet
  facet normal 0 1 2.22045e-016
    outer loop
      vertex 21.3019 8 8.36777
      vertex 19.945 8 9.44986
      vertex 27 8 25
    endloop
  endfacet
  facet normal 0 1 2.22045e-016
    outer loop
      vertex 17.5 8 7.5
      vertex 2 8 6.66134e-016
      vertex 18.253 8 9.06366
    endloop
  endfacet
  facet normal 0 1 2.22045e-016
    outer loop
      vertex 21.3019 8 6.63223
      vertex 27 8 6.66134e-016
      vertex 19.945 8 5.55014
    endloop
  endfacet
  facet normal 1 0 0
    outer loop
      vertex 30 116.618 21.2135
      vertex 30 5 3
      vertex 30 110 3
    endloop
  endfacet
  facet normal 1 0 0
    outer loop
      vertex 30 5 0
      vertex 30 5 3
      vertex 30 5 25
    endloop
  endfacet
  facet normal 1 0 0
    outer loop
      vertex 30 110 0
      vertex 30 125 0
      vertex 30 110 3
    endloop
  endfacet
  facet normal 1 0 0
    outer loop
      vertex 30 116.618 6.21352
      vertex 30 125 25
      vertex 30 110 3
    endloop
  endfacet
  facet normal 1 0 0
    outer loop
      vertex 30 125 25
      vertex 30 5 25
      vertex 30 5 3
    endloop
  endfacet
  facet normal 1 0 0
    outer loop
      vertex 30 116.073 4.53647
      vertex 30 116.618 6.21352
      vertex 30 110 3
    endloop
  endfacet
  facet normal 1 0 0
    outer loop
      vertex 30 118.382 6.21352
      vertex 30 125 25
      vertex 30 116.618 6.21352
    endloop
  endfacet
  facet normal 1 0 0
    outer loop
      vertex 30 125 0
      vertex 30 125 25
      vertex 30 118.382 6.21352
    endloop
  endfacet
  facet normal 1 0 0
    outer loop
      vertex 30 117.5 18.5
      vertex 30 116.073 19.5365
      vertex 30 110 3
    endloop
  endfacet
  facet normal 1 0 0
    outer loop
      vertex 30 125 0
      vertex 30 118.382 6.21352
      vertex 30 118.927 4.53647
    endloop
  endfacet
  facet normal 1 0 0
    outer loop
      vertex 30 125 0
      vertex 30 117.5 3.5
      vertex 30 110 3
    endloop
  endfacet
  facet normal 1 0 0
    outer loop
      vertex 30 117.5 3.5
      vertex 30 116.073 4.53647
      vertex 30 110 3
    endloop
  endfacet
  facet normal 1 0 0
    outer loop
      vertex 30 116.073 19.5365
      vertex 30 116.618 21.2135
      vertex 30 110 3
    endloop
  endfacet
  facet normal 1 0 0
    outer loop
      vertex 30 125 25
      vertex 30 5 3
      vertex 30 116.618 21.2135
    endloop
  endfacet
  facet normal 1 0 0
    outer loop
      vertex 30 125 25
      vertex 30 116.618 21.2135
      vertex 30 118.382 21.2135
    endloop
  endfacet
  facet normal 1 0 0
    outer loop
      vertex 30 125 25
      vertex 30 118.927 19.5365
      vertex 30 110 3
    endloop
  endfacet
  facet normal 1 0 0
    outer loop
      vertex 30 125 25
      vertex 30 118.382 21.2135
      vertex 30 118.927 19.5365
    endloop
  endfacet
  facet normal 1 0 0
    outer loop
      vertex 30 118.927 19.5365
      vertex 30 117.5 18.5
      vertex 30 110 3
    endloop
  endfacet
  facet normal 1 0 0
    outer loop
      vertex 30 118.927 4.53647
      vertex 30 117.5 3.5
      vertex 30 125 0
    endloop
  endfacet
  facet normal 0.934488 -0.355995 0
    outer loop
      vertex 70 110 0
      vertex 70 110 3
      vertex 30 5 3
    endloop
  endfacet
  facet normal 0.934488 -0.355995 0
    outer loop
      vertex 30 5 0
      vertex 70 110 0
      vertex 30 5 3
    endloop
  endfacet
  facet normal 2.22045e-016 1 0
    outer loop
      vertex 70 110 3
      vertex 70 110 0
      vertex 30 110 3
    endloop
  endfacet
  facet normal 2.22045e-016 1 0
    outer loop
      vertex 30 110 3
      vertex 70 110 0
      vertex 30 110 0
    endloop
  endfacet
  facet normal 0 1 0
    outer loop
      vertex 30 125 25
      vertex 30 125 0
      vertex 27 125 25
    endloop
  endfacet
  facet normal 0 1 0
    outer loop
      vertex 27 125 25
      vertex 30 125 0
      vertex 27 125 0
    endloop
  endfacet
  facet normal -1 0 0
    outer loop
      vertex 27 41 0
      vertex 27 44 6.66134e-016
      vertex 27 125 0
    endloop
  endfacet
  facet normal -1 0 0
    outer loop
      vertex 27 125 0
      vertex 27 44 6.66134e-016
      vertex 27 44 25
    endloop
  endfacet
  facet normal -1 0 0
    outer loop
      vertex 27 116.618 21.2135
      vertex 27 44 25
      vertex 27 125 25
    endloop
  endfacet
  facet normal -1 0 0
    outer loop
      vertex 27 116.073 4.53648
      vertex 27 44 25
      vertex 27 116.618 6.21353
    endloop
  endfacet
  facet normal -1 0 0
    outer loop
      vertex 27 118.382 6.21353
      vertex 27 116.618 6.21353
      vertex 27 125 25
    endloop
  endfacet
  facet normal -1 0 0
    outer loop
      vertex 27 117.5 3.5
      vertex 27 44 25
      vertex 27 116.073 4.53648
    endloop
  endfacet
  facet normal -1 0 0
    outer loop
      vertex 27 125 0
      vertex 27 44 25
      vertex 27 117.5 3.5
    endloop
  endfacet
  facet normal -1 0 0
    outer loop
      vertex 27 117.5 18.5
      vertex 27 116.618 6.21353
      vertex 27 116.073 19.5365
    endloop
  endfacet
  facet normal -1 0 0
    outer loop
      vertex 27 125 0
      vertex 27 118.927 4.53648
      vertex 27 125 25
    endloop
  endfacet
  facet normal -1 0 0
    outer loop
      vertex 27 118.927 4.53648
      vertex 27 118.382 6.21353
      vertex 27 125 25
    endloop
  endfacet
  facet normal -1 0 0
    outer loop
      vertex 27 116.073 19.5365
      vertex 27 44 25
      vertex 27 116.618 21.2135
    endloop
  endfacet
  facet normal -1 0 0
    outer loop
      vertex 27 118.382 21.2135
      vertex 27 116.618 21.2135
      vertex 27 125 25
    endloop
  endfacet
  facet normal -1 0 0
    outer loop
      vertex 27 116.618 6.21353
      vertex 27 44 25
      vertex 27 116.073 19.5365
    endloop
  endfacet
  facet normal -1 0 0
    outer loop
      vertex 27 118.382 21.2135
      vertex 27 125 25
      vertex 27 118.927 19.5365
    endloop
  endfacet
  facet normal -1 0 0
    outer loop
      vertex 27 116.618 6.21353
      vertex 27 117.5 18.5
      vertex 27 118.927 19.5365
    endloop
  endfacet
  facet normal -1 0 0
    outer loop
      vertex 27 116.618 6.21353
      vertex 27 118.927 19.5365
      vertex 27 125 25
    endloop
  endfacet
  facet normal -1 0 0
    outer loop
      vertex 27 118.927 4.53648
      vertex 27 125 0
      vertex 27 117.5 3.5
    endloop
  endfacet
  facet normal 0 2.22045e-016 -1
    outer loop
      vertex 27 44 6.66134e-016
      vertex 27 41 0
      vertex 2 44 6.66134e-016
    endloop
  endfacet
  facet normal 0 2.22045e-016 -1
    outer loop
      vertex 2 44 6.66134e-016
      vertex 27 41 0
      vertex 2 41 0
    endloop
  endfacet
  facet normal 0 -1 -2.22045e-016
    outer loop
      vertex 18.253 41 9.06366
      vertex 27 41 25
      vertex 2 41 0
    endloop
  endfacet
  facet normal 0 -1 -2.22045e-016
    outer loop
      vertex 19.945 41 9.44986
      vertex 27 41 25
      vertex 18.253 41 9.06366
    endloop
  endfacet
  facet normal 0 -1 -2.22045e-016
    outer loop
      vertex 17.5 41 7.5
      vertex 18.253 41 9.06366
      vertex 2 41 0
    endloop
  endfacet
  facet normal 0 -1 -2.22045e-016
    outer loop
      vertex 21.3019 41 8.36777
      vertex 27 41 25
      vertex 19.945 41 9.44986
    endloop
  endfacet
  facet normal 0 -1 -2.22045e-016
    outer loop
      vertex 21.3019 41 6.63223
      vertex 19.945 41 5.55014
      vertex 27 41 0
    endloop
  endfacet
  facet normal 0 -1 -2.22045e-016
    outer loop
      vertex 27 41 0
      vertex 27 41 25
      vertex 21.3019 41 8.36777
    endloop
  endfacet
  facet normal 0 -1 -2.22045e-016
    outer loop
      vertex 27 41 0
      vertex 19.945 41 5.55014
      vertex 2 41 0
    endloop
  endfacet
  facet normal 0 -1 -2.22045e-016
    outer loop
      vertex 19.945 41 5.55014
      vertex 18.253 41 5.93634
      vertex 2 41 0
    endloop
  endfacet
  facet normal 0 -1 -2.22045e-016
    outer loop
      vertex 18.253 41 5.93634
      vertex 17.5 41 7.5
      vertex 2 41 0
    endloop
  endfacet
  facet normal 0 -1 -2.22045e-016
    outer loop
      vertex 21.3019 41 8.36777
      vertex 21.3019 41 6.63223
      vertex 27 41 0
    endloop
  endfacet
  facet normal -0.707107 -1.57009e-016 0.707107
    outer loop
      vertex 27 44 25
      vertex 2 44 6.66134e-016
      vertex 27 41 25
    endloop
  endfacet
  facet normal -0.707107 -1.57009e-016 0.707107
    outer loop
      vertex 27 41 25
      vertex 2 44 6.66134e-016
      vertex 2 41 0
    endloop
  endfacet
  facet normal 0 1 2.22045e-016
    outer loop
      vertex 18.253 44 9.06366
      vertex 2 44 6.66134e-016
      vertex 27 44 25
    endloop
  endfacet
  facet normal 0 1 2.22045e-016
    outer loop
      vertex 18.253 44 5.93634
      vertex 2 44 6.66134e-016
      vertex 17.5 44 7.5
    endloop
  endfacet
  facet normal 0 1 2.22045e-016
    outer loop
      vertex 27 44 6.66134e-016
      vertex 2 44 6.66134e-016
      vertex 18.253 44 5.93634
    endloop
  endfacet
  facet normal 0 1 2.22045e-016
    outer loop
      vertex 27 44 6.66134e-016
      vertex 18.253 44 5.93634
      vertex 19.945 44 5.55014
    endloop
  endfacet
  facet normal 0 1 2.22045e-016
    outer loop
      vertex 18.253 44 9.06366
      vertex 27 44 25
      vertex 19.945 44 9.44986
    endloop
  endfacet
  facet normal 0 1 2.22045e-016
    outer loop
      vertex 27 44 6.66134e-016
      vertex 21.3019 44 6.63223
      vertex 27 44 25
    endloop
  endfacet
  facet normal 0 1 2.22045e-016
    outer loop
      vertex 21.3019 44 6.63223
      vertex 21.3019 44 8.36777
      vertex 27 44 25
    endloop
  endfacet
  facet normal 0 1 2.22045e-016
    outer loop
      vertex 21.3019 44 8.36777
      vertex 19.945 44 9.44986
      vertex 27 44 25
    endloop
  endfacet
  facet normal 0 1 2.22045e-016
    outer loop
      vertex 17.5 44 7.5
      vertex 2 44 6.66134e-016
      vertex 18.253 44 9.06366
    endloop
  endfacet
  facet normal 0 1 2.22045e-016
    outer loop
      vertex 21.3019 44 6.63223
      vertex 27 44 6.66134e-016
      vertex 19.945 44 5.55014
    endloop
  endfacet
  facet normal 0 0 1
    outer loop
      vertex 70 110 3
      vertex 30 110 3
      vertex 30 5 3
    endloop
  endfacet
  facet normal -2.22045e-016 0 -1
    outer loop
      vertex 27 116.618 6.21353
      vertex 27 118.382 6.21353
      vertex 30 116.618 6.21352
    endloop
  endfacet
  facet normal -2.22045e-016 0 -1
    outer loop
      vertex 30 116.618 6.21352
      vertex 27 118.382 6.21353
      vertex 30 118.382 6.21352
    endloop
  endfacet
  facet normal -6.86156e-017 0.951056 -0.309017
    outer loop
      vertex 27 116.073 4.53648
      vertex 27 116.618 6.21353
      vertex 30 116.073 4.53647
    endloop
  endfacet
  facet normal -6.86156e-017 0.951056 -0.309017
    outer loop
      vertex 30 116.073 4.53647
      vertex 27 116.618 6.21353
      vertex 30 116.618 6.21352
    endloop
  endfacet
  facet normal 1.79638e-016 0.587785 0.809017
    outer loop
      vertex 27 117.5 3.5
      vertex 27 116.073 4.53648
      vertex 30 116.073 4.53647
    endloop
  endfacet
  facet normal 1.79638e-016 0.587785 0.809017
    outer loop
      vertex 30 117.5 3.5
      vertex 27 117.5 3.5
      vertex 30 116.073 4.53647
    endloop
  endfacet
  facet normal 1.79638e-016 -0.587785 0.809017
    outer loop
      vertex 27 118.927 4.53648
      vertex 27 117.5 3.5
      vertex 30 117.5 3.5
    endloop
  endfacet
  facet normal 1.79638e-016 -0.587785 0.809017
    outer loop
      vertex 30 118.927 4.53647
      vertex 27 118.927 4.53648
      vertex 30 117.5 3.5
    endloop
  endfacet
  facet normal -6.86156e-017 -0.951056 -0.309017
    outer loop
      vertex 30 118.382 6.21352
      vertex 27 118.382 6.21353
      vertex 27 118.927 4.53648
    endloop
  endfacet
  facet normal -6.86156e-017 -0.951056 -0.309017
    outer loop
      vertex 30 118.927 4.53647
      vertex 30 118.382 6.21352
      vertex 27 118.927 4.53648
    endloop
  endfacet
  facet normal -2.22045e-016 0 -1
    outer loop
      vertex 27 116.618 21.2135
      vertex 27 118.382 21.2135
      vertex 30 116.618 21.2135
    endloop
  endfacet
  facet normal -2.22045e-016 0 -1
    outer loop
      vertex 30 116.618 21.2135
      vertex 27 118.382 21.2135
      vertex 30 118.382 21.2135
    endloop
  endfacet
  facet normal -6.86156e-017 0.951056 -0.309017
    outer loop
      vertex 27 116.073 19.5365
      vertex 27 116.618 21.2135
      vertex 30 116.073 19.5365
    endloop
  endfacet
  facet normal -6.86156e-017 0.951056 -0.309017
    outer loop
      vertex 30 116.073 19.5365
      vertex 27 116.618 21.2135
      vertex 30 116.618 21.2135
    endloop
  endfacet
  facet normal 1.79638e-016 0.587785 0.809017
    outer loop
      vertex 27 117.5 18.5
      vertex 27 116.073 19.5365
      vertex 30 116.073 19.5365
    endloop
  endfacet
  facet normal 1.79638e-016 0.587785 0.809017
    outer loop
      vertex 30 117.5 18.5
      vertex 27 117.5 18.5
      vertex 30 116.073 19.5365
    endloop
  endfacet
  facet normal 1.79638e-016 -0.587785 0.809017
    outer loop
      vertex 27 118.927 19.5365
      vertex 27 117.5 18.5
      vertex 30 117.5 18.5
    endloop
  endfacet
  facet normal 1.79638e-016 -0.587785 0.809017
    outer loop
      vertex 30 118.927 19.5365
      vertex 27 118.927 19.5365
      vertex 30 117.5 18.5
    endloop
  endfacet
  facet normal -6.86156e-017 -0.951056 -0.309017
    outer loop
      vertex 30 118.382 21.2135
      vertex 27 118.382 21.2135
      vertex 27 118.927 19.5365
    endloop
  endfacet
  facet normal -6.86156e-017 -0.951056 -0.309017
    outer loop
      vertex 30 118.927 19.5365
      vertex 30 118.382 21.2135
      vertex 27 118.927 19.5365
    endloop
  endfacet
  facet normal 0.222521 2.16477e-016 -0.974928
    outer loop
      vertex 18.253 41 9.06366
      vertex 18.253 44 9.06366
      vertex 19.945 41 9.44986
    endloop
  endfacet
  facet normal 0.222521 2.16477e-016 -0.974928
    outer loop
      vertex 19.945 41 9.44986
      vertex 18.253 44 9.06366
      vertex 19.945 44 9.44986
    endloop
  endfacet
  facet normal 0.900969 9.63415e-017 -0.433884
    outer loop
      vertex 18.253 41 9.06366
      vertex 17.5 41 7.5
      vertex 17.5 44 7.5
    endloop
  endfacet
  facet normal 0.900969 9.63415e-017 -0.433884
    outer loop
      vertex 18.253 44 9.06366
      vertex 18.253 41 9.06366
      vertex 17.5 44 7.5
    endloop
  endfacet
  facet normal 0.900969 -9.63415e-017 0.433884
    outer loop
      vertex 17.5 44 7.5
      vertex 17.5 41 7.5
      vertex 18.253 41 5.93634
    endloop
  endfacet
  facet normal 0.900969 -9.63415e-017 0.433884
    outer loop
      vertex 18.253 44 5.93634
      vertex 17.5 44 7.5
      vertex 18.253 41 5.93634
    endloop
  endfacet
  facet normal 0.222521 -2.16477e-016 0.974928
    outer loop
      vertex 18.253 44 5.93634
      vertex 18.253 41 5.93634
      vertex 19.945 41 5.55014
    endloop
  endfacet
  facet normal 0.222521 -2.16477e-016 0.974928
    outer loop
      vertex 19.945 44 5.55014
      vertex 18.253 44 5.93634
      vertex 19.945 41 5.55014
    endloop
  endfacet
  facet normal -0.62349 -1.73601e-016 0.781831
    outer loop
      vertex 19.945 44 5.55014
      vertex 19.945 41 5.55014
      vertex 21.3019 41 6.63223
    endloop
  endfacet
  facet normal -0.62349 -1.73601e-016 0.781831
    outer loop
      vertex 21.3019 44 6.63223
      vertex 19.945 44 5.55014
      vertex 21.3019 41 6.63223
    endloop
  endfacet
  facet normal -1 0 0
    outer loop
      vertex 21.3019 41 8.36777
      vertex 21.3019 44 8.36777
      vertex 21.3019 41 6.63223
    endloop
  endfacet
  facet normal -1 0 0
    outer loop
      vertex 21.3019 41 6.63223
      vertex 21.3019 44 8.36777
      vertex 21.3019 44 6.63223
    endloop
  endfacet
  facet normal -0.62349 1.73601e-016 -0.781831
    outer loop
      vertex 19.945 41 9.44986
      vertex 19.945 44 9.44986
      vertex 21.3019 41 8.36777
    endloop
  endfacet
  facet normal -0.62349 1.73601e-016 -0.781831
    outer loop
      vertex 21.3019 41 8.36777
      vertex 19.945 44 9.44986
      vertex 21.3019 44 8.36777
    endloop
  endfacet
endsolid OpenSCAD_Model
