solid OpenSCAD_Model
  facet normal 0.965914 0.258865 0
    outer loop
      vertex -16 12.5 3.175
      vertex -16 12.5 9.525
      vertex -15.799 11.75 9.525
    endloop
  endfacet
  facet normal 0.965914 0.258865 0
    outer loop
      vertex -15.799 11.75 3.175
      vertex -16 12.5 3.175
      vertex -15.799 11.75 9.525
    endloop
  endfacet
  facet normal 0.965914 -0.258865 0
    outer loop
      vertex -16 12.5 3.175
      vertex -15.799 13.25 3.175
      vertex -15.799 13.25 9.525
    endloop
  endfacet
  facet normal 0.965914 -0.258865 0
    outer loop
      vertex -16 12.5 9.525
      vertex -16 12.5 3.175
      vertex -15.799 13.25 9.525
    endloop
  endfacet
  facet normal 0 0 -1
    outer loop
      vertex -22.5 12.55 3.175
      vertex -22.379 13.931 3.175
      vertex -22.5 -12.55 3.175
    endloop
  endfacet
  facet normal 0 0 -1
    outer loop
      vertex -22.5 -12.55 3.175
      vertex -22.379 13.931 3.175
      vertex -22.021 15.269 3.175
    endloop
  endfacet
  facet normal 0 0 -1
    outer loop
      vertex -22.5 -12.55 3.175
      vertex -22.021 15.269 3.175
      vertex -21.435 16.525 3.175
    endloop
  endfacet
  facet normal 0 0 -1
    outer loop
      vertex -22.5 -12.55 3.175
      vertex -21.435 16.525 3.175
      vertex -20.64 17.66 3.175
    endloop
  endfacet
  facet normal 0 0 -1
    outer loop
      vertex -22.5 -12.55 3.175
      vertex -20.64 17.66 3.175
      vertex -19.66 18.64 3.175
    endloop
  endfacet
  facet normal 0 0 -1
    outer loop
      vertex -22.5 -12.55 3.175
      vertex -19.66 18.64 3.175
      vertex -18.525 19.435 3.175
    endloop
  endfacet
  facet normal 0 0 -1
    outer loop
      vertex -22.5 -12.55 3.175
      vertex -18.525 19.435 3.175
      vertex -17.269 20.021 3.175
    endloop
  endfacet
  facet normal 0 0 -1
    outer loop
      vertex -22.5 -12.55 3.175
      vertex -17.269 20.021 3.175
      vertex -15.931 20.379 3.175
    endloop
  endfacet
  facet normal 0 0 -1
    outer loop
      vertex -22.5 -12.55 3.175
      vertex -15.931 20.379 3.175
      vertex -14.55 20.5 3.175
    endloop
  endfacet
  facet normal 0 0 -1
    outer loop
      vertex -13.201 13.25 3.175
      vertex -14.55 20.5 3.175
      vertex 14.55 20.5 3.175
    endloop
  endfacet
  facet normal 0 0 -1
    outer loop
      vertex -22.5 -12.55 3.175
      vertex 14.55 20.5 3.175
      vertex 15.931 20.379 3.175
    endloop
  endfacet
  facet normal 0 0 -1
    outer loop
      vertex -22.5 -12.55 3.175
      vertex 15.931 20.379 3.175
      vertex 17.269 20.021 3.175
    endloop
  endfacet
  facet normal 0 0 -1
    outer loop
      vertex -22.5 -12.55 3.175
      vertex 17.269 20.021 3.175
      vertex 18.525 19.435 3.175
    endloop
  endfacet
  facet normal 0 0 -1
    outer loop
      vertex -22.5 -12.55 3.175
      vertex 18.525 19.435 3.175
      vertex 19.66 18.64 3.175
    endloop
  endfacet
  facet normal 0 0 -1
    outer loop
      vertex 14.5 14 3.175
      vertex 20.64 17.66 3.175
      vertex 15.25 13.799 3.175
    endloop
  endfacet
  facet normal 0 0 -1
    outer loop
      vertex 16 12.5 3.175
      vertex 21.435 16.525 3.175
      vertex 22.021 15.269 3.175
    endloop
  endfacet
  facet normal 0 0 -1
    outer loop
      vertex -22.5 -12.55 3.175
      vertex 22.021 15.269 3.175
      vertex 22.379 13.931 3.175
    endloop
  endfacet
  facet normal 0 0 -1
    outer loop
      vertex -22.5 -12.55 3.175
      vertex 22.379 13.931 3.175
      vertex 22.5 12.55 3.175
    endloop
  endfacet
  facet normal 0 0 -1
    outer loop
      vertex 16 -12.5 3.175
      vertex 22.5 12.55 3.175
      vertex 22.5 -12.55 3.175
    endloop
  endfacet
  facet normal 0 0 -1
    outer loop
      vertex 15.799 -13.25 3.175
      vertex 22.5 -12.55 3.175
      vertex 22.379 -13.931 3.175
    endloop
  endfacet
  facet normal 0 0 -1
    outer loop
      vertex -13.201 -13.25 3.175
      vertex 22.021 -15.269 3.175
      vertex 21.435 -16.525 3.175
    endloop
  endfacet
  facet normal 0 0 -1
    outer loop
      vertex -13 -12.5 3.175
      vertex 13.75 -13.799 3.175
      vertex 14.5 -14 3.175
    endloop
  endfacet
  facet normal 0 0 -1
    outer loop
      vertex -13.75 -13.799 3.175
      vertex 20.64 -17.66 3.175
      vertex 19.66 -18.64 3.175
    endloop
  endfacet
  facet normal 0 0 -1
    outer loop
      vertex -13.75 -13.799 3.175
      vertex 17.269 -20.021 3.175
      vertex -14.5 -14 3.175
    endloop
  endfacet
  facet normal 0 0 -1
    outer loop
      vertex -13.201 -13.25 3.175
      vertex 20.64 -17.66 3.175
      vertex -13.75 -13.799 3.175
    endloop
  endfacet
  facet normal 0 0 -1
    outer loop
      vertex -22.5 -12.55 3.175
      vertex 17.269 -20.021 3.175
      vertex 15.931 -20.379 3.175
    endloop
  endfacet
  facet normal 0 0 -1
    outer loop
      vertex -22.5 -12.55 3.175
      vertex 15.931 -20.379 3.175
      vertex 14.55 -20.5 3.175
    endloop
  endfacet
  facet normal 0 0 -1
    outer loop
      vertex -22.5 -12.55 3.175
      vertex 14.55 -20.5 3.175
      vertex -14.55 -20.5 3.175
    endloop
  endfacet
  facet normal 0 0 -1
    outer loop
      vertex -22.5 -12.55 3.175
      vertex -14.55 -20.5 3.175
      vertex -15.931 -20.379 3.175
    endloop
  endfacet
  facet normal 0 0 -1
    outer loop
      vertex -22.5 -12.55 3.175
      vertex -15.931 -20.379 3.175
      vertex -17.269 -20.021 3.175
    endloop
  endfacet
  facet normal 0 0 -1
    outer loop
      vertex -22.5 -12.55 3.175
      vertex -17.269 -20.021 3.175
      vertex -18.525 -19.435 3.175
    endloop
  endfacet
  facet normal 0 0 -1
    outer loop
      vertex -22.5 -12.55 3.175
      vertex -18.525 -19.435 3.175
      vertex -19.66 -18.64 3.175
    endloop
  endfacet
  facet normal 0 0 -1
    outer loop
      vertex -22.5 -12.55 3.175
      vertex -19.66 -18.64 3.175
      vertex -20.64 -17.66 3.175
    endloop
  endfacet
  facet normal 0 0 -1
    outer loop
      vertex -22.5 -12.55 3.175
      vertex -20.64 -17.66 3.175
      vertex -21.435 -16.525 3.175
    endloop
  endfacet
  facet normal 0 0 -1
    outer loop
      vertex -22.5 -12.55 3.175
      vertex -21.435 -16.525 3.175
      vertex -22.021 -15.269 3.175
    endloop
  endfacet
  facet normal 0 0 -1
    outer loop
      vertex -22.5 -12.55 3.175
      vertex -22.021 -15.269 3.175
      vertex -22.379 -13.931 3.175
    endloop
  endfacet
  facet normal 0 0 -1
    outer loop
      vertex -22.5 -12.55 3.175
      vertex -14.55 20.5 3.175
      vertex -16 12.5 3.175
    endloop
  endfacet
  facet normal 0 0 -1
    outer loop
      vertex -22.5 -12.55 3.175
      vertex -16 12.5 3.175
      vertex -15.799 11.75 3.175
    endloop
  endfacet
  facet normal 0 0 -1
    outer loop
      vertex -22.5 -12.55 3.175
      vertex -15.799 11.75 3.175
      vertex -15.25 11.201 3.175
    endloop
  endfacet
  facet normal 0 0 -1
    outer loop
      vertex -22.5 -12.55 3.175
      vertex -15.25 11.201 3.175
      vertex -14.5 11 3.175
    endloop
  endfacet
  facet normal 0 0 -1
    outer loop
      vertex -22.5 -12.55 3.175
      vertex -14.5 11 3.175
      vertex -13.75 11.201 3.175
    endloop
  endfacet
  facet normal 0 0 -1
    outer loop
      vertex -22.5 -12.55 3.175
      vertex -13.75 11.201 3.175
      vertex 14.55 20.5 3.175
    endloop
  endfacet
  facet normal 0 0 -1
    outer loop
      vertex -13 12.5 3.175
      vertex 14.55 20.5 3.175
      vertex -13.201 11.75 3.175
    endloop
  endfacet
  facet normal 0 0 -1
    outer loop
      vertex -13.201 13.25 3.175
      vertex 14.55 20.5 3.175
      vertex -13 12.5 3.175
    endloop
  endfacet
  facet normal 0 0 -1
    outer loop
      vertex -13.75 13.799 3.175
      vertex -14.55 20.5 3.175
      vertex -13.201 13.25 3.175
    endloop
  endfacet
  facet normal 0 0 -1
    outer loop
      vertex -14.5 14 3.175
      vertex -14.55 20.5 3.175
      vertex -13.75 13.799 3.175
    endloop
  endfacet
  facet normal 0 0 -1
    outer loop
      vertex -15.25 13.799 3.175
      vertex -14.55 20.5 3.175
      vertex -14.5 14 3.175
    endloop
  endfacet
  facet normal 0 0 -1
    outer loop
      vertex -15.799 13.25 3.175
      vertex -14.55 20.5 3.175
      vertex -15.25 13.799 3.175
    endloop
  endfacet
  facet normal 0 0 -1
    outer loop
      vertex -16 12.5 3.175
      vertex -14.55 20.5 3.175
      vertex -15.799 13.25 3.175
    endloop
  endfacet
  facet normal 0 0 -1
    outer loop
      vertex -16 -12.5 3.175
      vertex -22.5 -12.55 3.175
      vertex -15.799 -11.75 3.175
    endloop
  endfacet
  facet normal 0 0 -1
    outer loop
      vertex 15.799 -13.25 3.175
      vertex 22.379 -13.931 3.175
      vertex 15.25 -13.799 3.175
    endloop
  endfacet
  facet normal 0 0 -1
    outer loop
      vertex -13.201 -13.25 3.175
      vertex 21.435 -16.525 3.175
      vertex 20.64 -17.66 3.175
    endloop
  endfacet
  facet normal 0 0 -1
    outer loop
      vertex 15.25 -13.799 3.175
      vertex 22.021 -15.269 3.175
      vertex 14.5 -14 3.175
    endloop
  endfacet
  facet normal 0 0 -1
    outer loop
      vertex 15.25 -13.799 3.175
      vertex 22.379 -13.931 3.175
      vertex 22.021 -15.269 3.175
    endloop
  endfacet
  facet normal 0 0 -1
    outer loop
      vertex 16 -12.5 3.175
      vertex 22.5 -12.55 3.175
      vertex 15.799 -13.25 3.175
    endloop
  endfacet
  facet normal 0 0 -1
    outer loop
      vertex 15.799 -11.75 3.175
      vertex 22.5 12.55 3.175
      vertex 16 -12.5 3.175
    endloop
  endfacet
  facet normal 0 0 -1
    outer loop
      vertex 13.201 -11.75 3.175
      vertex 22.5 12.55 3.175
      vertex 13.75 -11.201 3.175
    endloop
  endfacet
  facet normal 0 0 -1
    outer loop
      vertex 15.25 -11.201 3.175
      vertex 22.5 12.55 3.175
      vertex 15.799 -11.75 3.175
    endloop
  endfacet
  facet normal 0 0 -1
    outer loop
      vertex 14.5 -11 3.175
      vertex 22.5 12.55 3.175
      vertex 15.25 -11.201 3.175
    endloop
  endfacet
  facet normal 0 0 -1
    outer loop
      vertex 13.75 -11.201 3.175
      vertex 22.5 12.55 3.175
      vertex 14.5 -11 3.175
    endloop
  endfacet
  facet normal 0 0 -1
    outer loop
      vertex -15.799 -11.75 3.175
      vertex -22.5 -12.55 3.175
      vertex -15.25 -11.201 3.175
    endloop
  endfacet
  facet normal 0 0 -1
    outer loop
      vertex -13.201 -11.75 3.175
      vertex 22.5 12.55 3.175
      vertex 13.201 -11.75 3.175
    endloop
  endfacet
  facet normal 0 0 -1
    outer loop
      vertex -15.799 -13.25 3.175
      vertex -22.5 -12.55 3.175
      vertex -16 -12.5 3.175
    endloop
  endfacet
  facet normal 0 0 -1
    outer loop
      vertex -13 -12.5 3.175
      vertex 13.201 -11.75 3.175
      vertex 13 -12.5 3.175
    endloop
  endfacet
  facet normal 0 0 -1
    outer loop
      vertex -15.25 -13.799 3.175
      vertex -22.5 -12.55 3.175
      vertex -15.799 -13.25 3.175
    endloop
  endfacet
  facet normal 0 0 -1
    outer loop
      vertex -13.75 -13.799 3.175
      vertex 18.525 -19.435 3.175
      vertex 17.269 -20.021 3.175
    endloop
  endfacet
  facet normal 0 0 -1
    outer loop
      vertex -22.5 -12.55 3.175
      vertex -15.25 -13.799 3.175
      vertex -14.5 -14 3.175
    endloop
  endfacet
  facet normal 0 0 -1
    outer loop
      vertex -22.5 -12.55 3.175
      vertex -14.5 -14 3.175
      vertex 17.269 -20.021 3.175
    endloop
  endfacet
  facet normal 0 0 -1
    outer loop
      vertex -13 -12.5 3.175
      vertex 22.021 -15.269 3.175
      vertex -13.201 -13.25 3.175
    endloop
  endfacet
  facet normal 0 0 -1
    outer loop
      vertex -13.75 -13.799 3.175
      vertex 19.66 -18.64 3.175
      vertex 18.525 -19.435 3.175
    endloop
  endfacet
  facet normal 0 0 -1
    outer loop
      vertex -13 -12.5 3.175
      vertex 14.5 -14 3.175
      vertex 22.021 -15.269 3.175
    endloop
  endfacet
  facet normal 0 0 -1
    outer loop
      vertex -13.75 -11.201 3.175
      vertex 22.5 12.55 3.175
      vertex -13.201 -11.75 3.175
    endloop
  endfacet
  facet normal 0 0 -1
    outer loop
      vertex -13 -12.5 3.175
      vertex 13 -12.5 3.175
      vertex 13.201 -13.25 3.175
    endloop
  endfacet
  facet normal 0 0 -1
    outer loop
      vertex -14.5 -11 3.175
      vertex 22.5 12.55 3.175
      vertex -13.75 -11.201 3.175
    endloop
  endfacet
  facet normal 0 0 -1
    outer loop
      vertex -22.5 -12.55 3.175
      vertex 22.5 12.55 3.175
      vertex -14.5 -11 3.175
    endloop
  endfacet
  facet normal 0 0 -1
    outer loop
      vertex -22.5 -12.55 3.175
      vertex -14.5 -11 3.175
      vertex -15.25 -11.201 3.175
    endloop
  endfacet
  facet normal 0 0 -1
    outer loop
      vertex 13 12.5 3.175
      vertex -22.5 -12.55 3.175
      vertex 13.201 13.25 3.175
    endloop
  endfacet
  facet normal 0 0 -1
    outer loop
      vertex -13.201 -11.75 3.175
      vertex 13.201 -11.75 3.175
      vertex -13 -12.5 3.175
    endloop
  endfacet
  facet normal 0 0 -1
    outer loop
      vertex 14.5 14 3.175
      vertex 19.66 18.64 3.175
      vertex 20.64 17.66 3.175
    endloop
  endfacet
  facet normal 0 0 -1
    outer loop
      vertex 15.799 11.75 3.175
      vertex 22.021 15.269 3.175
      vertex 15.25 11.201 3.175
    endloop
  endfacet
  facet normal 0 0 -1
    outer loop
      vertex -22.5 -12.55 3.175
      vertex 13.75 11.201 3.175
      vertex 14.5 11 3.175
    endloop
  endfacet
  facet normal 0 0 -1
    outer loop
      vertex -22.5 -12.55 3.175
      vertex 14.5 11 3.175
      vertex 15.25 11.201 3.175
    endloop
  endfacet
  facet normal 0 0 -1
    outer loop
      vertex -22.5 -12.55 3.175
      vertex 15.25 11.201 3.175
      vertex 22.021 15.269 3.175
    endloop
  endfacet
  facet normal 0 0 -1
    outer loop
      vertex 16 12.5 3.175
      vertex 22.021 15.269 3.175
      vertex 15.799 11.75 3.175
    endloop
  endfacet
  facet normal 0 0 -1
    outer loop
      vertex 15.25 13.799 3.175
      vertex 21.435 16.525 3.175
      vertex 15.799 13.25 3.175
    endloop
  endfacet
  facet normal 0 0 -1
    outer loop
      vertex 15.799 13.25 3.175
      vertex 21.435 16.525 3.175
      vertex 16 12.5 3.175
    endloop
  endfacet
  facet normal 0 0 -1
    outer loop
      vertex 15.25 13.799 3.175
      vertex 20.64 17.66 3.175
      vertex 21.435 16.525 3.175
    endloop
  endfacet
  facet normal 0 0 -1
    outer loop
      vertex 13.75 11.201 3.175
      vertex -22.5 -12.55 3.175
      vertex 13.201 11.75 3.175
    endloop
  endfacet
  facet normal 0 0 -1
    outer loop
      vertex 13.75 13.799 3.175
      vertex 19.66 18.64 3.175
      vertex 14.5 14 3.175
    endloop
  endfacet
  facet normal 0 0 -1
    outer loop
      vertex 13.201 11.75 3.175
      vertex -22.5 -12.55 3.175
      vertex 13 12.5 3.175
    endloop
  endfacet
  facet normal 0 0 -1
    outer loop
      vertex -22.5 -12.55 3.175
      vertex 19.66 18.64 3.175
      vertex 13.75 13.799 3.175
    endloop
  endfacet
  facet normal 0 0 -1
    outer loop
      vertex -22.5 -12.55 3.175
      vertex 13.75 13.799 3.175
      vertex 13.201 13.25 3.175
    endloop
  endfacet
  facet normal 0 0 -1
    outer loop
      vertex -13.201 11.75 3.175
      vertex 14.55 20.5 3.175
      vertex -13.75 11.201 3.175
    endloop
  endfacet
  facet normal 0 0 -1
    outer loop
      vertex -13 -12.5 3.175
      vertex 13.201 -13.25 3.175
      vertex 13.75 -13.799 3.175
    endloop
  endfacet
  facet normal 0.707107 0.707107 0
    outer loop
      vertex -15.799 11.75 3.175
      vertex -15.799 11.75 9.525
      vertex -15.25 11.201 9.525
    endloop
  endfacet
  facet normal 0.707107 0.707107 0
    outer loop
      vertex -15.25 11.201 3.175
      vertex -15.799 11.75 3.175
      vertex -15.25 11.201 9.525
    endloop
  endfacet
  facet normal 0 0 1
    outer loop
      vertex -22.5 -12.55 9.525
      vertex -22.379 -13.931 9.525
      vertex -22.021 -15.269 9.525
    endloop
  endfacet
  facet normal 0 0 1
    outer loop
      vertex -20.64 -17.66 9.525
      vertex -22.5 -12.55 9.525
      vertex -21.435 -16.525 9.525
    endloop
  endfacet
  facet normal 0 0 1
    outer loop
      vertex -21.435 -16.525 9.525
      vertex -22.5 -12.55 9.525
      vertex -22.021 -15.269 9.525
    endloop
  endfacet
  facet normal 0 0 1
    outer loop
      vertex -19.66 -18.64 9.525
      vertex -22.5 -12.55 9.525
      vertex -20.64 -17.66 9.525
    endloop
  endfacet
  facet normal 0 0 1
    outer loop
      vertex -18.525 -19.435 9.525
      vertex -22.5 -12.55 9.525
      vertex -19.66 -18.64 9.525
    endloop
  endfacet
  facet normal 0 0 1
    outer loop
      vertex -17.269 -20.021 9.525
      vertex -22.5 -12.55 9.525
      vertex -18.525 -19.435 9.525
    endloop
  endfacet
  facet normal 0 0 1
    outer loop
      vertex -15.931 -20.379 9.525
      vertex -22.5 -12.55 9.525
      vertex -17.269 -20.021 9.525
    endloop
  endfacet
  facet normal 0 0 1
    outer loop
      vertex -14.55 -20.5 9.525
      vertex -22.5 -12.55 9.525
      vertex -15.931 -20.379 9.525
    endloop
  endfacet
  facet normal 0 0 1
    outer loop
      vertex 14.55 -20.5 9.525
      vertex -22.5 -12.55 9.525
      vertex -14.55 -20.5 9.525
    endloop
  endfacet
  facet normal 0 0 1
    outer loop
      vertex 15.931 -20.379 9.525
      vertex -22.5 -12.55 9.525
      vertex 14.55 -20.5 9.525
    endloop
  endfacet
  facet normal 0 0 1
    outer loop
      vertex 17.269 -20.021 9.525
      vertex -22.5 -12.55 9.525
      vertex 15.931 -20.379 9.525
    endloop
  endfacet
  facet normal 0 0 1
    outer loop
      vertex -14.5 -14 9.525
      vertex -22.5 -12.55 9.525
      vertex 17.269 -20.021 9.525
    endloop
  endfacet
  facet normal 0 0 1
    outer loop
      vertex 13.201 11.75 9.525
      vertex 13 12.5 9.525
      vertex -22.5 -12.55 9.525
    endloop
  endfacet
  facet normal 0 0 1
    outer loop
      vertex -13 -12.5 9.525
      vertex 22.021 -15.269 9.525
      vertex 14.5 -14 9.525
    endloop
  endfacet
  facet normal 0 0 1
    outer loop
      vertex 22.379 13.931 9.525
      vertex -22.5 -12.55 9.525
      vertex 22.5 12.55 9.525
    endloop
  endfacet
  facet normal 0 0 1
    outer loop
      vertex 22.021 15.269 9.525
      vertex -22.5 -12.55 9.525
      vertex 22.379 13.931 9.525
    endloop
  endfacet
  facet normal 0 0 1
    outer loop
      vertex 15.25 11.201 9.525
      vertex -22.5 -12.55 9.525
      vertex 22.021 15.269 9.525
    endloop
  endfacet
  facet normal 0 0 1
    outer loop
      vertex 18.525 19.435 9.525
      vertex -22.5 -12.55 9.525
      vertex 19.66 18.64 9.525
    endloop
  endfacet
  facet normal 0 0 1
    outer loop
      vertex 17.269 20.021 9.525
      vertex -22.5 -12.55 9.525
      vertex 18.525 19.435 9.525
    endloop
  endfacet
  facet normal 0 0 1
    outer loop
      vertex 15.931 20.379 9.525
      vertex -22.5 -12.55 9.525
      vertex 17.269 20.021 9.525
    endloop
  endfacet
  facet normal 0 0 1
    outer loop
      vertex 14.55 20.5 9.525
      vertex -22.5 -12.55 9.525
      vertex 15.931 20.379 9.525
    endloop
  endfacet
  facet normal 0 0 1
    outer loop
      vertex -13.201 11.75 9.525
      vertex -22.5 -12.55 9.525
      vertex 14.55 20.5 9.525
    endloop
  endfacet
  facet normal 0 0 1
    outer loop
      vertex -15.931 20.379 9.525
      vertex -22.5 -12.55 9.525
      vertex -14.55 20.5 9.525
    endloop
  endfacet
  facet normal 0 0 1
    outer loop
      vertex -17.269 20.021 9.525
      vertex -22.5 -12.55 9.525
      vertex -15.931 20.379 9.525
    endloop
  endfacet
  facet normal 0 0 1
    outer loop
      vertex -18.525 19.435 9.525
      vertex -22.5 -12.55 9.525
      vertex -17.269 20.021 9.525
    endloop
  endfacet
  facet normal 0 0 1
    outer loop
      vertex -19.66 18.64 9.525
      vertex -22.5 -12.55 9.525
      vertex -18.525 19.435 9.525
    endloop
  endfacet
  facet normal 0 0 1
    outer loop
      vertex -20.64 17.66 9.525
      vertex -22.5 -12.55 9.525
      vertex -19.66 18.64 9.525
    endloop
  endfacet
  facet normal 0 0 1
    outer loop
      vertex -21.435 16.525 9.525
      vertex -22.5 -12.55 9.525
      vertex -20.64 17.66 9.525
    endloop
  endfacet
  facet normal 0 0 1
    outer loop
      vertex -22.021 15.269 9.525
      vertex -22.5 -12.55 9.525
      vertex -21.435 16.525 9.525
    endloop
  endfacet
  facet normal 0 0 1
    outer loop
      vertex -22.379 13.931 9.525
      vertex -22.5 -12.55 9.525
      vertex -22.021 15.269 9.525
    endloop
  endfacet
  facet normal 0 0 1
    outer loop
      vertex -22.5 12.55 9.525
      vertex -22.5 -12.55 9.525
      vertex -22.379 13.931 9.525
    endloop
  endfacet
  facet normal 0 0 1
    outer loop
      vertex -13.201 11.75 9.525
      vertex -13.75 11.201 9.525
      vertex -22.5 -12.55 9.525
    endloop
  endfacet
  facet normal 0 0 1
    outer loop
      vertex -14.55 20.5 9.525
      vertex -22.5 -12.55 9.525
      vertex -16 12.5 9.525
    endloop
  endfacet
  facet normal 0 0 1
    outer loop
      vertex -13.201 13.25 9.525
      vertex -13 12.5 9.525
      vertex 14.55 20.5 9.525
    endloop
  endfacet
  facet normal 0 0 1
    outer loop
      vertex -14.55 20.5 9.525
      vertex -16 12.5 9.525
      vertex -15.799 13.25 9.525
    endloop
  endfacet
  facet normal 0 0 1
    outer loop
      vertex -13.75 13.799 9.525
      vertex -13.201 13.25 9.525
      vertex 14.55 20.5 9.525
    endloop
  endfacet
  facet normal 0 0 1
    outer loop
      vertex -14.55 20.5 9.525
      vertex -15.799 13.25 9.525
      vertex -15.25 13.799 9.525
    endloop
  endfacet
  facet normal 0 0 1
    outer loop
      vertex -14.55 20.5 9.525
      vertex -14.5 14 9.525
      vertex 14.55 20.5 9.525
    endloop
  endfacet
  facet normal 0 0 1
    outer loop
      vertex -14.55 20.5 9.525
      vertex -15.25 13.799 9.525
      vertex -14.5 14 9.525
    endloop
  endfacet
  facet normal 0 0 1
    outer loop
      vertex -13 -12.5 9.525
      vertex 13.201 -13.25 9.525
      vertex 13 -12.5 9.525
    endloop
  endfacet
  facet normal 0 0 1
    outer loop
      vertex -13 12.5 9.525
      vertex -13.201 11.75 9.525
      vertex 14.55 20.5 9.525
    endloop
  endfacet
  facet normal 0 0 1
    outer loop
      vertex -14.5 11 9.525
      vertex -22.5 -12.55 9.525
      vertex -13.75 11.201 9.525
    endloop
  endfacet
  facet normal 0 0 1
    outer loop
      vertex -15.25 11.201 9.525
      vertex -22.5 -12.55 9.525
      vertex -14.5 11 9.525
    endloop
  endfacet
  facet normal 0 0 1
    outer loop
      vertex -15.799 11.75 9.525
      vertex -22.5 -12.55 9.525
      vertex -15.25 11.201 9.525
    endloop
  endfacet
  facet normal 0 0 1
    outer loop
      vertex -16 12.5 9.525
      vertex -22.5 -12.55 9.525
      vertex -15.799 11.75 9.525
    endloop
  endfacet
  facet normal 0 0 1
    outer loop
      vertex 15.25 -11.201 9.525
      vertex 15.799 -11.75 9.525
      vertex 22.5 -12.55 9.525
    endloop
  endfacet
  facet normal 0 0 1
    outer loop
      vertex -15.25 -11.201 9.525
      vertex -14.5 -11 9.525
      vertex 22.5 12.55 9.525
    endloop
  endfacet
  facet normal 0 0 1
    outer loop
      vertex 16 -12.5 9.525
      vertex 15.799 -13.25 9.525
      vertex 22.5 -12.55 9.525
    endloop
  endfacet
  facet normal 0 0 1
    outer loop
      vertex 22.5 12.55 9.525
      vertex 14.5 -11 9.525
      vertex 22.5 -12.55 9.525
    endloop
  endfacet
  facet normal 0 0 1
    outer loop
      vertex 22.5 12.55 9.525
      vertex 13.75 -11.201 9.525
      vertex 14.5 -11 9.525
    endloop
  endfacet
  facet normal 0 0 1
    outer loop
      vertex 14.5 -11 9.525
      vertex 15.25 -11.201 9.525
      vertex 22.5 -12.55 9.525
    endloop
  endfacet
  facet normal 0 0 1
    outer loop
      vertex 15.799 -11.75 9.525
      vertex 16 -12.5 9.525
      vertex 22.5 -12.55 9.525
    endloop
  endfacet
  facet normal 0 0 1
    outer loop
      vertex 22.5 -12.55 9.525
      vertex 15.799 -13.25 9.525
      vertex 22.379 -13.931 9.525
    endloop
  endfacet
  facet normal 0 0 1
    outer loop
      vertex 13.201 -11.75 9.525
      vertex 13.75 -11.201 9.525
      vertex 22.5 12.55 9.525
    endloop
  endfacet
  facet normal 0 0 1
    outer loop
      vertex 22.379 -13.931 9.525
      vertex 15.25 -13.799 9.525
      vertex 22.021 -15.269 9.525
    endloop
  endfacet
  facet normal 0 0 1
    outer loop
      vertex 15.25 -13.799 9.525
      vertex 14.5 -14 9.525
      vertex 22.021 -15.269 9.525
    endloop
  endfacet
  facet normal 0 0 1
    outer loop
      vertex -13 -12.5 9.525
      vertex -13.201 -13.25 9.525
      vertex 22.021 -15.269 9.525
    endloop
  endfacet
  facet normal 0 0 1
    outer loop
      vertex -13.201 -13.25 9.525
      vertex -13.75 -13.799 9.525
      vertex 20.64 -17.66 9.525
    endloop
  endfacet
  facet normal 0 0 1
    outer loop
      vertex 15.799 -13.25 9.525
      vertex 15.25 -13.799 9.525
      vertex 22.379 -13.931 9.525
    endloop
  endfacet
  facet normal 0 0 1
    outer loop
      vertex -13 -12.5 9.525
      vertex 13.75 -13.799 9.525
      vertex 13.201 -13.25 9.525
    endloop
  endfacet
  facet normal 0 0 1
    outer loop
      vertex -13 -12.5 9.525
      vertex 14.5 -14 9.525
      vertex 13.75 -13.799 9.525
    endloop
  endfacet
  facet normal 0 0 1
    outer loop
      vertex -15.25 -11.201 9.525
      vertex -22.5 -12.55 9.525
      vertex -15.799 -11.75 9.525
    endloop
  endfacet
  facet normal 0 0 1
    outer loop
      vertex -13.201 -11.75 9.525
      vertex -13 -12.5 9.525
      vertex 13.201 -11.75 9.525
    endloop
  endfacet
  facet normal 0 0 1
    outer loop
      vertex 22.5 12.55 9.525
      vertex -22.5 -12.55 9.525
      vertex -15.25 -11.201 9.525
    endloop
  endfacet
  facet normal 0 0 1
    outer loop
      vertex 22.5 12.55 9.525
      vertex -14.5 -11 9.525
      vertex 13.201 -11.75 9.525
    endloop
  endfacet
  facet normal 0 0 1
    outer loop
      vertex -14.5 -11 9.525
      vertex -13.75 -11.201 9.525
      vertex 13.201 -11.75 9.525
    endloop
  endfacet
  facet normal 0 0 1
    outer loop
      vertex -13.75 -11.201 9.525
      vertex -13.201 -11.75 9.525
      vertex 13.201 -11.75 9.525
    endloop
  endfacet
  facet normal 0 0 1
    outer loop
      vertex 13.201 -11.75 9.525
      vertex -13 -12.5 9.525
      vertex 13 -12.5 9.525
    endloop
  endfacet
  facet normal 0 0 1
    outer loop
      vertex 22.021 -15.269 9.525
      vertex -13.201 -13.25 9.525
      vertex 21.435 -16.525 9.525
    endloop
  endfacet
  facet normal 0 0 1
    outer loop
      vertex 20.64 -17.66 9.525
      vertex -13.75 -13.799 9.525
      vertex 19.66 -18.64 9.525
    endloop
  endfacet
  facet normal 0 0 1
    outer loop
      vertex 18.525 -19.435 9.525
      vertex -14.5 -14 9.525
      vertex 17.269 -20.021 9.525
    endloop
  endfacet
  facet normal 0 0 1
    outer loop
      vertex -15.25 -13.799 9.525
      vertex -22.5 -12.55 9.525
      vertex -14.5 -14 9.525
    endloop
  endfacet
  facet normal 0 0 1
    outer loop
      vertex -15.25 -13.799 9.525
      vertex -15.799 -13.25 9.525
      vertex -22.5 -12.55 9.525
    endloop
  endfacet
  facet normal 0 0 1
    outer loop
      vertex -13.75 -13.799 9.525
      vertex 18.525 -19.435 9.525
      vertex 19.66 -18.64 9.525
    endloop
  endfacet
  facet normal 0 0 1
    outer loop
      vertex 13.201 13.25 9.525
      vertex -22.5 -12.55 9.525
      vertex 13 12.5 9.525
    endloop
  endfacet
  facet normal 0 0 1
    outer loop
      vertex 13.75 13.799 9.525
      vertex -22.5 -12.55 9.525
      vertex 13.201 13.25 9.525
    endloop
  endfacet
  facet normal 0 0 1
    outer loop
      vertex 14.5 14 9.525
      vertex 20.64 17.66 9.525
      vertex 19.66 18.64 9.525
    endloop
  endfacet
  facet normal 0 0 1
    outer loop
      vertex 19.66 18.64 9.525
      vertex -22.5 -12.55 9.525
      vertex 13.75 13.799 9.525
    endloop
  endfacet
  facet normal 0 0 1
    outer loop
      vertex 15.799 13.25 9.525
      vertex 16 12.5 9.525
      vertex 21.435 16.525 9.525
    endloop
  endfacet
  facet normal 0 0 1
    outer loop
      vertex 20.64 17.66 9.525
      vertex 15.25 13.799 9.525
      vertex 21.435 16.525 9.525
    endloop
  endfacet
  facet normal 0 0 1
    outer loop
      vertex 13.75 13.799 9.525
      vertex 14.5 14 9.525
      vertex 19.66 18.64 9.525
    endloop
  endfacet
  facet normal 0 0 1
    outer loop
      vertex 15.25 13.799 9.525
      vertex 15.799 13.25 9.525
      vertex 21.435 16.525 9.525
    endloop
  endfacet
  facet normal 0 0 1
    outer loop
      vertex 21.435 16.525 9.525
      vertex 16 12.5 9.525
      vertex 22.021 15.269 9.525
    endloop
  endfacet
  facet normal 0 0 1
    outer loop
      vertex 16 12.5 9.525
      vertex 15.799 11.75 9.525
      vertex 22.021 15.269 9.525
    endloop
  endfacet
  facet normal 0 0 1
    outer loop
      vertex 15.799 11.75 9.525
      vertex 15.25 11.201 9.525
      vertex 22.021 15.269 9.525
    endloop
  endfacet
  facet normal 0 0 1
    outer loop
      vertex 14.5 11 9.525
      vertex 13.75 11.201 9.525
      vertex -22.5 -12.55 9.525
    endloop
  endfacet
  facet normal 0 0 1
    outer loop
      vertex 13.75 11.201 9.525
      vertex 13.201 11.75 9.525
      vertex -22.5 -12.55 9.525
    endloop
  endfacet
  facet normal 0 0 1
    outer loop
      vertex 15.25 11.201 9.525
      vertex 14.5 11 9.525
      vertex -22.5 -12.55 9.525
    endloop
  endfacet
  facet normal 0 0 1
    outer loop
      vertex 14.5 14 9.525
      vertex 15.25 13.799 9.525
      vertex 20.64 17.66 9.525
    endloop
  endfacet
  facet normal 0 0 1
    outer loop
      vertex -14.5 14 9.525
      vertex -13.75 13.799 9.525
      vertex 14.55 20.5 9.525
    endloop
  endfacet
  facet normal 0 0 1
    outer loop
      vertex -16 -12.5 9.525
      vertex -15.799 -11.75 9.525
      vertex -22.5 -12.55 9.525
    endloop
  endfacet
  facet normal 0 0 1
    outer loop
      vertex -13.201 -13.25 9.525
      vertex 20.64 -17.66 9.525
      vertex 21.435 -16.525 9.525
    endloop
  endfacet
  facet normal 0 0 1
    outer loop
      vertex -13.75 -13.799 9.525
      vertex -14.5 -14 9.525
      vertex 18.525 -19.435 9.525
    endloop
  endfacet
  facet normal 0 0 1
    outer loop
      vertex -15.799 -13.25 9.525
      vertex -16 -12.5 9.525
      vertex -22.5 -12.55 9.525
    endloop
  endfacet
  facet normal 0.707107 -0.707107 0
    outer loop
      vertex -15.799 13.25 3.175
      vertex -15.25 13.799 3.175
      vertex -15.25 13.799 9.525
    endloop
  endfacet
  facet normal 0.707107 -0.707107 0
    outer loop
      vertex -15.799 13.25 9.525
      vertex -15.799 13.25 3.175
      vertex -15.25 13.799 9.525
    endloop
  endfacet
  facet normal -0.996184 -0.0872833 0
    outer loop
      vertex -22.379 -13.931 3.175
      vertex -22.379 -13.931 9.525
      vertex -22.5 -12.55 3.175
    endloop
  endfacet
  facet normal -0.996184 -0.0872833 0
    outer loop
      vertex -22.5 -12.55 3.175
      vertex -22.379 -13.931 9.525
      vertex -22.5 -12.55 9.525
    endloop
  endfacet
  facet normal -1 0 0
    outer loop
      vertex -22.5 -12.55 9.525
      vertex -22.5 12.55 9.525
      vertex -22.5 -12.55 3.175
    endloop
  endfacet
  facet normal -1 0 0
    outer loop
      vertex -22.5 -12.55 3.175
      vertex -22.5 12.55 9.525
      vertex -22.5 12.55 3.175
    endloop
  endfacet
  facet normal -0.966019 -0.258471 0
    outer loop
      vertex -22.021 -15.269 3.175
      vertex -22.021 -15.269 9.525
      vertex -22.379 -13.931 3.175
    endloop
  endfacet
  facet normal -0.966019 -0.258471 0
    outer loop
      vertex -22.379 -13.931 3.175
      vertex -22.021 -15.269 9.525
      vertex -22.379 -13.931 9.525
    endloop
  endfacet
  facet normal -0.90622 -0.422806 0
    outer loop
      vertex -21.435 -16.525 3.175
      vertex -21.435 -16.525 9.525
      vertex -22.021 -15.269 3.175
    endloop
  endfacet
  facet normal -0.90622 -0.422806 0
    outer loop
      vertex -22.021 -15.269 3.175
      vertex -21.435 -16.525 9.525
      vertex -22.021 -15.269 9.525
    endloop
  endfacet
  facet normal -0.819062 -0.573704 0
    outer loop
      vertex -20.64 -17.66 3.175
      vertex -20.64 -17.66 9.525
      vertex -21.435 -16.525 3.175
    endloop
  endfacet
  facet normal -0.819062 -0.573704 0
    outer loop
      vertex -21.435 -16.525 3.175
      vertex -20.64 -17.66 9.525
      vertex -21.435 -16.525 9.525
    endloop
  endfacet
  facet normal -0.707107 -0.707107 0
    outer loop
      vertex -20.64 -17.66 3.175
      vertex -19.66 -18.64 3.175
      vertex -19.66 -18.64 9.525
    endloop
  endfacet
  facet normal -0.707107 -0.707107 0
    outer loop
      vertex -20.64 -17.66 9.525
      vertex -20.64 -17.66 3.175
      vertex -19.66 -18.64 9.525
    endloop
  endfacet
  facet normal -0.573704 -0.819062 0
    outer loop
      vertex -19.66 -18.64 3.175
      vertex -18.525 -19.435 3.175
      vertex -18.525 -19.435 9.525
    endloop
  endfacet
  facet normal -0.573704 -0.819062 0
    outer loop
      vertex -19.66 -18.64 9.525
      vertex -19.66 -18.64 3.175
      vertex -18.525 -19.435 9.525
    endloop
  endfacet
  facet normal -0.422806 -0.90622 0
    outer loop
      vertex -18.525 -19.435 3.175
      vertex -17.269 -20.021 3.175
      vertex -17.269 -20.021 9.525
    endloop
  endfacet
  facet normal -0.422806 -0.90622 0
    outer loop
      vertex -18.525 -19.435 9.525
      vertex -18.525 -19.435 3.175
      vertex -17.269 -20.021 9.525
    endloop
  endfacet
  facet normal -0.258471 -0.966019 0
    outer loop
      vertex -17.269 -20.021 3.175
      vertex -15.931 -20.379 3.175
      vertex -15.931 -20.379 9.525
    endloop
  endfacet
  facet normal -0.258471 -0.966019 0
    outer loop
      vertex -17.269 -20.021 9.525
      vertex -17.269 -20.021 3.175
      vertex -15.931 -20.379 9.525
    endloop
  endfacet
  facet normal -0.0872833 -0.996184 0
    outer loop
      vertex -15.931 -20.379 3.175
      vertex -14.55 -20.5 3.175
      vertex -14.55 -20.5 9.525
    endloop
  endfacet
  facet normal -0.0872833 -0.996184 0
    outer loop
      vertex -15.931 -20.379 9.525
      vertex -15.931 -20.379 3.175
      vertex -14.55 -20.5 9.525
    endloop
  endfacet
  facet normal 0 -1 0
    outer loop
      vertex -14.55 -20.5 3.175
      vertex 14.55 -20.5 3.175
      vertex 14.55 -20.5 9.525
    endloop
  endfacet
  facet normal 0 -1 0
    outer loop
      vertex -14.55 -20.5 9.525
      vertex -14.55 -20.5 3.175
      vertex 14.55 -20.5 9.525
    endloop
  endfacet
  facet normal 0.0872833 -0.996184 0
    outer loop
      vertex 14.55 -20.5 3.175
      vertex 15.931 -20.379 3.175
      vertex 15.931 -20.379 9.525
    endloop
  endfacet
  facet normal 0.0872833 -0.996184 0
    outer loop
      vertex 14.55 -20.5 9.525
      vertex 14.55 -20.5 3.175
      vertex 15.931 -20.379 9.525
    endloop
  endfacet
  facet normal 0.258471 -0.966019 0
    outer loop
      vertex 15.931 -20.379 3.175
      vertex 17.269 -20.021 3.175
      vertex 17.269 -20.021 9.525
    endloop
  endfacet
  facet normal 0.258471 -0.966019 0
    outer loop
      vertex 15.931 -20.379 9.525
      vertex 15.931 -20.379 3.175
      vertex 17.269 -20.021 9.525
    endloop
  endfacet
  facet normal 0.422806 -0.90622 0
    outer loop
      vertex 17.269 -20.021 3.175
      vertex 18.525 -19.435 3.175
      vertex 18.525 -19.435 9.525
    endloop
  endfacet
  facet normal 0.422806 -0.90622 0
    outer loop
      vertex 17.269 -20.021 9.525
      vertex 17.269 -20.021 3.175
      vertex 18.525 -19.435 9.525
    endloop
  endfacet
  facet normal 0.573704 -0.819062 0
    outer loop
      vertex 18.525 -19.435 3.175
      vertex 19.66 -18.64 3.175
      vertex 19.66 -18.64 9.525
    endloop
  endfacet
  facet normal 0.573704 -0.819062 0
    outer loop
      vertex 18.525 -19.435 9.525
      vertex 18.525 -19.435 3.175
      vertex 19.66 -18.64 9.525
    endloop
  endfacet
  facet normal 0.707107 -0.707107 0
    outer loop
      vertex 19.66 -18.64 3.175
      vertex 20.64 -17.66 3.175
      vertex 20.64 -17.66 9.525
    endloop
  endfacet
  facet normal 0.707107 -0.707107 0
    outer loop
      vertex 19.66 -18.64 9.525
      vertex 19.66 -18.64 3.175
      vertex 20.64 -17.66 9.525
    endloop
  endfacet
  facet normal 0.819062 -0.573704 0
    outer loop
      vertex 20.64 -17.66 3.175
      vertex 21.435 -16.525 3.175
      vertex 21.435 -16.525 9.525
    endloop
  endfacet
  facet normal 0.819062 -0.573704 0
    outer loop
      vertex 20.64 -17.66 9.525
      vertex 20.64 -17.66 3.175
      vertex 21.435 -16.525 9.525
    endloop
  endfacet
  facet normal 0.90622 -0.422806 0
    outer loop
      vertex 21.435 -16.525 3.175
      vertex 22.021 -15.269 3.175
      vertex 22.021 -15.269 9.525
    endloop
  endfacet
  facet normal 0.90622 -0.422806 0
    outer loop
      vertex 21.435 -16.525 9.525
      vertex 21.435 -16.525 3.175
      vertex 22.021 -15.269 9.525
    endloop
  endfacet
  facet normal 0.966019 -0.258471 0
    outer loop
      vertex 22.021 -15.269 3.175
      vertex 22.379 -13.931 3.175
      vertex 22.379 -13.931 9.525
    endloop
  endfacet
  facet normal 0.966019 -0.258471 0
    outer loop
      vertex 22.021 -15.269 9.525
      vertex 22.021 -15.269 3.175
      vertex 22.379 -13.931 9.525
    endloop
  endfacet
  facet normal 0.996184 -0.0872833 0
    outer loop
      vertex 22.379 -13.931 3.175
      vertex 22.5 -12.55 3.175
      vertex 22.5 -12.55 9.525
    endloop
  endfacet
  facet normal 0.996184 -0.0872833 0
    outer loop
      vertex 22.379 -13.931 9.525
      vertex 22.379 -13.931 3.175
      vertex 22.5 -12.55 9.525
    endloop
  endfacet
  facet normal 1 0 0
    outer loop
      vertex 22.5 -12.55 3.175
      vertex 22.5 12.55 3.175
      vertex 22.5 12.55 9.525
    endloop
  endfacet
  facet normal 1 0 0
    outer loop
      vertex 22.5 -12.55 9.525
      vertex 22.5 -12.55 3.175
      vertex 22.5 12.55 9.525
    endloop
  endfacet
  facet normal 0.996184 0.0872833 0
    outer loop
      vertex 22.379 13.931 3.175
      vertex 22.379 13.931 9.525
      vertex 22.5 12.55 9.525
    endloop
  endfacet
  facet normal 0.996184 0.0872833 0
    outer loop
      vertex 22.5 12.55 3.175
      vertex 22.379 13.931 3.175
      vertex 22.5 12.55 9.525
    endloop
  endfacet
  facet normal 0.966019 0.258471 0
    outer loop
      vertex 22.021 15.269 3.175
      vertex 22.021 15.269 9.525
      vertex 22.379 13.931 9.525
    endloop
  endfacet
  facet normal 0.966019 0.258471 0
    outer loop
      vertex 22.379 13.931 3.175
      vertex 22.021 15.269 3.175
      vertex 22.379 13.931 9.525
    endloop
  endfacet
  facet normal 0.90622 0.422806 0
    outer loop
      vertex 21.435 16.525 3.175
      vertex 21.435 16.525 9.525
      vertex 22.021 15.269 9.525
    endloop
  endfacet
  facet normal 0.90622 0.422806 0
    outer loop
      vertex 22.021 15.269 3.175
      vertex 21.435 16.525 3.175
      vertex 22.021 15.269 9.525
    endloop
  endfacet
  facet normal 0.819062 0.573704 0
    outer loop
      vertex 20.64 17.66 3.175
      vertex 20.64 17.66 9.525
      vertex 21.435 16.525 9.525
    endloop
  endfacet
  facet normal 0.819062 0.573704 0
    outer loop
      vertex 21.435 16.525 3.175
      vertex 20.64 17.66 3.175
      vertex 21.435 16.525 9.525
    endloop
  endfacet
  facet normal 0.707107 0.707107 0
    outer loop
      vertex 19.66 18.64 9.525
      vertex 20.64 17.66 9.525
      vertex 19.66 18.64 3.175
    endloop
  endfacet
  facet normal 0.707107 0.707107 0
    outer loop
      vertex 19.66 18.64 3.175
      vertex 20.64 17.66 9.525
      vertex 20.64 17.66 3.175
    endloop
  endfacet
  facet normal 0.573704 0.819062 0
    outer loop
      vertex 18.525 19.435 9.525
      vertex 19.66 18.64 9.525
      vertex 18.525 19.435 3.175
    endloop
  endfacet
  facet normal 0.573704 0.819062 0
    outer loop
      vertex 18.525 19.435 3.175
      vertex 19.66 18.64 9.525
      vertex 19.66 18.64 3.175
    endloop
  endfacet
  facet normal 0.422806 0.90622 0
    outer loop
      vertex 17.269 20.021 9.525
      vertex 18.525 19.435 9.525
      vertex 17.269 20.021 3.175
    endloop
  endfacet
  facet normal 0.422806 0.90622 0
    outer loop
      vertex 17.269 20.021 3.175
      vertex 18.525 19.435 9.525
      vertex 18.525 19.435 3.175
    endloop
  endfacet
  facet normal 0.258471 0.966019 0
    outer loop
      vertex 15.931 20.379 9.525
      vertex 17.269 20.021 9.525
      vertex 15.931 20.379 3.175
    endloop
  endfacet
  facet normal 0.258471 0.966019 0
    outer loop
      vertex 15.931 20.379 3.175
      vertex 17.269 20.021 9.525
      vertex 17.269 20.021 3.175
    endloop
  endfacet
  facet normal 0.0872833 0.996184 0
    outer loop
      vertex 14.55 20.5 9.525
      vertex 15.931 20.379 9.525
      vertex 14.55 20.5 3.175
    endloop
  endfacet
  facet normal 0.0872833 0.996184 0
    outer loop
      vertex 14.55 20.5 3.175
      vertex 15.931 20.379 9.525
      vertex 15.931 20.379 3.175
    endloop
  endfacet
  facet normal 0 1 0
    outer loop
      vertex -14.55 20.5 9.525
      vertex 14.55 20.5 9.525
      vertex -14.55 20.5 3.175
    endloop
  endfacet
  facet normal 0 1 0
    outer loop
      vertex -14.55 20.5 3.175
      vertex 14.55 20.5 9.525
      vertex 14.55 20.5 3.175
    endloop
  endfacet
  facet normal -0.0872833 0.996184 0
    outer loop
      vertex -15.931 20.379 9.525
      vertex -14.55 20.5 9.525
      vertex -15.931 20.379 3.175
    endloop
  endfacet
  facet normal -0.0872833 0.996184 0
    outer loop
      vertex -15.931 20.379 3.175
      vertex -14.55 20.5 9.525
      vertex -14.55 20.5 3.175
    endloop
  endfacet
  facet normal -0.258471 0.966019 0
    outer loop
      vertex -17.269 20.021 9.525
      vertex -15.931 20.379 9.525
      vertex -17.269 20.021 3.175
    endloop
  endfacet
  facet normal -0.258471 0.966019 0
    outer loop
      vertex -17.269 20.021 3.175
      vertex -15.931 20.379 9.525
      vertex -15.931 20.379 3.175
    endloop
  endfacet
  facet normal -0.422806 0.90622 0
    outer loop
      vertex -18.525 19.435 9.525
      vertex -17.269 20.021 9.525
      vertex -18.525 19.435 3.175
    endloop
  endfacet
  facet normal -0.422806 0.90622 0
    outer loop
      vertex -18.525 19.435 3.175
      vertex -17.269 20.021 9.525
      vertex -17.269 20.021 3.175
    endloop
  endfacet
  facet normal -0.573704 0.819062 0
    outer loop
      vertex -19.66 18.64 9.525
      vertex -18.525 19.435 9.525
      vertex -19.66 18.64 3.175
    endloop
  endfacet
  facet normal -0.573704 0.819062 0
    outer loop
      vertex -19.66 18.64 3.175
      vertex -18.525 19.435 9.525
      vertex -18.525 19.435 3.175
    endloop
  endfacet
  facet normal -0.707107 0.707107 0
    outer loop
      vertex -20.64 17.66 9.525
      vertex -19.66 18.64 9.525
      vertex -20.64 17.66 3.175
    endloop
  endfacet
  facet normal -0.707107 0.707107 0
    outer loop
      vertex -20.64 17.66 3.175
      vertex -19.66 18.64 9.525
      vertex -19.66 18.64 3.175
    endloop
  endfacet
  facet normal -0.819062 0.573704 0
    outer loop
      vertex -21.435 16.525 9.525
      vertex -20.64 17.66 9.525
      vertex -21.435 16.525 3.175
    endloop
  endfacet
  facet normal -0.819062 0.573704 0
    outer loop
      vertex -21.435 16.525 3.175
      vertex -20.64 17.66 9.525
      vertex -20.64 17.66 3.175
    endloop
  endfacet
  facet normal -0.90622 0.422806 0
    outer loop
      vertex -22.021 15.269 9.525
      vertex -21.435 16.525 9.525
      vertex -22.021 15.269 3.175
    endloop
  endfacet
  facet normal -0.90622 0.422806 0
    outer loop
      vertex -22.021 15.269 3.175
      vertex -21.435 16.525 9.525
      vertex -21.435 16.525 3.175
    endloop
  endfacet
  facet normal -0.966019 0.258471 0
    outer loop
      vertex -22.379 13.931 9.525
      vertex -22.021 15.269 9.525
      vertex -22.379 13.931 3.175
    endloop
  endfacet
  facet normal -0.966019 0.258471 0
    outer loop
      vertex -22.379 13.931 3.175
      vertex -22.021 15.269 9.525
      vertex -22.021 15.269 3.175
    endloop
  endfacet
  facet normal -0.996184 0.0872833 0
    outer loop
      vertex -22.5 12.55 9.525
      vertex -22.379 13.931 9.525
      vertex -22.5 12.55 3.175
    endloop
  endfacet
  facet normal -0.996184 0.0872833 0
    outer loop
      vertex -22.5 12.55 3.175
      vertex -22.379 13.931 9.525
      vertex -22.379 13.931 3.175
    endloop
  endfacet
  facet normal 0.258865 -0.965914 0
    outer loop
      vertex -15.25 13.799 3.175
      vertex -14.5 14 3.175
      vertex -14.5 14 9.525
    endloop
  endfacet
  facet normal 0.258865 -0.965914 0
    outer loop
      vertex -15.25 13.799 9.525
      vertex -15.25 13.799 3.175
      vertex -14.5 14 9.525
    endloop
  endfacet
  facet normal -0.258865 -0.965914 0
    outer loop
      vertex -14.5 14 3.175
      vertex -13.75 13.799 3.175
      vertex -13.75 13.799 9.525
    endloop
  endfacet
  facet normal -0.258865 -0.965914 0
    outer loop
      vertex -14.5 14 9.525
      vertex -14.5 14 3.175
      vertex -13.75 13.799 9.525
    endloop
  endfacet
  facet normal -0.707107 -0.707107 0
    outer loop
      vertex -13.75 13.799 3.175
      vertex -13.201 13.25 3.175
      vertex -13.201 13.25 9.525
    endloop
  endfacet
  facet normal -0.707107 -0.707107 0
    outer loop
      vertex -13.75 13.799 9.525
      vertex -13.75 13.799 3.175
      vertex -13.201 13.25 9.525
    endloop
  endfacet
  facet normal -0.965914 -0.258865 0
    outer loop
      vertex -13 12.5 3.175
      vertex -13 12.5 9.525
      vertex -13.201 13.25 3.175
    endloop
  endfacet
  facet normal -0.965914 -0.258865 0
    outer loop
      vertex -13.201 13.25 3.175
      vertex -13 12.5 9.525
      vertex -13.201 13.25 9.525
    endloop
  endfacet
  facet normal -0.965914 0.258865 0
    outer loop
      vertex -13.201 11.75 9.525
      vertex -13 12.5 9.525
      vertex -13.201 11.75 3.175
    endloop
  endfacet
  facet normal -0.965914 0.258865 0
    outer loop
      vertex -13.201 11.75 3.175
      vertex -13 12.5 9.525
      vertex -13 12.5 3.175
    endloop
  endfacet
  facet normal -0.707107 0.707107 0
    outer loop
      vertex -13.75 11.201 9.525
      vertex -13.201 11.75 9.525
      vertex -13.75 11.201 3.175
    endloop
  endfacet
  facet normal -0.707107 0.707107 0
    outer loop
      vertex -13.75 11.201 3.175
      vertex -13.201 11.75 9.525
      vertex -13.201 11.75 3.175
    endloop
  endfacet
  facet normal -0.258865 0.965914 0
    outer loop
      vertex -14.5 11 9.525
      vertex -13.75 11.201 9.525
      vertex -14.5 11 3.175
    endloop
  endfacet
  facet normal -0.258865 0.965914 0
    outer loop
      vertex -14.5 11 3.175
      vertex -13.75 11.201 9.525
      vertex -13.75 11.201 3.175
    endloop
  endfacet
  facet normal 0.258865 0.965914 0
    outer loop
      vertex -15.25 11.201 9.525
      vertex -14.5 11 9.525
      vertex -15.25 11.201 3.175
    endloop
  endfacet
  facet normal 0.258865 0.965914 0
    outer loop
      vertex -15.25 11.201 3.175
      vertex -14.5 11 9.525
      vertex -14.5 11 3.175
    endloop
  endfacet
  facet normal 0.965914 0.258865 0
    outer loop
      vertex 13 -12.5 3.175
      vertex 13 -12.5 9.525
      vertex 13.201 -13.25 9.525
    endloop
  endfacet
  facet normal 0.965914 0.258865 0
    outer loop
      vertex 13.201 -13.25 3.175
      vertex 13 -12.5 3.175
      vertex 13.201 -13.25 9.525
    endloop
  endfacet
  facet normal 0.965914 -0.258865 0
    outer loop
      vertex 13 -12.5 3.175
      vertex 13.201 -11.75 3.175
      vertex 13.201 -11.75 9.525
    endloop
  endfacet
  facet normal 0.965914 -0.258865 0
    outer loop
      vertex 13 -12.5 9.525
      vertex 13 -12.5 3.175
      vertex 13.201 -11.75 9.525
    endloop
  endfacet
  facet normal 0.707107 -0.707107 0
    outer loop
      vertex 13.201 -11.75 3.175
      vertex 13.75 -11.201 3.175
      vertex 13.75 -11.201 9.525
    endloop
  endfacet
  facet normal 0.707107 -0.707107 0
    outer loop
      vertex 13.201 -11.75 9.525
      vertex 13.201 -11.75 3.175
      vertex 13.75 -11.201 9.525
    endloop
  endfacet
  facet normal 0.258865 -0.965914 0
    outer loop
      vertex 13.75 -11.201 3.175
      vertex 14.5 -11 3.175
      vertex 14.5 -11 9.525
    endloop
  endfacet
  facet normal 0.258865 -0.965914 0
    outer loop
      vertex 13.75 -11.201 9.525
      vertex 13.75 -11.201 3.175
      vertex 14.5 -11 9.525
    endloop
  endfacet
  facet normal -0.258865 -0.965914 0
    outer loop
      vertex 14.5 -11 3.175
      vertex 15.25 -11.201 3.175
      vertex 15.25 -11.201 9.525
    endloop
  endfacet
  facet normal -0.258865 -0.965914 0
    outer loop
      vertex 14.5 -11 9.525
      vertex 14.5 -11 3.175
      vertex 15.25 -11.201 9.525
    endloop
  endfacet
  facet normal -0.707107 -0.707107 0
    outer loop
      vertex 15.799 -11.75 3.175
      vertex 15.799 -11.75 9.525
      vertex 15.25 -11.201 3.175
    endloop
  endfacet
  facet normal -0.707107 -0.707107 0
    outer loop
      vertex 15.25 -11.201 3.175
      vertex 15.799 -11.75 9.525
      vertex 15.25 -11.201 9.525
    endloop
  endfacet
  facet normal -0.965914 -0.258865 0
    outer loop
      vertex 16 -12.5 3.175
      vertex 16 -12.5 9.525
      vertex 15.799 -11.75 3.175
    endloop
  endfacet
  facet normal -0.965914 -0.258865 0
    outer loop
      vertex 15.799 -11.75 3.175
      vertex 16 -12.5 9.525
      vertex 15.799 -11.75 9.525
    endloop
  endfacet
  facet normal -0.965914 0.258865 0
    outer loop
      vertex 15.799 -13.25 9.525
      vertex 16 -12.5 9.525
      vertex 15.799 -13.25 3.175
    endloop
  endfacet
  facet normal -0.965914 0.258865 0
    outer loop
      vertex 15.799 -13.25 3.175
      vertex 16 -12.5 9.525
      vertex 16 -12.5 3.175
    endloop
  endfacet
  facet normal -0.707107 0.707107 0
    outer loop
      vertex 15.25 -13.799 9.525
      vertex 15.799 -13.25 9.525
      vertex 15.25 -13.799 3.175
    endloop
  endfacet
  facet normal -0.707107 0.707107 0
    outer loop
      vertex 15.25 -13.799 3.175
      vertex 15.799 -13.25 9.525
      vertex 15.799 -13.25 3.175
    endloop
  endfacet
  facet normal -0.258865 0.965914 0
    outer loop
      vertex 14.5 -14 9.525
      vertex 15.25 -13.799 9.525
      vertex 14.5 -14 3.175
    endloop
  endfacet
  facet normal -0.258865 0.965914 0
    outer loop
      vertex 14.5 -14 3.175
      vertex 15.25 -13.799 9.525
      vertex 15.25 -13.799 3.175
    endloop
  endfacet
  facet normal 0.258865 0.965914 0
    outer loop
      vertex 13.75 -13.799 9.525
      vertex 14.5 -14 9.525
      vertex 13.75 -13.799 3.175
    endloop
  endfacet
  facet normal 0.258865 0.965914 0
    outer loop
      vertex 13.75 -13.799 3.175
      vertex 14.5 -14 9.525
      vertex 14.5 -14 3.175
    endloop
  endfacet
  facet normal 0.707107 0.707107 0
    outer loop
      vertex 13.201 -13.25 9.525
      vertex 13.75 -13.799 9.525
      vertex 13.201 -13.25 3.175
    endloop
  endfacet
  facet normal 0.707107 0.707107 0
    outer loop
      vertex 13.201 -13.25 3.175
      vertex 13.75 -13.799 9.525
      vertex 13.75 -13.799 3.175
    endloop
  endfacet
  facet normal 0.965914 0.258865 0
    outer loop
      vertex -16 -12.5 3.175
      vertex -16 -12.5 9.525
      vertex -15.799 -13.25 9.525
    endloop
  endfacet
  facet normal 0.965914 0.258865 0
    outer loop
      vertex -15.799 -13.25 3.175
      vertex -16 -12.5 3.175
      vertex -15.799 -13.25 9.525
    endloop
  endfacet
  facet normal 0.965914 -0.258865 0
    outer loop
      vertex -16 -12.5 3.175
      vertex -15.799 -11.75 3.175
      vertex -15.799 -11.75 9.525
    endloop
  endfacet
  facet normal 0.965914 -0.258865 0
    outer loop
      vertex -16 -12.5 9.525
      vertex -16 -12.5 3.175
      vertex -15.799 -11.75 9.525
    endloop
  endfacet
  facet normal 0.707107 -0.707107 0
    outer loop
      vertex -15.799 -11.75 3.175
      vertex -15.25 -11.201 3.175
      vertex -15.25 -11.201 9.525
    endloop
  endfacet
  facet normal 0.707107 -0.707107 0
    outer loop
      vertex -15.799 -11.75 9.525
      vertex -15.799 -11.75 3.175
      vertex -15.25 -11.201 9.525
    endloop
  endfacet
  facet normal 0.258865 -0.965914 0
    outer loop
      vertex -15.25 -11.201 3.175
      vertex -14.5 -11 3.175
      vertex -14.5 -11 9.525
    endloop
  endfacet
  facet normal 0.258865 -0.965914 0
    outer loop
      vertex -15.25 -11.201 9.525
      vertex -15.25 -11.201 3.175
      vertex -14.5 -11 9.525
    endloop
  endfacet
  facet normal -0.258865 -0.965914 0
    outer loop
      vertex -14.5 -11 3.175
      vertex -13.75 -11.201 3.175
      vertex -13.75 -11.201 9.525
    endloop
  endfacet
  facet normal -0.258865 -0.965914 0
    outer loop
      vertex -14.5 -11 9.525
      vertex -14.5 -11 3.175
      vertex -13.75 -11.201 9.525
    endloop
  endfacet
  facet normal -0.707107 -0.707107 0
    outer loop
      vertex -13.75 -11.201 3.175
      vertex -13.201 -11.75 3.175
      vertex -13.201 -11.75 9.525
    endloop
  endfacet
  facet normal -0.707107 -0.707107 0
    outer loop
      vertex -13.75 -11.201 9.525
      vertex -13.75 -11.201 3.175
      vertex -13.201 -11.75 9.525
    endloop
  endfacet
  facet normal -0.965914 -0.258865 0
    outer loop
      vertex -13 -12.5 3.175
      vertex -13 -12.5 9.525
      vertex -13.201 -11.75 3.175
    endloop
  endfacet
  facet normal -0.965914 -0.258865 0
    outer loop
      vertex -13.201 -11.75 3.175
      vertex -13 -12.5 9.525
      vertex -13.201 -11.75 9.525
    endloop
  endfacet
  facet normal -0.965914 0.258865 0
    outer loop
      vertex -13.201 -13.25 9.525
      vertex -13 -12.5 9.525
      vertex -13.201 -13.25 3.175
    endloop
  endfacet
  facet normal -0.965914 0.258865 0
    outer loop
      vertex -13.201 -13.25 3.175
      vertex -13 -12.5 9.525
      vertex -13 -12.5 3.175
    endloop
  endfacet
  facet normal -0.707107 0.707107 0
    outer loop
      vertex -13.75 -13.799 9.525
      vertex -13.201 -13.25 9.525
      vertex -13.75 -13.799 3.175
    endloop
  endfacet
  facet normal -0.707107 0.707107 0
    outer loop
      vertex -13.75 -13.799 3.175
      vertex -13.201 -13.25 9.525
      vertex -13.201 -13.25 3.175
    endloop
  endfacet
  facet normal -0.258865 0.965914 0
    outer loop
      vertex -14.5 -14 9.525
      vertex -13.75 -13.799 9.525
      vertex -14.5 -14 3.175
    endloop
  endfacet
  facet normal -0.258865 0.965914 0
    outer loop
      vertex -14.5 -14 3.175
      vertex -13.75 -13.799 9.525
      vertex -13.75 -13.799 3.175
    endloop
  endfacet
  facet normal 0.258865 0.965914 0
    outer loop
      vertex -15.25 -13.799 9.525
      vertex -14.5 -14 9.525
      vertex -15.25 -13.799 3.175
    endloop
  endfacet
  facet normal 0.258865 0.965914 0
    outer loop
      vertex -15.25 -13.799 3.175
      vertex -14.5 -14 9.525
      vertex -14.5 -14 3.175
    endloop
  endfacet
  facet normal 0.707107 0.707107 0
    outer loop
      vertex -15.799 -13.25 9.525
      vertex -15.25 -13.799 9.525
      vertex -15.799 -13.25 3.175
    endloop
  endfacet
  facet normal 0.707107 0.707107 0
    outer loop
      vertex -15.799 -13.25 3.175
      vertex -15.25 -13.799 9.525
      vertex -15.25 -13.799 3.175
    endloop
  endfacet
  facet normal 0.965914 0.258865 0
    outer loop
      vertex 13 12.5 3.175
      vertex 13 12.5 9.525
      vertex 13.201 11.75 9.525
    endloop
  endfacet
  facet normal 0.965914 0.258865 0
    outer loop
      vertex 13.201 11.75 3.175
      vertex 13 12.5 3.175
      vertex 13.201 11.75 9.525
    endloop
  endfacet
  facet normal 0.965914 -0.258865 0
    outer loop
      vertex 13 12.5 3.175
      vertex 13.201 13.25 3.175
      vertex 13.201 13.25 9.525
    endloop
  endfacet
  facet normal 0.965914 -0.258865 0
    outer loop
      vertex 13 12.5 9.525
      vertex 13 12.5 3.175
      vertex 13.201 13.25 9.525
    endloop
  endfacet
  facet normal 0.707107 -0.707107 0
    outer loop
      vertex 13.201 13.25 3.175
      vertex 13.75 13.799 3.175
      vertex 13.75 13.799 9.525
    endloop
  endfacet
  facet normal 0.707107 -0.707107 0
    outer loop
      vertex 13.201 13.25 9.525
      vertex 13.201 13.25 3.175
      vertex 13.75 13.799 9.525
    endloop
  endfacet
  facet normal 0.258865 -0.965914 0
    outer loop
      vertex 13.75 13.799 3.175
      vertex 14.5 14 3.175
      vertex 14.5 14 9.525
    endloop
  endfacet
  facet normal 0.258865 -0.965914 0
    outer loop
      vertex 13.75 13.799 9.525
      vertex 13.75 13.799 3.175
      vertex 14.5 14 9.525
    endloop
  endfacet
  facet normal -0.258865 -0.965914 0
    outer loop
      vertex 14.5 14 3.175
      vertex 15.25 13.799 3.175
      vertex 15.25 13.799 9.525
    endloop
  endfacet
  facet normal -0.258865 -0.965914 0
    outer loop
      vertex 14.5 14 9.525
      vertex 14.5 14 3.175
      vertex 15.25 13.799 9.525
    endloop
  endfacet
  facet normal -0.707107 -0.707107 0
    outer loop
      vertex 15.25 13.799 3.175
      vertex 15.799 13.25 3.175
      vertex 15.799 13.25 9.525
    endloop
  endfacet
  facet normal -0.707107 -0.707107 0
    outer loop
      vertex 15.25 13.799 9.525
      vertex 15.25 13.799 3.175
      vertex 15.799 13.25 9.525
    endloop
  endfacet
  facet normal -0.965914 -0.258865 0
    outer loop
      vertex 16 12.5 3.175
      vertex 16 12.5 9.525
      vertex 15.799 13.25 3.175
    endloop
  endfacet
  facet normal -0.965914 -0.258865 0
    outer loop
      vertex 15.799 13.25 3.175
      vertex 16 12.5 9.525
      vertex 15.799 13.25 9.525
    endloop
  endfacet
  facet normal -0.965914 0.258865 0
    outer loop
      vertex 15.799 11.75 9.525
      vertex 16 12.5 9.525
      vertex 15.799 11.75 3.175
    endloop
  endfacet
  facet normal -0.965914 0.258865 0
    outer loop
      vertex 15.799 11.75 3.175
      vertex 16 12.5 9.525
      vertex 16 12.5 3.175
    endloop
  endfacet
  facet normal -0.707107 0.707107 0
    outer loop
      vertex 15.25 11.201 9.525
      vertex 15.799 11.75 9.525
      vertex 15.25 11.201 3.175
    endloop
  endfacet
  facet normal -0.707107 0.707107 0
    outer loop
      vertex 15.25 11.201 3.175
      vertex 15.799 11.75 9.525
      vertex 15.799 11.75 3.175
    endloop
  endfacet
  facet normal -0.258865 0.965914 0
    outer loop
      vertex 14.5 11 9.525
      vertex 15.25 11.201 9.525
      vertex 14.5 11 3.175
    endloop
  endfacet
  facet normal -0.258865 0.965914 0
    outer loop
      vertex 14.5 11 3.175
      vertex 15.25 11.201 9.525
      vertex 15.25 11.201 3.175
    endloop
  endfacet
  facet normal 0.258865 0.965914 0
    outer loop
      vertex 13.75 11.201 9.525
      vertex 14.5 11 9.525
      vertex 13.75 11.201 3.175
    endloop
  endfacet
  facet normal 0.258865 0.965914 0
    outer loop
      vertex 13.75 11.201 3.175
      vertex 14.5 11 9.525
      vertex 14.5 11 3.175
    endloop
  endfacet
  facet normal 0.707107 0.707107 0
    outer loop
      vertex 13.201 11.75 9.525
      vertex 13.75 11.201 9.525
      vertex 13.201 11.75 3.175
    endloop
  endfacet
  facet normal 0.707107 0.707107 0
    outer loop
      vertex 13.201 11.75 3.175
      vertex 13.75 11.201 9.525
      vertex 13.75 11.201 3.175
    endloop
  endfacet
endsolid OpenSCAD_Model
