solid OpenSCAD_Model
  facet normal -1 0 0
    outer loop
      vertex -15 15 -5
      vertex -15 15 -10
      vertex -15 -6.12303e-016 -5
    endloop
  endfacet
  facet normal -1 0 0
    outer loop
      vertex -15 -6.12303e-016 -5
      vertex -15 15 -10
      vertex -15 -25 -10
    endloop
  endfacet
  facet normal -1 0 0
    outer loop
      vertex -15 -6.12303e-016 -5
      vertex -15 -25 -10
      vertex -15 -25 -5
    endloop
  endfacet
  facet normal -1 0 0
    outer loop
      vertex -15 -6.12303e-016 -5
      vertex -15 -25 -5
      vertex -15 -5 10
    endloop
  endfacet
  facet normal -1 0 0
    outer loop
      vertex -15 -6.12303e-016 -5
      vertex -15 -5 10
      vertex -15 1.22461e-015 10
    endloop
  endfacet
  facet normal 0 1 -1.22461e-016
    outer loop
      vertex -15 15 -5
      vertex 15 15 -5
      vertex -15 15 -10
    endloop
  endfacet
  facet normal 0 1 -1.22461e-016
    outer loop
      vertex -15 15 -10
      vertex 15 15 -5
      vertex 15 15 -10
    endloop
  endfacet
  facet normal 0 1.22461e-016 1
    outer loop
      vertex 11.2135 8.38168 -5
      vertex 15 -6.12303e-016 -5
      vertex 15 15 -5
    endloop
  endfacet
  facet normal 0 1.22461e-016 1
    outer loop
      vertex -8.78647 6.61832 -5
      vertex -15 -6.12303e-016 -5
      vertex 15 15 -5
    endloop
  endfacet
  facet normal 0 1.22461e-016 1
    outer loop
      vertex -9.53647 6.07341 -5
      vertex -10.4635 6.07341 -5
      vertex -15 -6.12303e-016 -5
    endloop
  endfacet
  facet normal 0 1.22461e-016 1
    outer loop
      vertex -15 15 -5
      vertex -15 -6.12303e-016 -5
      vertex -11.2135 8.38168 -5
    endloop
  endfacet
  facet normal 0 1.22461e-016 1
    outer loop
      vertex -15 15 -5
      vertex -10.4635 8.92658 -5
      vertex 15 15 -5
    endloop
  endfacet
  facet normal 0 1.22461e-016 1
    outer loop
      vertex -15 15 -5
      vertex -11.2135 8.38168 -5
      vertex -10.4635 8.92658 -5
    endloop
  endfacet
  facet normal 0 1.22461e-016 1
    outer loop
      vertex -10.4635 8.92658 -5
      vertex -9.53647 8.92658 -5
      vertex 15 15 -5
    endloop
  endfacet
  facet normal 0 1.22461e-016 1
    outer loop
      vertex -8.78647 8.38168 -5
      vertex -8.5 7.5 -5
      vertex 15 15 -5
    endloop
  endfacet
  facet normal 0 1.22461e-016 1
    outer loop
      vertex -8.5 7.5 -5
      vertex -8.78647 6.61832 -5
      vertex 15 15 -5
    endloop
  endfacet
  facet normal 0 1.22461e-016 1
    outer loop
      vertex -9.53647 6.07341 -5
      vertex -15 -6.12303e-016 -5
      vertex -8.78647 6.61832 -5
    endloop
  endfacet
  facet normal 0 1.22461e-016 1
    outer loop
      vertex -10.4635 6.07341 -5
      vertex -11.2135 6.61832 -5
      vertex -15 -6.12303e-016 -5
    endloop
  endfacet
  facet normal 0 1.22461e-016 1
    outer loop
      vertex 11.5 7.5 -5
      vertex 11.2135 6.61832 -5
      vertex 15 -6.12303e-016 -5
    endloop
  endfacet
  facet normal 0 1.22461e-016 1
    outer loop
      vertex -11.5 7.5 -5
      vertex -15 -6.12303e-016 -5
      vertex -11.2135 6.61832 -5
    endloop
  endfacet
  facet normal 0 1.22461e-016 1
    outer loop
      vertex -11.2135 8.38168 -5
      vertex -15 -6.12303e-016 -5
      vertex -11.5 7.5 -5
    endloop
  endfacet
  facet normal 0 1.22461e-016 1
    outer loop
      vertex -15 -6.12303e-016 -5
      vertex 8.78647 8.38168 -5
      vertex 15 15 -5
    endloop
  endfacet
  facet normal 0 1.22461e-016 1
    outer loop
      vertex 8.78647 8.38168 -5
      vertex 9.53647 8.92658 -5
      vertex 15 15 -5
    endloop
  endfacet
  facet normal 0 1.22461e-016 1
    outer loop
      vertex 9.53647 8.92658 -5
      vertex 10.4635 8.92658 -5
      vertex 15 15 -5
    endloop
  endfacet
  facet normal 0 1.22461e-016 1
    outer loop
      vertex 10.4635 8.92658 -5
      vertex 11.2135 8.38168 -5
      vertex 15 15 -5
    endloop
  endfacet
  facet normal 0 1.22461e-016 1
    outer loop
      vertex 11.5 7.5 -5
      vertex 15 -6.12303e-016 -5
      vertex 11.2135 8.38168 -5
    endloop
  endfacet
  facet normal 0 1.22461e-016 1
    outer loop
      vertex -15 -6.12303e-016 -5
      vertex 15 -6.12303e-016 -5
      vertex 10.4635 6.07341 -5
    endloop
  endfacet
  facet normal 0 1.22461e-016 1
    outer loop
      vertex -15 -6.12303e-016 -5
      vertex 10.4635 6.07341 -5
      vertex 9.53647 6.07341 -5
    endloop
  endfacet
  facet normal 0 1.22461e-016 1
    outer loop
      vertex -15 -6.12303e-016 -5
      vertex 9.53647 6.07341 -5
      vertex 8.78647 6.61832 -5
    endloop
  endfacet
  facet normal 0 1.22461e-016 1
    outer loop
      vertex -15 -6.12303e-016 -5
      vertex 8.5 7.5 -5
      vertex 8.78647 8.38168 -5
    endloop
  endfacet
  facet normal 0 1.22461e-016 1
    outer loop
      vertex -15 -6.12303e-016 -5
      vertex 8.78647 6.61832 -5
      vertex 8.5 7.5 -5
    endloop
  endfacet
  facet normal 0 1.22461e-016 1
    outer loop
      vertex -9.53647 8.92658 -5
      vertex -8.78647 8.38168 -5
      vertex 15 15 -5
    endloop
  endfacet
  facet normal 0 1.22461e-016 1
    outer loop
      vertex 11.2135 6.61832 -5
      vertex 10.4635 6.07341 -5
      vertex 15 -6.12303e-016 -5
    endloop
  endfacet
  facet normal 0 1 -1.22461e-016
    outer loop
      vertex -15 1.22461e-015 10
      vertex 15 1.22461e-015 10
      vertex -15 -6.12303e-016 -5
    endloop
  endfacet
  facet normal 0 1 -1.22461e-016
    outer loop
      vertex -15 -6.12303e-016 -5
      vertex 15 1.22461e-015 10
      vertex 15 -6.12303e-016 -5
    endloop
  endfacet
  facet normal 0 1.22461e-016 1
    outer loop
      vertex 15 1.22461e-015 10
      vertex -15 1.22461e-015 10
      vertex -15 -5 10
    endloop
  endfacet
  facet normal 0 1.22461e-016 1
    outer loop
      vertex 12 -5 10
      vertex 15 1.22461e-015 10
      vertex -12 -5 10
    endloop
  endfacet
  facet normal 0 1.22461e-016 1
    outer loop
      vertex -12 -5 10
      vertex 15 1.22461e-015 10
      vertex -15 -5 10
    endloop
  endfacet
  facet normal 0 1.22461e-016 1
    outer loop
      vertex 15 -5 10
      vertex 15 1.22461e-015 10
      vertex 12 -5 10
    endloop
  endfacet
  facet normal 0 -0.6 0.8
    outer loop
      vertex -12 -5 10
      vertex -15 -5 10
      vertex -15 -25 -5
    endloop
  endfacet
  facet normal 0 -0.6 0.8
    outer loop
      vertex -12 -25 -5
      vertex -12 -5 10
      vertex -15 -25 -5
    endloop
  endfacet
  facet normal 0 -1 1.22461e-016
    outer loop
      vertex -12 -25 -5
      vertex -15 -25 -5
      vertex -15 -25 -10
    endloop
  endfacet
  facet normal 0 -1 1.22461e-016
    outer loop
      vertex 12 -25 -5
      vertex -12 -25 -5
      vertex 15 -25 -10
    endloop
  endfacet
  facet normal 0 -1 1.22461e-016
    outer loop
      vertex 15 -25 -10
      vertex -12 -25 -5
      vertex -15 -25 -10
    endloop
  endfacet
  facet normal 0 -1 1.22461e-016
    outer loop
      vertex 15 -25 -5
      vertex 12 -25 -5
      vertex 15 -25 -10
    endloop
  endfacet
  facet normal 0 -1.22461e-016 -1
    outer loop
      vertex 8.79491 4.75268 -10
      vertex -2.27226 -11.7081 -10
      vertex -2.99404 -12.3475 -10
    endloop
  endfacet
  facet normal 0 -1.22461e-016 -1
    outer loop
      vertex 12.8375 6.5259 -10
      vertex 15 15 -10
      vertex 15 -25 -10
    endloop
  endfacet
  facet normal 0 -1.22461e-016 -1
    outer loop
      vertex -9.26354 10.4082 -10
      vertex -15 15 -10
      vertex -8.35916 10.0115 -10
    endloop
  endfacet
  facet normal 0 -1.22461e-016 -1
    outer loop
      vertex -15 15 -10
      vertex -12.9591 7.99378 -10
      vertex -15 -25 -10
    endloop
  endfacet
  facet normal 0 -1.22461e-016 -1
    outer loop
      vertex -12.9591 7.99378 -10
      vertex -12.9591 7.00622 -10
      vertex -15 -25 -10
    endloop
  endfacet
  facet normal 0 -1.22461e-016 -1
    outer loop
      vertex -7.63258 9.34264 -10
      vertex 15 15 -10
      vertex -7.16255 8.4741 -10
    endloop
  endfacet
  facet normal 0 -1.22461e-016 -1
    outer loop
      vertex -12.9591 7.00622 -10
      vertex -12.6384 6.07216 -10
      vertex -15 -25 -10
    endloop
  endfacet
  facet normal 0 -1.22461e-016 -1
    outer loop
      vertex -7.16255 8.4741 -10
      vertex 15 15 -10
      vertex -7 7.5 -10
    endloop
  endfacet
  facet normal 0 -1.22461e-016 -1
    outer loop
      vertex -12.6384 6.07216 -10
      vertex -12.0318 5.29283 -10
      vertex -15 -25 -10
    endloop
  endfacet
  facet normal 0 -1.22461e-016 -1
    outer loop
      vertex -7 7.5 -10
      vertex 15 15 -10
      vertex -7.16255 6.5259 -10
    endloop
  endfacet
  facet normal 0 -1.22461e-016 -1
    outer loop
      vertex -12.0318 5.29283 -10
      vertex -11.2051 4.75268 -10
      vertex -15 -25 -10
    endloop
  endfacet
  facet normal 0 -1.22461e-016 -1
    outer loop
      vertex -7.16255 6.5259 -10
      vertex 15 15 -10
      vertex -7.63258 5.65736 -10
    endloop
  endfacet
  facet normal 0 -1.22461e-016 -1
    outer loop
      vertex -11.2051 4.75268 -10
      vertex -10.2477 4.51025 -10
      vertex -15 -25 -10
    endloop
  endfacet
  facet normal 0 -1.22461e-016 -1
    outer loop
      vertex -8.35916 4.9885 -10
      vertex 15 15 -10
      vertex -9.26354 4.5918 -10
    endloop
  endfacet
  facet normal 0 -1.22461e-016 -1
    outer loop
      vertex -10.2477 4.51025 -10
      vertex -9.26354 4.5918 -10
      vertex -15 -25 -10
    endloop
  endfacet
  facet normal 0 -1.22461e-016 -1
    outer loop
      vertex -8.35916 10.0115 -10
      vertex 15 15 -10
      vertex -7.63258 9.34264 -10
    endloop
  endfacet
  facet normal 0 -1.22461e-016 -1
    outer loop
      vertex -15 15 -10
      vertex 15 15 -10
      vertex -8.35916 10.0115 -10
    endloop
  endfacet
  facet normal 0 -1.22461e-016 -1
    outer loop
      vertex -0.482147 -18.9708 -10
      vertex 15 -25 -10
      vertex -1.41842 -18.7401 -10
    endloop
  endfacet
  facet normal 0 -1.22461e-016 -1
    outer loop
      vertex -15 15 -10
      vertex -9.26354 10.4082 -10
      vertex -10.2477 10.4898 -10
    endloop
  endfacet
  facet normal 0 -1.22461e-016 -1
    outer loop
      vertex -15 15 -10
      vertex -10.2477 10.4898 -10
      vertex -11.2051 10.2473 -10
    endloop
  endfacet
  facet normal 0 -1.22461e-016 -1
    outer loop
      vertex -15 15 -10
      vertex -11.2051 10.2473 -10
      vertex -12.0318 9.70717 -10
    endloop
  endfacet
  facet normal 0 -1.22461e-016 -1
    outer loop
      vertex -15 15 -10
      vertex -12.0318 9.70717 -10
      vertex -12.6384 8.92784 -10
    endloop
  endfacet
  facet normal 0 -1.22461e-016 -1
    outer loop
      vertex -15 15 -10
      vertex -12.6384 8.92784 -10
      vertex -12.9591 7.99378 -10
    endloop
  endfacet
  facet normal 0 -1.22461e-016 -1
    outer loop
      vertex 7.96815 5.29283 -10
      vertex -15 -25 -10
      vertex 7.36158 6.07216 -10
    endloop
  endfacet
  facet normal 0 -1.22461e-016 -1
    outer loop
      vertex -15 -25 -10
      vertex -3.88377 -14.0427 -10
      vertex -4 -15 -10
    endloop
  endfacet
  facet normal 0 -1.22461e-016 -1
    outer loop
      vertex -15 -25 -10
      vertex -4 -15 -10
      vertex -3.88377 -15.9573 -10
    endloop
  endfacet
  facet normal 0 -1.22461e-016 -1
    outer loop
      vertex 8.79491 4.75268 -10
      vertex -2.99404 -12.3475 -10
      vertex 7.96815 5.29283 -10
    endloop
  endfacet
  facet normal 0 -1.22461e-016 -1
    outer loop
      vertex -15 -25 -10
      vertex -3.88377 -15.9573 -10
      vertex -3.54182 -16.8589 -10
    endloop
  endfacet
  facet normal 0 -1.22461e-016 -1
    outer loop
      vertex -15 -25 -10
      vertex -3.54182 -16.8589 -10
      vertex -2.99404 -17.6525 -10
    endloop
  endfacet
  facet normal 0 -1.22461e-016 -1
    outer loop
      vertex -15 -25 -10
      vertex -2.99404 -17.6525 -10
      vertex -2.27226 -18.2919 -10
    endloop
  endfacet
  facet normal 0 -1.22461e-016 -1
    outer loop
      vertex -15 -25 -10
      vertex -2.27226 -18.2919 -10
      vertex -1.41842 -18.7401 -10
    endloop
  endfacet
  facet normal 0 -1.22461e-016 -1
    outer loop
      vertex -15 -25 -10
      vertex -1.41842 -18.7401 -10
      vertex 15 -25 -10
    endloop
  endfacet
  facet normal 0 -1.22461e-016 -1
    outer loop
      vertex 0.482147 -18.9708 -10
      vertex 15 -25 -10
      vertex -0.482147 -18.9708 -10
    endloop
  endfacet
  facet normal 0 -1.22461e-016 -1
    outer loop
      vertex 1.41842 -18.7401 -10
      vertex 15 -25 -10
      vertex 0.482147 -18.9708 -10
    endloop
  endfacet
  facet normal 0 -1.22461e-016 -1
    outer loop
      vertex 2.27226 -18.2919 -10
      vertex 15 -25 -10
      vertex 1.41842 -18.7401 -10
    endloop
  endfacet
  facet normal 0 -1.22461e-016 -1
    outer loop
      vertex 2.99404 -17.6525 -10
      vertex 15 -25 -10
      vertex 2.27226 -18.2919 -10
    endloop
  endfacet
  facet normal 0 -1.22461e-016 -1
    outer loop
      vertex 9.75226 4.51025 -10
      vertex -0.482147 -11.0292 -10
      vertex 8.79491 4.75268 -10
    endloop
  endfacet
  facet normal 0 -1.22461e-016 -1
    outer loop
      vertex 2.99404 -17.6525 -10
      vertex 3.54182 -16.8589 -10
      vertex 15 -25 -10
    endloop
  endfacet
  facet normal 0 -1.22461e-016 -1
    outer loop
      vertex 3.54182 -16.8589 -10
      vertex 3.88377 -15.9573 -10
      vertex 15 -25 -10
    endloop
  endfacet
  facet normal 0 -1.22461e-016 -1
    outer loop
      vertex 11.6408 4.9885 -10
      vertex 4 -15 -10
      vertex 3.88377 -14.0427 -10
    endloop
  endfacet
  facet normal 0 -1.22461e-016 -1
    outer loop
      vertex 10.7365 4.5918 -10
      vertex 2.27226 -11.7081 -10
      vertex 9.75226 4.51025 -10
    endloop
  endfacet
  facet normal 0 -1.22461e-016 -1
    outer loop
      vertex 11.6408 10.0115 -10
      vertex 15 15 -10
      vertex 12.3674 9.34264 -10
    endloop
  endfacet
  facet normal 0 -1.22461e-016 -1
    outer loop
      vertex 9.75226 4.51025 -10
      vertex 0.482147 -11.0292 -10
      vertex -0.482147 -11.0292 -10
    endloop
  endfacet
  facet normal 0 -1.22461e-016 -1
    outer loop
      vertex -15 -25 -10
      vertex -2.99404 -12.3475 -10
      vertex -3.54182 -13.1411 -10
    endloop
  endfacet
  facet normal 0 -1.22461e-016 -1
    outer loop
      vertex -15 -25 -10
      vertex -3.54182 -13.1411 -10
      vertex -3.88377 -14.0427 -10
    endloop
  endfacet
  facet normal 0 -1.22461e-016 -1
    outer loop
      vertex 7.96815 9.70717 -10
      vertex -9.26354 4.5918 -10
      vertex 8.79491 10.2473 -10
    endloop
  endfacet
  facet normal 0 -1.22461e-016 -1
    outer loop
      vertex -9.26354 4.5918 -10
      vertex 7.04092 7.99378 -10
      vertex -15 -25 -10
    endloop
  endfacet
  facet normal 0 -1.22461e-016 -1
    outer loop
      vertex 7.04092 7.99378 -10
      vertex 7.04092 7.00622 -10
      vertex -15 -25 -10
    endloop
  endfacet
  facet normal 0 -1.22461e-016 -1
    outer loop
      vertex 9.75226 10.4898 -10
      vertex 15 15 -10
      vertex 10.7365 10.4082 -10
    endloop
  endfacet
  facet normal 0 -1.22461e-016 -1
    outer loop
      vertex 7.04092 7.00622 -10
      vertex 7.36158 6.07216 -10
      vertex -15 -25 -10
    endloop
  endfacet
  facet normal 0 -1.22461e-016 -1
    outer loop
      vertex 8.79491 4.75268 -10
      vertex -1.41842 -11.2599 -10
      vertex -2.27226 -11.7081 -10
    endloop
  endfacet
  facet normal 0 -1.22461e-016 -1
    outer loop
      vertex -15 -25 -10
      vertex 7.96815 5.29283 -10
      vertex -2.99404 -12.3475 -10
    endloop
  endfacet
  facet normal 0 -1.22461e-016 -1
    outer loop
      vertex 9.75226 4.51025 -10
      vertex 1.41842 -11.2599 -10
      vertex 0.482147 -11.0292 -10
    endloop
  endfacet
  facet normal 0 -1.22461e-016 -1
    outer loop
      vertex -1.41842 -11.2599 -10
      vertex 8.79491 4.75268 -10
      vertex -0.482147 -11.0292 -10
    endloop
  endfacet
  facet normal 0 -1.22461e-016 -1
    outer loop
      vertex 10.7365 4.5918 -10
      vertex 2.99404 -12.3475 -10
      vertex 2.27226 -11.7081 -10
    endloop
  endfacet
  facet normal 0 -1.22461e-016 -1
    outer loop
      vertex 1.41842 -11.2599 -10
      vertex 9.75226 4.51025 -10
      vertex 2.27226 -11.7081 -10
    endloop
  endfacet
  facet normal 0 -1.22461e-016 -1
    outer loop
      vertex 11.6408 4.9885 -10
      vertex 3.88377 -15.9573 -10
      vertex 4 -15 -10
    endloop
  endfacet
  facet normal 0 -1.22461e-016 -1
    outer loop
      vertex 2.99404 -12.3475 -10
      vertex 10.7365 4.5918 -10
      vertex 3.54182 -13.1411 -10
    endloop
  endfacet
  facet normal 0 -1.22461e-016 -1
    outer loop
      vertex 12.8375 8.4741 -10
      vertex 15 15 -10
      vertex 13 7.5 -10
    endloop
  endfacet
  facet normal 0 -1.22461e-016 -1
    outer loop
      vertex 3.88377 -15.9573 -10
      vertex 11.6408 4.9885 -10
      vertex 15 -25 -10
    endloop
  endfacet
  facet normal 0 -1.22461e-016 -1
    outer loop
      vertex 12.3674 9.34264 -10
      vertex 15 15 -10
      vertex 12.8375 8.4741 -10
    endloop
  endfacet
  facet normal 0 -1.22461e-016 -1
    outer loop
      vertex 11.6408 4.9885 -10
      vertex 12.3674 5.65736 -10
      vertex 15 -25 -10
    endloop
  endfacet
  facet normal 0 -1.22461e-016 -1
    outer loop
      vertex 13 7.5 -10
      vertex 15 15 -10
      vertex 12.8375 6.5259 -10
    endloop
  endfacet
  facet normal 0 -1.22461e-016 -1
    outer loop
      vertex 12.3674 5.65736 -10
      vertex 12.8375 6.5259 -10
      vertex 15 -25 -10
    endloop
  endfacet
  facet normal 0 -1.22461e-016 -1
    outer loop
      vertex 11.6408 4.9885 -10
      vertex 3.54182 -13.1411 -10
      vertex 10.7365 4.5918 -10
    endloop
  endfacet
  facet normal 0 -1.22461e-016 -1
    outer loop
      vertex 11.6408 4.9885 -10
      vertex 3.88377 -14.0427 -10
      vertex 3.54182 -13.1411 -10
    endloop
  endfacet
  facet normal 0 -1.22461e-016 -1
    outer loop
      vertex 8.79491 10.2473 -10
      vertex 15 15 -10
      vertex 9.75226 10.4898 -10
    endloop
  endfacet
  facet normal 0 -1.22461e-016 -1
    outer loop
      vertex -9.26354 4.5918 -10
      vertex 15 15 -10
      vertex 8.79491 10.2473 -10
    endloop
  endfacet
  facet normal 0 -1.22461e-016 -1
    outer loop
      vertex -9.26354 4.5918 -10
      vertex 7.96815 9.70717 -10
      vertex 7.36158 8.92784 -10
    endloop
  endfacet
  facet normal 0 -1.22461e-016 -1
    outer loop
      vertex -9.26354 4.5918 -10
      vertex 7.36158 8.92784 -10
      vertex 7.04092 7.99378 -10
    endloop
  endfacet
  facet normal 0 -1.22461e-016 -1
    outer loop
      vertex -7.63258 5.65736 -10
      vertex 15 15 -10
      vertex -8.35916 4.9885 -10
    endloop
  endfacet
  facet normal 0 -1.22461e-016 -1
    outer loop
      vertex 10.7365 10.4082 -10
      vertex 15 15 -10
      vertex 11.6408 10.0115 -10
    endloop
  endfacet
  facet normal 1 0 0
    outer loop
      vertex 15 15 -10
      vertex 15 15 -5
      vertex 15 -6.12303e-016 -5
    endloop
  endfacet
  facet normal 1 0 0
    outer loop
      vertex 15 -25 -5
      vertex 15 15 -10
      vertex 15 -6.12303e-016 -5
    endloop
  endfacet
  facet normal 1 0 0
    outer loop
      vertex 15 1.22461e-015 10
      vertex 15 -5 10
      vertex 15 -6.12303e-016 -5
    endloop
  endfacet
  facet normal 1 0 0
    outer loop
      vertex 15 -5 10
      vertex 15 -25 -5
      vertex 15 -6.12303e-016 -5
    endloop
  endfacet
  facet normal 1 0 0
    outer loop
      vertex 15 -25 -5
      vertex 15 -25 -10
      vertex 15 15 -10
    endloop
  endfacet
  facet normal 0.951056 -0.309017 3.78425e-017
    outer loop
      vertex -11.5 7.5 -8.5
      vertex -11.2135 8.38168 -8.5
      vertex -11.2135 8.38168 -5
    endloop
  endfacet
  facet normal 0.951056 -0.309017 3.78425e-017
    outer loop
      vertex -11.5 7.5 -5
      vertex -11.5 7.5 -8.5
      vertex -11.2135 8.38168 -5
    endloop
  endfacet
  facet normal 0.587785 -0.809017 9.90727e-017
    outer loop
      vertex -11.2135 8.38168 -8.5
      vertex -10.4635 8.92658 -8.5
      vertex -10.4635 8.92658 -5
    endloop
  endfacet
  facet normal 0.587785 -0.809017 9.90727e-017
    outer loop
      vertex -11.2135 8.38168 -5
      vertex -11.2135 8.38168 -8.5
      vertex -10.4635 8.92658 -5
    endloop
  endfacet
  facet normal 0.951056 0.309017 -3.78425e-017
    outer loop
      vertex -11.2135 6.61832 -5
      vertex -11.2135 6.61832 -8.5
      vertex -11.5 7.5 -8.5
    endloop
  endfacet
  facet normal 0.951056 0.309017 -3.78425e-017
    outer loop
      vertex -11.5 7.5 -5
      vertex -11.2135 6.61832 -5
      vertex -11.5 7.5 -8.5
    endloop
  endfacet
  facet normal 0.587785 0.809017 -9.90727e-017
    outer loop
      vertex -10.4635 6.07341 -8.5
      vertex -11.2135 6.61832 -8.5
      vertex -10.4635 6.07341 -5
    endloop
  endfacet
  facet normal 0.587785 0.809017 -9.90727e-017
    outer loop
      vertex -10.4635 6.07341 -5
      vertex -11.2135 6.61832 -8.5
      vertex -11.2135 6.61832 -5
    endloop
  endfacet
  facet normal 0 1 -1.22461e-016
    outer loop
      vertex -9.53647 6.07341 -8.5
      vertex -10.4635 6.07341 -8.5
      vertex -9.53647 6.07341 -5
    endloop
  endfacet
  facet normal 0 1 -1.22461e-016
    outer loop
      vertex -9.53647 6.07341 -5
      vertex -10.4635 6.07341 -8.5
      vertex -10.4635 6.07341 -5
    endloop
  endfacet
  facet normal -0.587785 0.809017 -9.90727e-017
    outer loop
      vertex -8.78647 6.61832 -8.5
      vertex -9.53647 6.07341 -8.5
      vertex -8.78647 6.61832 -5
    endloop
  endfacet
  facet normal -0.587785 0.809017 -9.90727e-017
    outer loop
      vertex -8.78647 6.61832 -5
      vertex -9.53647 6.07341 -8.5
      vertex -9.53647 6.07341 -5
    endloop
  endfacet
  facet normal -0.951056 0.309017 -3.78425e-017
    outer loop
      vertex -8.5 7.5 -8.5
      vertex -8.78647 6.61832 -8.5
      vertex -8.5 7.5 -5
    endloop
  endfacet
  facet normal -0.951056 0.309017 -3.78425e-017
    outer loop
      vertex -8.5 7.5 -5
      vertex -8.78647 6.61832 -8.5
      vertex -8.78647 6.61832 -5
    endloop
  endfacet
  facet normal -0.951056 -0.309017 3.78425e-017
    outer loop
      vertex -8.5 7.5 -8.5
      vertex -8.5 7.5 -5
      vertex -8.78647 8.38168 -8.5
    endloop
  endfacet
  facet normal -0.951056 -0.309017 3.78425e-017
    outer loop
      vertex -8.78647 8.38168 -8.5
      vertex -8.5 7.5 -5
      vertex -8.78647 8.38168 -5
    endloop
  endfacet
  facet normal -0.587785 -0.809017 9.90727e-017
    outer loop
      vertex -9.53647 8.92658 -8.5
      vertex -8.78647 8.38168 -8.5
      vertex -8.78647 8.38168 -5
    endloop
  endfacet
  facet normal -0.587785 -0.809017 9.90727e-017
    outer loop
      vertex -9.53647 8.92658 -5
      vertex -9.53647 8.92658 -8.5
      vertex -8.78647 8.38168 -5
    endloop
  endfacet
  facet normal 0 -1 1.22461e-016
    outer loop
      vertex -10.4635 8.92658 -8.5
      vertex -9.53647 8.92658 -8.5
      vertex -9.53647 8.92658 -5
    endloop
  endfacet
  facet normal 0 -1 1.22461e-016
    outer loop
      vertex -10.4635 8.92658 -5
      vertex -10.4635 8.92658 -8.5
      vertex -9.53647 8.92658 -5
    endloop
  endfacet
  facet normal 0.951056 -0.309017 3.78425e-017
    outer loop
      vertex 8.5 7.5 -8.5
      vertex 8.78647 8.38168 -8.5
      vertex 8.78647 8.38168 -5
    endloop
  endfacet
  facet normal 0.951056 -0.309017 3.78425e-017
    outer loop
      vertex 8.5 7.5 -5
      vertex 8.5 7.5 -8.5
      vertex 8.78647 8.38168 -5
    endloop
  endfacet
  facet normal 0.587785 -0.809017 9.90727e-017
    outer loop
      vertex 8.78647 8.38168 -8.5
      vertex 9.53647 8.92658 -8.5
      vertex 9.53647 8.92658 -5
    endloop
  endfacet
  facet normal 0.587785 -0.809017 9.90727e-017
    outer loop
      vertex 8.78647 8.38168 -5
      vertex 8.78647 8.38168 -8.5
      vertex 9.53647 8.92658 -5
    endloop
  endfacet
  facet normal 0.951056 0.309017 -3.78425e-017
    outer loop
      vertex 8.78647 6.61832 -5
      vertex 8.78647 6.61832 -8.5
      vertex 8.5 7.5 -8.5
    endloop
  endfacet
  facet normal 0.951056 0.309017 -3.78425e-017
    outer loop
      vertex 8.5 7.5 -5
      vertex 8.78647 6.61832 -5
      vertex 8.5 7.5 -8.5
    endloop
  endfacet
  facet normal 0.587785 0.809017 -9.90727e-017
    outer loop
      vertex 9.53647 6.07341 -8.5
      vertex 8.78647 6.61832 -8.5
      vertex 9.53647 6.07341 -5
    endloop
  endfacet
  facet normal 0.587785 0.809017 -9.90727e-017
    outer loop
      vertex 9.53647 6.07341 -5
      vertex 8.78647 6.61832 -8.5
      vertex 8.78647 6.61832 -5
    endloop
  endfacet
  facet normal 0 1 -1.22461e-016
    outer loop
      vertex 10.4635 6.07341 -8.5
      vertex 9.53647 6.07341 -8.5
      vertex 10.4635 6.07341 -5
    endloop
  endfacet
  facet normal 0 1 -1.22461e-016
    outer loop
      vertex 10.4635 6.07341 -5
      vertex 9.53647 6.07341 -8.5
      vertex 9.53647 6.07341 -5
    endloop
  endfacet
  facet normal -0.587785 0.809017 -9.90727e-017
    outer loop
      vertex 11.2135 6.61832 -8.5
      vertex 10.4635 6.07341 -8.5
      vertex 11.2135 6.61832 -5
    endloop
  endfacet
  facet normal -0.587785 0.809017 -9.90727e-017
    outer loop
      vertex 11.2135 6.61832 -5
      vertex 10.4635 6.07341 -8.5
      vertex 10.4635 6.07341 -5
    endloop
  endfacet
  facet normal -0.951056 0.309017 -3.78425e-017
    outer loop
      vertex 11.5 7.5 -8.5
      vertex 11.2135 6.61832 -8.5
      vertex 11.5 7.5 -5
    endloop
  endfacet
  facet normal -0.951056 0.309017 -3.78425e-017
    outer loop
      vertex 11.5 7.5 -5
      vertex 11.2135 6.61832 -8.5
      vertex 11.2135 6.61832 -5
    endloop
  endfacet
  facet normal -0.951056 -0.309017 3.78425e-017
    outer loop
      vertex 11.5 7.5 -8.5
      vertex 11.5 7.5 -5
      vertex 11.2135 8.38168 -8.5
    endloop
  endfacet
  facet normal -0.951056 -0.309017 3.78425e-017
    outer loop
      vertex 11.2135 8.38168 -8.5
      vertex 11.5 7.5 -5
      vertex 11.2135 8.38168 -5
    endloop
  endfacet
  facet normal -0.587785 -0.809017 9.90727e-017
    outer loop
      vertex 10.4635 8.92658 -8.5
      vertex 11.2135 8.38168 -8.5
      vertex 11.2135 8.38168 -5
    endloop
  endfacet
  facet normal -0.587785 -0.809017 9.90727e-017
    outer loop
      vertex 10.4635 8.92658 -5
      vertex 10.4635 8.92658 -8.5
      vertex 11.2135 8.38168 -5
    endloop
  endfacet
  facet normal 0 -1 1.22461e-016
    outer loop
      vertex 9.53647 8.92658 -8.5
      vertex 10.4635 8.92658 -8.5
      vertex 10.4635 8.92658 -5
    endloop
  endfacet
  facet normal 0 -1 1.22461e-016
    outer loop
      vertex 9.53647 8.92658 -5
      vertex 9.53647 8.92658 -8.5
      vertex 10.4635 8.92658 -5
    endloop
  endfacet
  facet normal 0 -0.6 0.8
    outer loop
      vertex 15 -5 10
      vertex 12 -5 10
      vertex 12 -25 -5
    endloop
  endfacet
  facet normal 0 -0.6 0.8
    outer loop
      vertex 15 -25 -5
      vertex 15 -5 10
      vertex 12 -25 -5
    endloop
  endfacet
  facet normal -1 0 0
    outer loop
      vertex 12 -25 -5
      vertex 12 -5 10
      vertex 12 -5 -5
    endloop
  endfacet
  facet normal 0 -1 1.22461e-016
    outer loop
      vertex 12 -5 10
      vertex -12 -5 10
      vertex -12 -5 -5
    endloop
  endfacet
  facet normal 0 -1 1.22461e-016
    outer loop
      vertex 12 -5 -5
      vertex 12 -5 10
      vertex -12 -5 -5
    endloop
  endfacet
  facet normal 1 0 0
    outer loop
      vertex -12 -5 -5
      vertex -12 -5 10
      vertex -12 -25 -5
    endloop
  endfacet
  facet normal 0 1.22461e-016 1
    outer loop
      vertex 9.94522 -13.9547 -5
      vertex 12 -25 -5
      vertex 12 -5 -5
    endloop
  endfacet
  facet normal 0 1.22461e-016 1
    outer loop
      vertex 7.43145 -8.30869 -5
      vertex 8.66025 -10 -5
      vertex 12 -5 -5
    endloop
  endfacet
  facet normal 0 1.22461e-016 1
    outer loop
      vertex -12 -5 -5
      vertex -12 -25 -5
      vertex -9.94522 -13.9547 -5
    endloop
  endfacet
  facet normal 0 1.22461e-016 1
    outer loop
      vertex 9.94522 -13.9547 -5
      vertex 9.94522 -16.0453 -5
      vertex 12 -25 -5
    endloop
  endfacet
  facet normal 0 1.22461e-016 1
    outer loop
      vertex -12 -5 -5
      vertex -9.94522 -13.9547 -5
      vertex -9.51057 -11.9098 -5
    endloop
  endfacet
  facet normal 0 1.22461e-016 1
    outer loop
      vertex -12 -5 -5
      vertex -9.51057 -11.9098 -5
      vertex -8.66025 -10 -5
    endloop
  endfacet
  facet normal 0 1.22461e-016 1
    outer loop
      vertex 5.87785 -6.90983 -5
      vertex 7.43145 -8.30869 -5
      vertex 12 -5 -5
    endloop
  endfacet
  facet normal 0 1.22461e-016 1
    outer loop
      vertex -12 -5 -5
      vertex -8.66025 -10 -5
      vertex -7.43145 -8.30869 -5
    endloop
  endfacet
  facet normal 0 1.22461e-016 1
    outer loop
      vertex -12 -5 -5
      vertex -7.43145 -8.30869 -5
      vertex -5.87785 -6.90983 -5
    endloop
  endfacet
  facet normal 0 1.22461e-016 1
    outer loop
      vertex 4.06737 -5.86455 -5
      vertex 5.87785 -6.90983 -5
      vertex 12 -5 -5
    endloop
  endfacet
  facet normal 0 1.22461e-016 1
    outer loop
      vertex -12 -5 -5
      vertex -5.87785 -6.90983 -5
      vertex -4.06737 -5.86454 -5
    endloop
  endfacet
  facet normal 0 1.22461e-016 1
    outer loop
      vertex -12 -5 -5
      vertex -4.06737 -5.86454 -5
      vertex -2.07912 -5.21852 -5
    endloop
  endfacet
  facet normal 0 1.22461e-016 1
    outer loop
      vertex -12 -5 -5
      vertex -1.89222e-008 -5 -5
      vertex 12 -5 -5
    endloop
  endfacet
  facet normal 0 1.22461e-016 1
    outer loop
      vertex -12 -5 -5
      vertex -2.07912 -5.21852 -5
      vertex -1.89222e-008 -5 -5
    endloop
  endfacet
  facet normal 0 1.22461e-016 1
    outer loop
      vertex 8.66025 -10 -5
      vertex 9.51056 -11.9098 -5
      vertex 12 -5 -5
    endloop
  endfacet
  facet normal 0 1.22461e-016 1
    outer loop
      vertex 1.89222e-008 -25 -5
      vertex -2.07912 -24.7815 -5
      vertex -12 -25 -5
    endloop
  endfacet
  facet normal 0 1.22461e-016 1
    outer loop
      vertex 9.51056 -11.9098 -5
      vertex 9.94522 -13.9547 -5
      vertex 12 -5 -5
    endloop
  endfacet
  facet normal 0 1.22461e-016 1
    outer loop
      vertex -2.07912 -24.7815 -5
      vertex -4.06737 -24.1355 -5
      vertex -12 -25 -5
    endloop
  endfacet
  facet normal 0 1.22461e-016 1
    outer loop
      vertex 9.51057 -18.0902 -5
      vertex 12 -25 -5
      vertex 9.94522 -16.0453 -5
    endloop
  endfacet
  facet normal 0 1.22461e-016 1
    outer loop
      vertex 8.66025 -20 -5
      vertex 12 -25 -5
      vertex 9.51057 -18.0902 -5
    endloop
  endfacet
  facet normal 0 1.22461e-016 1
    outer loop
      vertex 7.43145 -21.6913 -5
      vertex 12 -25 -5
      vertex 8.66025 -20 -5
    endloop
  endfacet
  facet normal 0 1.22461e-016 1
    outer loop
      vertex 5.87785 -23.0902 -5
      vertex 12 -25 -5
      vertex 7.43145 -21.6913 -5
    endloop
  endfacet
  facet normal 0 1.22461e-016 1
    outer loop
      vertex 4.06737 -24.1355 -5
      vertex 12 -25 -5
      vertex 5.87785 -23.0902 -5
    endloop
  endfacet
  facet normal 0 1.22461e-016 1
    outer loop
      vertex 2.07912 -24.7815 -5
      vertex 12 -25 -5
      vertex 4.06737 -24.1355 -5
    endloop
  endfacet
  facet normal 0 1.22461e-016 1
    outer loop
      vertex 1.89222e-008 -25 -5
      vertex 12 -25 -5
      vertex 2.07912 -24.7815 -5
    endloop
  endfacet
  facet normal 0 1.22461e-016 1
    outer loop
      vertex -12 -25 -5
      vertex 12 -25 -5
      vertex 1.89222e-008 -25 -5
    endloop
  endfacet
  facet normal 0 1.22461e-016 1
    outer loop
      vertex -4.06737 -24.1355 -5
      vertex -5.87785 -23.0902 -5
      vertex -12 -25 -5
    endloop
  endfacet
  facet normal 0 1.22461e-016 1
    outer loop
      vertex -5.87785 -23.0902 -5
      vertex -7.43145 -21.6913 -5
      vertex -12 -25 -5
    endloop
  endfacet
  facet normal 0 1.22461e-016 1
    outer loop
      vertex -7.43145 -21.6913 -5
      vertex -8.66025 -20 -5
      vertex -12 -25 -5
    endloop
  endfacet
  facet normal 0 1.22461e-016 1
    outer loop
      vertex -9.51056 -18.0902 -5
      vertex -12 -25 -5
      vertex -8.66025 -20 -5
    endloop
  endfacet
  facet normal 0 1.22461e-016 1
    outer loop
      vertex -9.94522 -16.0453 -5
      vertex -12 -25 -5
      vertex -9.51056 -18.0902 -5
    endloop
  endfacet
  facet normal 0 1.22461e-016 1
    outer loop
      vertex -9.94522 -13.9547 -5
      vertex -12 -25 -5
      vertex -9.94522 -16.0453 -5
    endloop
  endfacet
  facet normal 0 1.22461e-016 1
    outer loop
      vertex -1.89222e-008 -5 -5
      vertex 2.07912 -5.21852 -5
      vertex 12 -5 -5
    endloop
  endfacet
  facet normal 0 1.22461e-016 1
    outer loop
      vertex 2.07912 -5.21852 -5
      vertex 4.06737 -5.86455 -5
      vertex 12 -5 -5
    endloop
  endfacet
  facet normal 1 0 0
    outer loop
      vertex -12.9591 7.00622 -8.5
      vertex -12.9591 7.00622 -10
      vertex -12.9591 7.99378 -10
    endloop
  endfacet
  facet normal 1 0 0
    outer loop
      vertex -12.9591 7.99378 -8.5
      vertex -12.9591 7.00622 -8.5
      vertex -12.9591 7.99378 -10
    endloop
  endfacet
  facet normal 0.945817 -0.3247 3.9763e-017
    outer loop
      vertex -12.9591 7.99378 -10
      vertex -12.6384 8.92784 -10
      vertex -12.6384 8.92784 -8.5
    endloop
  endfacet
  facet normal 0.945817 -0.3247 3.9763e-017
    outer loop
      vertex -12.9591 7.99378 -8.5
      vertex -12.9591 7.99378 -10
      vertex -12.6384 8.92784 -8.5
    endloop
  endfacet
  facet normal 0.789141 -0.614212 7.52168e-017
    outer loop
      vertex -12.6384 8.92784 -10
      vertex -12.0318 9.70717 -10
      vertex -12.0318 9.70717 -8.5
    endloop
  endfacet
  facet normal 0.789141 -0.614212 7.52168e-017
    outer loop
      vertex -12.6384 8.92784 -8.5
      vertex -12.6384 8.92784 -10
      vertex -12.0318 9.70717 -8.5
    endloop
  endfacet
  facet normal 0.546948 -0.837167 1.0252e-016
    outer loop
      vertex -12.0318 9.70717 -10
      vertex -11.2051 10.2473 -10
      vertex -11.2051 10.2473 -8.5
    endloop
  endfacet
  facet normal 0.546948 -0.837167 1.0252e-016
    outer loop
      vertex -12.0318 9.70717 -8.5
      vertex -12.0318 9.70717 -10
      vertex -11.2051 10.2473 -8.5
    endloop
  endfacet
  facet normal 0.245485 -0.9694 1.18713e-016
    outer loop
      vertex -11.2051 10.2473 -10
      vertex -10.2477 10.4898 -10
      vertex -10.2477 10.4898 -8.5
    endloop
  endfacet
  facet normal 0.245485 -0.9694 1.18713e-016
    outer loop
      vertex -11.2051 10.2473 -8.5
      vertex -11.2051 10.2473 -10
      vertex -10.2477 10.4898 -8.5
    endloop
  endfacet
  facet normal -0.0825787 -0.996585 1.22042e-016
    outer loop
      vertex -10.2477 10.4898 -10
      vertex -9.26354 10.4082 -10
      vertex -9.26354 10.4082 -8.5
    endloop
  endfacet
  facet normal -0.0825787 -0.996585 1.22042e-016
    outer loop
      vertex -10.2477 10.4898 -8.5
      vertex -10.2477 10.4898 -10
      vertex -9.26354 10.4082 -8.5
    endloop
  endfacet
  facet normal -0.401696 -0.915773 1.12146e-016
    outer loop
      vertex -9.26354 10.4082 -10
      vertex -8.35916 10.0115 -10
      vertex -8.35916 10.0115 -8.5
    endloop
  endfacet
  facet normal -0.401696 -0.915773 1.12146e-016
    outer loop
      vertex -9.26354 10.4082 -8.5
      vertex -9.26354 10.4082 -10
      vertex -8.35916 10.0115 -8.5
    endloop
  endfacet
  facet normal -0.677281 -0.735724 9.00973e-017
    outer loop
      vertex -8.35916 10.0115 -10
      vertex -7.63258 9.34264 -10
      vertex -7.63258 9.34264 -8.5
    endloop
  endfacet
  facet normal -0.677281 -0.735724 9.00973e-017
    outer loop
      vertex -8.35916 10.0115 -8.5
      vertex -8.35916 10.0115 -10
      vertex -7.63258 9.34264 -8.5
    endloop
  endfacet
  facet normal -0.879474 -0.475947 5.82848e-017
    outer loop
      vertex -7.16255 8.4741 -10
      vertex -7.16255 8.4741 -8.5
      vertex -7.63258 9.34264 -10
    endloop
  endfacet
  facet normal -0.879474 -0.475947 5.82848e-017
    outer loop
      vertex -7.63258 9.34264 -10
      vertex -7.16255 8.4741 -8.5
      vertex -7.63258 9.34264 -8.5
    endloop
  endfacet
  facet normal -0.986361 -0.164594 2.01563e-017
    outer loop
      vertex -7 7.5 -10
      vertex -7 7.5 -8.5
      vertex -7.16255 8.4741 -10
    endloop
  endfacet
  facet normal -0.986361 -0.164594 2.01563e-017
    outer loop
      vertex -7.16255 8.4741 -10
      vertex -7 7.5 -8.5
      vertex -7.16255 8.4741 -8.5
    endloop
  endfacet
  facet normal -0.986361 0.164594 -2.01563e-017
    outer loop
      vertex -7 7.5 -10
      vertex -7.16255 6.5259 -10
      vertex -7 7.5 -8.5
    endloop
  endfacet
  facet normal -0.986361 0.164594 -2.01563e-017
    outer loop
      vertex -7 7.5 -8.5
      vertex -7.16255 6.5259 -10
      vertex -7.16255 6.5259 -8.5
    endloop
  endfacet
  facet normal -0.879474 0.475947 -5.82848e-017
    outer loop
      vertex -7.16255 6.5259 -10
      vertex -7.63258 5.65736 -10
      vertex -7.16255 6.5259 -8.5
    endloop
  endfacet
  facet normal -0.879474 0.475947 -5.82848e-017
    outer loop
      vertex -7.16255 6.5259 -8.5
      vertex -7.63258 5.65736 -10
      vertex -7.63258 5.65736 -8.5
    endloop
  endfacet
  facet normal -0.677281 0.735724 -9.00973e-017
    outer loop
      vertex -7.63258 5.65736 -10
      vertex -8.35916 4.9885 -10
      vertex -7.63258 5.65736 -8.5
    endloop
  endfacet
  facet normal -0.677281 0.735724 -9.00973e-017
    outer loop
      vertex -7.63258 5.65736 -8.5
      vertex -8.35916 4.9885 -10
      vertex -8.35916 4.9885 -8.5
    endloop
  endfacet
  facet normal -0.401696 0.915773 -1.12146e-016
    outer loop
      vertex -8.35916 4.9885 -10
      vertex -9.26354 4.5918 -10
      vertex -8.35916 4.9885 -8.5
    endloop
  endfacet
  facet normal -0.401696 0.915773 -1.12146e-016
    outer loop
      vertex -8.35916 4.9885 -8.5
      vertex -9.26354 4.5918 -10
      vertex -9.26354 4.5918 -8.5
    endloop
  endfacet
  facet normal -0.0825787 0.996585 -1.22042e-016
    outer loop
      vertex -9.26354 4.5918 -10
      vertex -10.2477 4.51025 -10
      vertex -9.26354 4.5918 -8.5
    endloop
  endfacet
  facet normal -0.0825787 0.996585 -1.22042e-016
    outer loop
      vertex -9.26354 4.5918 -8.5
      vertex -10.2477 4.51025 -10
      vertex -10.2477 4.51025 -8.5
    endloop
  endfacet
  facet normal 0.245485 0.9694 -1.18713e-016
    outer loop
      vertex -10.2477 4.51025 -10
      vertex -11.2051 4.75268 -10
      vertex -10.2477 4.51025 -8.5
    endloop
  endfacet
  facet normal 0.245485 0.9694 -1.18713e-016
    outer loop
      vertex -10.2477 4.51025 -8.5
      vertex -11.2051 4.75268 -10
      vertex -11.2051 4.75268 -8.5
    endloop
  endfacet
  facet normal 0.546948 0.837167 -1.0252e-016
    outer loop
      vertex -11.2051 4.75268 -10
      vertex -12.0318 5.29283 -10
      vertex -11.2051 4.75268 -8.5
    endloop
  endfacet
  facet normal 0.546948 0.837167 -1.0252e-016
    outer loop
      vertex -11.2051 4.75268 -8.5
      vertex -12.0318 5.29283 -10
      vertex -12.0318 5.29283 -8.5
    endloop
  endfacet
  facet normal 0.789141 0.614212 -7.52168e-017
    outer loop
      vertex -12.0318 5.29283 -8.5
      vertex -12.0318 5.29283 -10
      vertex -12.6384 6.07216 -10
    endloop
  endfacet
  facet normal 0.789141 0.614212 -7.52168e-017
    outer loop
      vertex -12.6384 6.07216 -8.5
      vertex -12.0318 5.29283 -8.5
      vertex -12.6384 6.07216 -10
    endloop
  endfacet
  facet normal 0.945817 0.3247 -3.9763e-017
    outer loop
      vertex -12.6384 6.07216 -8.5
      vertex -12.6384 6.07216 -10
      vertex -12.9591 7.00622 -10
    endloop
  endfacet
  facet normal 0.945817 0.3247 -3.9763e-017
    outer loop
      vertex -12.9591 7.00622 -8.5
      vertex -12.6384 6.07216 -8.5
      vertex -12.9591 7.00622 -10
    endloop
  endfacet
  facet normal 0.992709 -0.120537 1.4761e-017
    outer loop
      vertex -4 -15 -10
      vertex -3.88377 -14.0427 -10
      vertex -3.88377 -14.0427 -5
    endloop
  endfacet
  facet normal 0.992709 -0.120537 1.4761e-017
    outer loop
      vertex -4 -15 -5
      vertex -4 -15 -10
      vertex -3.88377 -14.0427 -5
    endloop
  endfacet
  facet normal 0.935016 -0.354605 4.34251e-017
    outer loop
      vertex -3.88377 -14.0427 -10
      vertex -3.54182 -13.1411 -10
      vertex -3.54182 -13.1411 -5
    endloop
  endfacet
  facet normal 0.935016 -0.354605 4.34251e-017
    outer loop
      vertex -3.88377 -14.0427 -5
      vertex -3.88377 -14.0427 -10
      vertex -3.54182 -13.1411 -5
    endloop
  endfacet
  facet normal 0.822984 -0.568065 6.95656e-017
    outer loop
      vertex -3.54182 -13.1411 -10
      vertex -2.99404 -12.3475 -10
      vertex -2.99404 -12.3475 -5
    endloop
  endfacet
  facet normal 0.822984 -0.568065 6.95656e-017
    outer loop
      vertex -3.54182 -13.1411 -5
      vertex -3.54182 -13.1411 -10
      vertex -2.99404 -12.3475 -5
    endloop
  endfacet
  facet normal 0.663122 -0.748511 9.16632e-017
    outer loop
      vertex -2.99404 -12.3475 -10
      vertex -2.27226 -11.7081 -10
      vertex -2.27226 -11.7081 -5
    endloop
  endfacet
  facet normal 0.663122 -0.748511 9.16632e-017
    outer loop
      vertex -2.99404 -12.3475 -5
      vertex -2.99404 -12.3475 -10
      vertex -2.27226 -11.7081 -5
    endloop
  endfacet
  facet normal 0.464724 -0.885456 1.08433e-016
    outer loop
      vertex -2.27226 -11.7081 -10
      vertex -1.41842 -11.2599 -10
      vertex -1.41842 -11.2599 -5
    endloop
  endfacet
  facet normal 0.464724 -0.885456 1.08433e-016
    outer loop
      vertex -2.27226 -11.7081 -5
      vertex -2.27226 -11.7081 -10
      vertex -1.41842 -11.2599 -5
    endloop
  endfacet
  facet normal 0.239315 -0.970942 1.18902e-016
    outer loop
      vertex -1.41842 -11.2599 -10
      vertex -0.482147 -11.0292 -10
      vertex -0.482147 -11.0292 -5
    endloop
  endfacet
  facet normal 0.239315 -0.970942 1.18902e-016
    outer loop
      vertex -1.41842 -11.2599 -5
      vertex -1.41842 -11.2599 -10
      vertex -0.482147 -11.0292 -5
    endloop
  endfacet
  facet normal 0 -1 1.22461e-016
    outer loop
      vertex -0.482147 -11.0292 -10
      vertex 0.482147 -11.0292 -10
      vertex 0.482147 -11.0292 -5
    endloop
  endfacet
  facet normal 0 -1 1.22461e-016
    outer loop
      vertex -0.482147 -11.0292 -5
      vertex -0.482147 -11.0292 -10
      vertex 0.482147 -11.0292 -5
    endloop
  endfacet
  facet normal -0.239315 -0.970942 1.18902e-016
    outer loop
      vertex 0.482147 -11.0292 -10
      vertex 1.41842 -11.2599 -10
      vertex 1.41842 -11.2599 -5
    endloop
  endfacet
  facet normal -0.239315 -0.970942 1.18902e-016
    outer loop
      vertex 0.482147 -11.0292 -5
      vertex 0.482147 -11.0292 -10
      vertex 1.41842 -11.2599 -5
    endloop
  endfacet
  facet normal -0.464724 -0.885456 1.08433e-016
    outer loop
      vertex 1.41842 -11.2599 -10
      vertex 2.27226 -11.7081 -10
      vertex 2.27226 -11.7081 -5
    endloop
  endfacet
  facet normal -0.464724 -0.885456 1.08433e-016
    outer loop
      vertex 1.41842 -11.2599 -5
      vertex 1.41842 -11.2599 -10
      vertex 2.27226 -11.7081 -5
    endloop
  endfacet
  facet normal -0.663122 -0.748511 9.16632e-017
    outer loop
      vertex 2.27226 -11.7081 -10
      vertex 2.99404 -12.3475 -10
      vertex 2.99404 -12.3475 -5
    endloop
  endfacet
  facet normal -0.663122 -0.748511 9.16632e-017
    outer loop
      vertex 2.27226 -11.7081 -5
      vertex 2.27226 -11.7081 -10
      vertex 2.99404 -12.3475 -5
    endloop
  endfacet
  facet normal -0.822984 -0.568065 6.95656e-017
    outer loop
      vertex 3.54182 -13.1411 -10
      vertex 3.54182 -13.1411 -5
      vertex 2.99404 -12.3475 -10
    endloop
  endfacet
  facet normal -0.822984 -0.568065 6.95656e-017
    outer loop
      vertex 2.99404 -12.3475 -10
      vertex 3.54182 -13.1411 -5
      vertex 2.99404 -12.3475 -5
    endloop
  endfacet
  facet normal -0.935016 -0.354605 4.34251e-017
    outer loop
      vertex 3.88377 -14.0427 -10
      vertex 3.88377 -14.0427 -5
      vertex 3.54182 -13.1411 -10
    endloop
  endfacet
  facet normal -0.935016 -0.354605 4.34251e-017
    outer loop
      vertex 3.54182 -13.1411 -10
      vertex 3.88377 -14.0427 -5
      vertex 3.54182 -13.1411 -5
    endloop
  endfacet
  facet normal -0.992709 -0.120537 1.4761e-017
    outer loop
      vertex 4 -15 -10
      vertex 4 -15 -5
      vertex 3.88377 -14.0427 -10
    endloop
  endfacet
  facet normal -0.992709 -0.120537 1.4761e-017
    outer loop
      vertex 3.88377 -14.0427 -10
      vertex 4 -15 -5
      vertex 3.88377 -14.0427 -5
    endloop
  endfacet
  facet normal -0.992709 0.120537 -1.4761e-017
    outer loop
      vertex 4 -15 -10
      vertex 3.88377 -15.9573 -10
      vertex 4 -15 -5
    endloop
  endfacet
  facet normal -0.992709 0.120537 -1.4761e-017
    outer loop
      vertex 4 -15 -5
      vertex 3.88377 -15.9573 -10
      vertex 3.88377 -15.9573 -5
    endloop
  endfacet
  facet normal -0.935016 0.354605 -4.34251e-017
    outer loop
      vertex 3.88377 -15.9573 -10
      vertex 3.54182 -16.8589 -10
      vertex 3.88377 -15.9573 -5
    endloop
  endfacet
  facet normal -0.935016 0.354605 -4.34251e-017
    outer loop
      vertex 3.88377 -15.9573 -5
      vertex 3.54182 -16.8589 -10
      vertex 3.54182 -16.8589 -5
    endloop
  endfacet
  facet normal -0.822984 0.568065 -6.95656e-017
    outer loop
      vertex 3.54182 -16.8589 -10
      vertex 2.99404 -17.6525 -10
      vertex 3.54182 -16.8589 -5
    endloop
  endfacet
  facet normal -0.822984 0.568065 -6.95656e-017
    outer loop
      vertex 3.54182 -16.8589 -5
      vertex 2.99404 -17.6525 -10
      vertex 2.99404 -17.6525 -5
    endloop
  endfacet
  facet normal -0.663122 0.748511 -9.16632e-017
    outer loop
      vertex 2.99404 -17.6525 -10
      vertex 2.27226 -18.2919 -10
      vertex 2.99404 -17.6525 -5
    endloop
  endfacet
  facet normal -0.663122 0.748511 -9.16632e-017
    outer loop
      vertex 2.99404 -17.6525 -5
      vertex 2.27226 -18.2919 -10
      vertex 2.27226 -18.2919 -5
    endloop
  endfacet
  facet normal -0.464724 0.885456 -1.08433e-016
    outer loop
      vertex 2.27226 -18.2919 -10
      vertex 1.41842 -18.7401 -10
      vertex 2.27226 -18.2919 -5
    endloop
  endfacet
  facet normal -0.464724 0.885456 -1.08433e-016
    outer loop
      vertex 2.27226 -18.2919 -5
      vertex 1.41842 -18.7401 -10
      vertex 1.41842 -18.7401 -5
    endloop
  endfacet
  facet normal -0.239315 0.970942 -1.18902e-016
    outer loop
      vertex 1.41842 -18.7401 -10
      vertex 0.482147 -18.9708 -10
      vertex 1.41842 -18.7401 -5
    endloop
  endfacet
  facet normal -0.239315 0.970942 -1.18902e-016
    outer loop
      vertex 1.41842 -18.7401 -5
      vertex 0.482147 -18.9708 -10
      vertex 0.482147 -18.9708 -5
    endloop
  endfacet
  facet normal 0 1 -1.22461e-016
    outer loop
      vertex 0.482147 -18.9708 -10
      vertex -0.482147 -18.9708 -10
      vertex 0.482147 -18.9708 -5
    endloop
  endfacet
  facet normal 0 1 -1.22461e-016
    outer loop
      vertex 0.482147 -18.9708 -5
      vertex -0.482147 -18.9708 -10
      vertex -0.482147 -18.9708 -5
    endloop
  endfacet
  facet normal 0.239315 0.970942 -1.18902e-016
    outer loop
      vertex -0.482147 -18.9708 -10
      vertex -1.41842 -18.7401 -10
      vertex -0.482147 -18.9708 -5
    endloop
  endfacet
  facet normal 0.239315 0.970942 -1.18902e-016
    outer loop
      vertex -0.482147 -18.9708 -5
      vertex -1.41842 -18.7401 -10
      vertex -1.41842 -18.7401 -5
    endloop
  endfacet
  facet normal 0.464724 0.885456 -1.08433e-016
    outer loop
      vertex -1.41842 -18.7401 -10
      vertex -2.27226 -18.2919 -10
      vertex -1.41842 -18.7401 -5
    endloop
  endfacet
  facet normal 0.464724 0.885456 -1.08433e-016
    outer loop
      vertex -1.41842 -18.7401 -5
      vertex -2.27226 -18.2919 -10
      vertex -2.27226 -18.2919 -5
    endloop
  endfacet
  facet normal 0.663122 0.748511 -9.16632e-017
    outer loop
      vertex -2.27226 -18.2919 -10
      vertex -2.99404 -17.6525 -10
      vertex -2.27226 -18.2919 -5
    endloop
  endfacet
  facet normal 0.663122 0.748511 -9.16632e-017
    outer loop
      vertex -2.27226 -18.2919 -5
      vertex -2.99404 -17.6525 -10
      vertex -2.99404 -17.6525 -5
    endloop
  endfacet
  facet normal 0.822984 0.568065 -6.95656e-017
    outer loop
      vertex -2.99404 -17.6525 -5
      vertex -2.99404 -17.6525 -10
      vertex -3.54182 -16.8589 -10
    endloop
  endfacet
  facet normal 0.822984 0.568065 -6.95656e-017
    outer loop
      vertex -3.54182 -16.8589 -5
      vertex -2.99404 -17.6525 -5
      vertex -3.54182 -16.8589 -10
    endloop
  endfacet
  facet normal 0.935016 0.354605 -4.34251e-017
    outer loop
      vertex -3.54182 -16.8589 -5
      vertex -3.54182 -16.8589 -10
      vertex -3.88377 -15.9573 -10
    endloop
  endfacet
  facet normal 0.935016 0.354605 -4.34251e-017
    outer loop
      vertex -3.88377 -15.9573 -5
      vertex -3.54182 -16.8589 -5
      vertex -3.88377 -15.9573 -10
    endloop
  endfacet
  facet normal 0.992709 0.120537 -1.4761e-017
    outer loop
      vertex -3.88377 -15.9573 -5
      vertex -3.88377 -15.9573 -10
      vertex -4 -15 -10
    endloop
  endfacet
  facet normal 0.992709 0.120537 -1.4761e-017
    outer loop
      vertex -4 -15 -5
      vertex -3.88377 -15.9573 -5
      vertex -4 -15 -10
    endloop
  endfacet
  facet normal 1 0 0
    outer loop
      vertex 7.04092 7.00622 -8.5
      vertex 7.04092 7.00622 -10
      vertex 7.04092 7.99378 -10
    endloop
  endfacet
  facet normal 1 0 0
    outer loop
      vertex 7.04092 7.99378 -8.5
      vertex 7.04092 7.00622 -8.5
      vertex 7.04092 7.99378 -10
    endloop
  endfacet
  facet normal 0.945817 -0.3247 3.9763e-017
    outer loop
      vertex 7.04092 7.99378 -10
      vertex 7.36158 8.92784 -10
      vertex 7.36158 8.92784 -8.5
    endloop
  endfacet
  facet normal 0.945817 -0.3247 3.9763e-017
    outer loop
      vertex 7.04092 7.99378 -8.5
      vertex 7.04092 7.99378 -10
      vertex 7.36158 8.92784 -8.5
    endloop
  endfacet
  facet normal 0.789141 -0.614212 7.52168e-017
    outer loop
      vertex 7.36158 8.92784 -10
      vertex 7.96815 9.70717 -10
      vertex 7.96815 9.70717 -8.5
    endloop
  endfacet
  facet normal 0.789141 -0.614212 7.52168e-017
    outer loop
      vertex 7.36158 8.92784 -8.5
      vertex 7.36158 8.92784 -10
      vertex 7.96815 9.70717 -8.5
    endloop
  endfacet
  facet normal 0.546948 -0.837167 1.0252e-016
    outer loop
      vertex 7.96815 9.70717 -10
      vertex 8.79491 10.2473 -10
      vertex 8.79491 10.2473 -8.5
    endloop
  endfacet
  facet normal 0.546948 -0.837167 1.0252e-016
    outer loop
      vertex 7.96815 9.70717 -8.5
      vertex 7.96815 9.70717 -10
      vertex 8.79491 10.2473 -8.5
    endloop
  endfacet
  facet normal 0.245485 -0.9694 1.18713e-016
    outer loop
      vertex 8.79491 10.2473 -10
      vertex 9.75226 10.4898 -10
      vertex 9.75226 10.4898 -8.5
    endloop
  endfacet
  facet normal 0.245485 -0.9694 1.18713e-016
    outer loop
      vertex 8.79491 10.2473 -8.5
      vertex 8.79491 10.2473 -10
      vertex 9.75226 10.4898 -8.5
    endloop
  endfacet
  facet normal -0.0825787 -0.996585 1.22042e-016
    outer loop
      vertex 9.75226 10.4898 -10
      vertex 10.7365 10.4082 -10
      vertex 10.7365 10.4082 -8.5
    endloop
  endfacet
  facet normal -0.0825787 -0.996585 1.22042e-016
    outer loop
      vertex 9.75226 10.4898 -8.5
      vertex 9.75226 10.4898 -10
      vertex 10.7365 10.4082 -8.5
    endloop
  endfacet
  facet normal -0.401696 -0.915773 1.12146e-016
    outer loop
      vertex 10.7365 10.4082 -10
      vertex 11.6408 10.0115 -10
      vertex 11.6408 10.0115 -8.5
    endloop
  endfacet
  facet normal -0.401696 -0.915773 1.12146e-016
    outer loop
      vertex 10.7365 10.4082 -8.5
      vertex 10.7365 10.4082 -10
      vertex 11.6408 10.0115 -8.5
    endloop
  endfacet
  facet normal -0.677281 -0.735724 9.00973e-017
    outer loop
      vertex 11.6408 10.0115 -10
      vertex 12.3674 9.34264 -10
      vertex 12.3674 9.34264 -8.5
    endloop
  endfacet
  facet normal -0.677281 -0.735724 9.00973e-017
    outer loop
      vertex 11.6408 10.0115 -8.5
      vertex 11.6408 10.0115 -10
      vertex 12.3674 9.34264 -8.5
    endloop
  endfacet
  facet normal -0.879474 -0.475947 5.82848e-017
    outer loop
      vertex 12.8375 8.4741 -10
      vertex 12.8375 8.4741 -8.5
      vertex 12.3674 9.34264 -10
    endloop
  endfacet
  facet normal -0.879474 -0.475947 5.82848e-017
    outer loop
      vertex 12.3674 9.34264 -10
      vertex 12.8375 8.4741 -8.5
      vertex 12.3674 9.34264 -8.5
    endloop
  endfacet
  facet normal -0.986361 -0.164594 2.01563e-017
    outer loop
      vertex 13 7.5 -10
      vertex 13 7.5 -8.5
      vertex 12.8375 8.4741 -10
    endloop
  endfacet
  facet normal -0.986361 -0.164594 2.01563e-017
    outer loop
      vertex 12.8375 8.4741 -10
      vertex 13 7.5 -8.5
      vertex 12.8375 8.4741 -8.5
    endloop
  endfacet
  facet normal -0.986361 0.164594 -2.01563e-017
    outer loop
      vertex 13 7.5 -10
      vertex 12.8375 6.5259 -10
      vertex 13 7.5 -8.5
    endloop
  endfacet
  facet normal -0.986361 0.164594 -2.01563e-017
    outer loop
      vertex 13 7.5 -8.5
      vertex 12.8375 6.5259 -10
      vertex 12.8375 6.5259 -8.5
    endloop
  endfacet
  facet normal -0.879474 0.475947 -5.82848e-017
    outer loop
      vertex 12.8375 6.5259 -10
      vertex 12.3674 5.65736 -10
      vertex 12.8375 6.5259 -8.5
    endloop
  endfacet
  facet normal -0.879474 0.475947 -5.82848e-017
    outer loop
      vertex 12.8375 6.5259 -8.5
      vertex 12.3674 5.65736 -10
      vertex 12.3674 5.65736 -8.5
    endloop
  endfacet
  facet normal -0.677281 0.735724 -9.00973e-017
    outer loop
      vertex 12.3674 5.65736 -10
      vertex 11.6408 4.9885 -10
      vertex 12.3674 5.65736 -8.5
    endloop
  endfacet
  facet normal -0.677281 0.735724 -9.00973e-017
    outer loop
      vertex 12.3674 5.65736 -8.5
      vertex 11.6408 4.9885 -10
      vertex 11.6408 4.9885 -8.5
    endloop
  endfacet
  facet normal -0.401696 0.915773 -1.12146e-016
    outer loop
      vertex 11.6408 4.9885 -10
      vertex 10.7365 4.5918 -10
      vertex 11.6408 4.9885 -8.5
    endloop
  endfacet
  facet normal -0.401696 0.915773 -1.12146e-016
    outer loop
      vertex 11.6408 4.9885 -8.5
      vertex 10.7365 4.5918 -10
      vertex 10.7365 4.5918 -8.5
    endloop
  endfacet
  facet normal -0.0825787 0.996585 -1.22042e-016
    outer loop
      vertex 10.7365 4.5918 -10
      vertex 9.75226 4.51025 -10
      vertex 10.7365 4.5918 -8.5
    endloop
  endfacet
  facet normal -0.0825787 0.996585 -1.22042e-016
    outer loop
      vertex 10.7365 4.5918 -8.5
      vertex 9.75226 4.51025 -10
      vertex 9.75226 4.51025 -8.5
    endloop
  endfacet
  facet normal 0.245485 0.9694 -1.18713e-016
    outer loop
      vertex 9.75226 4.51025 -10
      vertex 8.79491 4.75268 -10
      vertex 9.75226 4.51025 -8.5
    endloop
  endfacet
  facet normal 0.245485 0.9694 -1.18713e-016
    outer loop
      vertex 9.75226 4.51025 -8.5
      vertex 8.79491 4.75268 -10
      vertex 8.79491 4.75268 -8.5
    endloop
  endfacet
  facet normal 0.546948 0.837167 -1.0252e-016
    outer loop
      vertex 8.79491 4.75268 -10
      vertex 7.96815 5.29283 -10
      vertex 8.79491 4.75268 -8.5
    endloop
  endfacet
  facet normal 0.546948 0.837167 -1.0252e-016
    outer loop
      vertex 8.79491 4.75268 -8.5
      vertex 7.96815 5.29283 -10
      vertex 7.96815 5.29283 -8.5
    endloop
  endfacet
  facet normal 0.789141 0.614212 -7.52168e-017
    outer loop
      vertex 7.96815 5.29283 -8.5
      vertex 7.96815 5.29283 -10
      vertex 7.36158 6.07216 -10
    endloop
  endfacet
  facet normal 0.789141 0.614212 -7.52168e-017
    outer loop
      vertex 7.36158 6.07216 -8.5
      vertex 7.96815 5.29283 -8.5
      vertex 7.36158 6.07216 -10
    endloop
  endfacet
  facet normal 0.945817 0.3247 -3.9763e-017
    outer loop
      vertex 7.36158 6.07216 -8.5
      vertex 7.36158 6.07216 -10
      vertex 7.04092 7.00622 -10
    endloop
  endfacet
  facet normal 0.945817 0.3247 -3.9763e-017
    outer loop
      vertex 7.04092 7.00622 -8.5
      vertex 7.36158 6.07216 -8.5
      vertex 7.04092 7.00622 -10
    endloop
  endfacet
  facet normal 0 -1.22461e-016 -1
    outer loop
      vertex -12.0318 9.70717 -8.5
      vertex -11.2051 10.2473 -8.5
      vertex -12.6384 8.92784 -8.5
    endloop
  endfacet
  facet normal 0 -1.22461e-016 -1
    outer loop
      vertex -12.6384 8.92784 -8.5
      vertex -11.2051 10.2473 -8.5
      vertex -10.2477 10.4898 -8.5
    endloop
  endfacet
  facet normal 0 -1.22461e-016 -1
    outer loop
      vertex -12.6384 8.92784 -8.5
      vertex -10.2477 10.4898 -8.5
      vertex -9.26354 10.4082 -8.5
    endloop
  endfacet
  facet normal 0 -1.22461e-016 -1
    outer loop
      vertex -12.6384 8.92784 -8.5
      vertex -9.26354 10.4082 -8.5
      vertex -8.35916 10.0115 -8.5
    endloop
  endfacet
  facet normal 0 -1.22461e-016 -1
    outer loop
      vertex -12.6384 8.92784 -8.5
      vertex -8.35916 10.0115 -8.5
      vertex -7.63258 9.34264 -8.5
    endloop
  endfacet
  facet normal 0 -1.22461e-016 -1
    outer loop
      vertex -9.53647 8.92658 -8.5
      vertex -7.63258 9.34264 -8.5
      vertex -7.16255 8.4741 -8.5
    endloop
  endfacet
  facet normal 0 -1.22461e-016 -1
    outer loop
      vertex -8.78647 8.38168 -8.5
      vertex -7.16255 8.4741 -8.5
      vertex -7 7.5 -8.5
    endloop
  endfacet
  facet normal 0 -1.22461e-016 -1
    outer loop
      vertex -8.5 7.5 -8.5
      vertex -7 7.5 -8.5
      vertex -7.16255 6.5259 -8.5
    endloop
  endfacet
  facet normal 0 -1.22461e-016 -1
    outer loop
      vertex -8.78647 6.61832 -8.5
      vertex -7.16255 6.5259 -8.5
      vertex -7.63258 5.65736 -8.5
    endloop
  endfacet
  facet normal 0 -1.22461e-016 -1
    outer loop
      vertex -9.53647 6.07341 -8.5
      vertex -7.63258 5.65736 -8.5
      vertex -8.35916 4.9885 -8.5
    endloop
  endfacet
  facet normal 0 -1.22461e-016 -1
    outer loop
      vertex -11.2135 6.61832 -8.5
      vertex -9.26354 4.5918 -8.5
      vertex -10.2477 4.51025 -8.5
    endloop
  endfacet
  facet normal 0 -1.22461e-016 -1
    outer loop
      vertex -12.6384 8.92784 -8.5
      vertex -10.2477 4.51025 -8.5
      vertex -11.2051 4.75268 -8.5
    endloop
  endfacet
  facet normal 0 -1.22461e-016 -1
    outer loop
      vertex -12.6384 8.92784 -8.5
      vertex -11.2051 4.75268 -8.5
      vertex -12.0318 5.29283 -8.5
    endloop
  endfacet
  facet normal 0 -1.22461e-016 -1
    outer loop
      vertex -12.6384 8.92784 -8.5
      vertex -12.0318 5.29283 -8.5
      vertex -12.6384 6.07216 -8.5
    endloop
  endfacet
  facet normal 0 -1.22461e-016 -1
    outer loop
      vertex -12.6384 8.92784 -8.5
      vertex -12.6384 6.07216 -8.5
      vertex -12.9591 7.00622 -8.5
    endloop
  endfacet
  facet normal 0 -1.22461e-016 -1
    outer loop
      vertex -12.6384 8.92784 -8.5
      vertex -12.9591 7.00622 -8.5
      vertex -12.9591 7.99378 -8.5
    endloop
  endfacet
  facet normal 0 -1.22461e-016 -1
    outer loop
      vertex -11.2135 6.61832 -8.5
      vertex -12.6384 8.92784 -8.5
      vertex -11.5 7.5 -8.5
    endloop
  endfacet
  facet normal 0 -1.22461e-016 -1
    outer loop
      vertex -10.4635 6.07341 -8.5
      vertex -9.26354 4.5918 -8.5
      vertex -11.2135 6.61832 -8.5
    endloop
  endfacet
  facet normal 0 -1.22461e-016 -1
    outer loop
      vertex -12.6384 8.92784 -8.5
      vertex -11.2135 6.61832 -8.5
      vertex -10.2477 4.51025 -8.5
    endloop
  endfacet
  facet normal 0 -1.22461e-016 -1
    outer loop
      vertex -9.53647 6.07341 -8.5
      vertex -9.26354 4.5918 -8.5
      vertex -10.4635 6.07341 -8.5
    endloop
  endfacet
  facet normal 0 -1.22461e-016 -1
    outer loop
      vertex -9.53647 6.07341 -8.5
      vertex -8.35916 4.9885 -8.5
      vertex -9.26354 4.5918 -8.5
    endloop
  endfacet
  facet normal 0 -1.22461e-016 -1
    outer loop
      vertex -8.78647 8.38168 -8.5
      vertex -7 7.5 -8.5
      vertex -8.5 7.5 -8.5
    endloop
  endfacet
  facet normal 0 -1.22461e-016 -1
    outer loop
      vertex -9.53647 8.92658 -8.5
      vertex -7.16255 8.4741 -8.5
      vertex -8.78647 8.38168 -8.5
    endloop
  endfacet
  facet normal 0 -1.22461e-016 -1
    outer loop
      vertex -12.6384 8.92784 -8.5
      vertex -7.63258 9.34264 -8.5
      vertex -9.53647 8.92658 -8.5
    endloop
  endfacet
  facet normal 0 -1.22461e-016 -1
    outer loop
      vertex -11.2135 8.38168 -8.5
      vertex -12.6384 8.92784 -8.5
      vertex -10.4635 8.92658 -8.5
    endloop
  endfacet
  facet normal 0 -1.22461e-016 -1
    outer loop
      vertex -12.6384 8.92784 -8.5
      vertex -9.53647 8.92658 -8.5
      vertex -10.4635 8.92658 -8.5
    endloop
  endfacet
  facet normal 0 -1.22461e-016 -1
    outer loop
      vertex -11.5 7.5 -8.5
      vertex -12.6384 8.92784 -8.5
      vertex -11.2135 8.38168 -8.5
    endloop
  endfacet
  facet normal 0 -1.22461e-016 -1
    outer loop
      vertex -8.5 7.5 -8.5
      vertex -7.16255 6.5259 -8.5
      vertex -8.78647 6.61832 -8.5
    endloop
  endfacet
  facet normal 0 -1.22461e-016 -1
    outer loop
      vertex -8.78647 6.61832 -8.5
      vertex -7.63258 5.65736 -8.5
      vertex -9.53647 6.07341 -8.5
    endloop
  endfacet
  facet normal 0 -1.22461e-016 -1
    outer loop
      vertex 7.96815 9.70717 -8.5
      vertex 8.79491 10.2473 -8.5
      vertex 7.36158 8.92784 -8.5
    endloop
  endfacet
  facet normal 0 -1.22461e-016 -1
    outer loop
      vertex 7.36158 8.92784 -8.5
      vertex 8.79491 10.2473 -8.5
      vertex 9.75226 10.4898 -8.5
    endloop
  endfacet
  facet normal 0 -1.22461e-016 -1
    outer loop
      vertex 7.36158 8.92784 -8.5
      vertex 9.75226 10.4898 -8.5
      vertex 10.7365 10.4082 -8.5
    endloop
  endfacet
  facet normal 0 -1.22461e-016 -1
    outer loop
      vertex 7.36158 8.92784 -8.5
      vertex 10.7365 10.4082 -8.5
      vertex 11.6408 10.0115 -8.5
    endloop
  endfacet
  facet normal 0 -1.22461e-016 -1
    outer loop
      vertex 7.36158 8.92784 -8.5
      vertex 11.6408 10.0115 -8.5
      vertex 12.3674 9.34264 -8.5
    endloop
  endfacet
  facet normal 0 -1.22461e-016 -1
    outer loop
      vertex 10.4635 8.92658 -8.5
      vertex 12.3674 9.34264 -8.5
      vertex 12.8375 8.4741 -8.5
    endloop
  endfacet
  facet normal 0 -1.22461e-016 -1
    outer loop
      vertex 11.2135 8.38168 -8.5
      vertex 12.8375 8.4741 -8.5
      vertex 13 7.5 -8.5
    endloop
  endfacet
  facet normal 0 -1.22461e-016 -1
    outer loop
      vertex 11.5 7.5 -8.5
      vertex 13 7.5 -8.5
      vertex 12.8375 6.5259 -8.5
    endloop
  endfacet
  facet normal 0 -1.22461e-016 -1
    outer loop
      vertex 11.2135 6.61832 -8.5
      vertex 12.8375 6.5259 -8.5
      vertex 12.3674 5.65736 -8.5
    endloop
  endfacet
  facet normal 0 -1.22461e-016 -1
    outer loop
      vertex 10.4635 6.07341 -8.5
      vertex 12.3674 5.65736 -8.5
      vertex 11.6408 4.9885 -8.5
    endloop
  endfacet
  facet normal 0 -1.22461e-016 -1
    outer loop
      vertex 8.78647 6.61832 -8.5
      vertex 10.7365 4.5918 -8.5
      vertex 9.75226 4.51025 -8.5
    endloop
  endfacet
  facet normal 0 -1.22461e-016 -1
    outer loop
      vertex 7.36158 8.92784 -8.5
      vertex 9.75226 4.51025 -8.5
      vertex 8.79491 4.75268 -8.5
    endloop
  endfacet
  facet normal 0 -1.22461e-016 -1
    outer loop
      vertex 7.36158 8.92784 -8.5
      vertex 8.79491 4.75268 -8.5
      vertex 7.96815 5.29283 -8.5
    endloop
  endfacet
  facet normal 0 -1.22461e-016 -1
    outer loop
      vertex 7.36158 8.92784 -8.5
      vertex 7.96815 5.29283 -8.5
      vertex 7.36158 6.07216 -8.5
    endloop
  endfacet
  facet normal 0 -1.22461e-016 -1
    outer loop
      vertex 7.36158 8.92784 -8.5
      vertex 7.36158 6.07216 -8.5
      vertex 7.04092 7.00622 -8.5
    endloop
  endfacet
  facet normal 0 -1.22461e-016 -1
    outer loop
      vertex 7.36158 8.92784 -8.5
      vertex 7.04092 7.00622 -8.5
      vertex 7.04092 7.99378 -8.5
    endloop
  endfacet
  facet normal 0 -1.22461e-016 -1
    outer loop
      vertex 8.78647 6.61832 -8.5
      vertex 7.36158 8.92784 -8.5
      vertex 8.5 7.5 -8.5
    endloop
  endfacet
  facet normal 0 -1.22461e-016 -1
    outer loop
      vertex 9.53647 6.07341 -8.5
      vertex 10.7365 4.5918 -8.5
      vertex 8.78647 6.61832 -8.5
    endloop
  endfacet
  facet normal 0 -1.22461e-016 -1
    outer loop
      vertex 7.36158 8.92784 -8.5
      vertex 8.78647 6.61832 -8.5
      vertex 9.75226 4.51025 -8.5
    endloop
  endfacet
  facet normal 0 -1.22461e-016 -1
    outer loop
      vertex 10.4635 6.07341 -8.5
      vertex 10.7365 4.5918 -8.5
      vertex 9.53647 6.07341 -8.5
    endloop
  endfacet
  facet normal 0 -1.22461e-016 -1
    outer loop
      vertex 10.4635 6.07341 -8.5
      vertex 11.6408 4.9885 -8.5
      vertex 10.7365 4.5918 -8.5
    endloop
  endfacet
  facet normal 0 -1.22461e-016 -1
    outer loop
      vertex 11.2135 8.38168 -8.5
      vertex 13 7.5 -8.5
      vertex 11.5 7.5 -8.5
    endloop
  endfacet
  facet normal 0 -1.22461e-016 -1
    outer loop
      vertex 10.4635 8.92658 -8.5
      vertex 12.8375 8.4741 -8.5
      vertex 11.2135 8.38168 -8.5
    endloop
  endfacet
  facet normal 0 -1.22461e-016 -1
    outer loop
      vertex 7.36158 8.92784 -8.5
      vertex 12.3674 9.34264 -8.5
      vertex 10.4635 8.92658 -8.5
    endloop
  endfacet
  facet normal 0 -1.22461e-016 -1
    outer loop
      vertex 8.78647 8.38168 -8.5
      vertex 7.36158 8.92784 -8.5
      vertex 9.53647 8.92658 -8.5
    endloop
  endfacet
  facet normal 0 -1.22461e-016 -1
    outer loop
      vertex 7.36158 8.92784 -8.5
      vertex 10.4635 8.92658 -8.5
      vertex 9.53647 8.92658 -8.5
    endloop
  endfacet
  facet normal 0 -1.22461e-016 -1
    outer loop
      vertex 8.5 7.5 -8.5
      vertex 7.36158 8.92784 -8.5
      vertex 8.78647 8.38168 -8.5
    endloop
  endfacet
  facet normal 0 -1.22461e-016 -1
    outer loop
      vertex 11.5 7.5 -8.5
      vertex 12.8375 6.5259 -8.5
      vertex 11.2135 6.61832 -8.5
    endloop
  endfacet
  facet normal 0 -1.22461e-016 -1
    outer loop
      vertex 11.2135 6.61832 -8.5
      vertex 12.3674 5.65736 -8.5
      vertex 10.4635 6.07341 -8.5
    endloop
  endfacet
  facet normal -0.978148 0.207912 -2.5461e-017
    outer loop
      vertex -9.94522 -13.9547 3
      vertex -9.51057 -11.9098 3
      vertex -9.94522 -13.9547 -5
    endloop
  endfacet
  facet normal -0.978148 0.207912 -2.5461e-017
    outer loop
      vertex -9.94522 -13.9547 -5
      vertex -9.51057 -11.9098 3
      vertex -9.51057 -11.9098 -5
    endloop
  endfacet
  facet normal -1 6.49608e-008 -7.95514e-024
    outer loop
      vertex -9.94522 -16.0453 3
      vertex -9.94522 -13.9547 3
      vertex -9.94522 -16.0453 -5
    endloop
  endfacet
  facet normal -1 6.49608e-008 -7.95514e-024
    outer loop
      vertex -9.94522 -16.0453 -5
      vertex -9.94522 -13.9547 3
      vertex -9.94522 -13.9547 -5
    endloop
  endfacet
  facet normal -0.978148 -0.207912 2.5461e-017
    outer loop
      vertex -9.94522 -16.0453 3
      vertex -9.94522 -16.0453 -5
      vertex -9.51056 -18.0902 3
    endloop
  endfacet
  facet normal -0.978148 -0.207912 2.5461e-017
    outer loop
      vertex -9.51056 -18.0902 3
      vertex -9.94522 -16.0453 -5
      vertex -9.51056 -18.0902 -5
    endloop
  endfacet
  facet normal -0.913545 -0.406737 4.98092e-017
    outer loop
      vertex -9.51056 -18.0902 3
      vertex -9.51056 -18.0902 -5
      vertex -8.66025 -20 3
    endloop
  endfacet
  facet normal -0.913545 -0.406737 4.98092e-017
    outer loop
      vertex -8.66025 -20 3
      vertex -9.51056 -18.0902 -5
      vertex -8.66025 -20 -5
    endloop
  endfacet
  facet normal -0.809017 -0.587785 7.19806e-017
    outer loop
      vertex -8.66025 -20 3
      vertex -8.66025 -20 -5
      vertex -7.43145 -21.6913 3
    endloop
  endfacet
  facet normal -0.809017 -0.587785 7.19806e-017
    outer loop
      vertex -7.43145 -21.6913 3
      vertex -8.66025 -20 -5
      vertex -7.43145 -21.6913 -5
    endloop
  endfacet
  facet normal -0.669131 -0.743145 9.1006e-017
    outer loop
      vertex -5.87785 -23.0902 3
      vertex -7.43145 -21.6913 3
      vertex -7.43145 -21.6913 -5
    endloop
  endfacet
  facet normal -0.669131 -0.743145 9.1006e-017
    outer loop
      vertex -5.87785 -23.0902 -5
      vertex -5.87785 -23.0902 3
      vertex -7.43145 -21.6913 -5
    endloop
  endfacet
  facet normal -0.5 -0.866025 1.06054e-016
    outer loop
      vertex -4.06737 -24.1355 3
      vertex -5.87785 -23.0902 3
      vertex -5.87785 -23.0902 -5
    endloop
  endfacet
  facet normal -0.5 -0.866025 1.06054e-016
    outer loop
      vertex -4.06737 -24.1355 -5
      vertex -4.06737 -24.1355 3
      vertex -5.87785 -23.0902 -5
    endloop
  endfacet
  facet normal -0.309017 -0.951057 1.16467e-016
    outer loop
      vertex -2.07912 -24.7815 3
      vertex -4.06737 -24.1355 3
      vertex -4.06737 -24.1355 -5
    endloop
  endfacet
  facet normal -0.309017 -0.951057 1.16467e-016
    outer loop
      vertex -2.07912 -24.7815 -5
      vertex -2.07912 -24.7815 3
      vertex -4.06737 -24.1355 -5
    endloop
  endfacet
  facet normal -0.104529 -0.994522 1.2179e-016
    outer loop
      vertex 1.89222e-008 -25 3
      vertex -2.07912 -24.7815 3
      vertex -2.07912 -24.7815 -5
    endloop
  endfacet
  facet normal -0.104529 -0.994522 1.2179e-016
    outer loop
      vertex 1.89222e-008 -25 -5
      vertex 1.89222e-008 -25 3
      vertex -2.07912 -24.7815 -5
    endloop
  endfacet
  facet normal 0.104529 -0.994522 1.2179e-016
    outer loop
      vertex 2.07912 -24.7815 3
      vertex 1.89222e-008 -25 3
      vertex 1.89222e-008 -25 -5
    endloop
  endfacet
  facet normal 0.104529 -0.994522 1.2179e-016
    outer loop
      vertex 2.07912 -24.7815 -5
      vertex 2.07912 -24.7815 3
      vertex 1.89222e-008 -25 -5
    endloop
  endfacet
  facet normal 0.309017 -0.951057 1.16467e-016
    outer loop
      vertex 4.06737 -24.1355 3
      vertex 2.07912 -24.7815 3
      vertex 2.07912 -24.7815 -5
    endloop
  endfacet
  facet normal 0.309017 -0.951057 1.16467e-016
    outer loop
      vertex 4.06737 -24.1355 -5
      vertex 4.06737 -24.1355 3
      vertex 2.07912 -24.7815 -5
    endloop
  endfacet
  facet normal 0.5 -0.866025 1.06054e-016
    outer loop
      vertex 5.87785 -23.0902 3
      vertex 4.06737 -24.1355 3
      vertex 4.06737 -24.1355 -5
    endloop
  endfacet
  facet normal 0.5 -0.866025 1.06054e-016
    outer loop
      vertex 5.87785 -23.0902 -5
      vertex 5.87785 -23.0902 3
      vertex 4.06737 -24.1355 -5
    endloop
  endfacet
  facet normal 0.669131 -0.743145 9.1006e-017
    outer loop
      vertex 7.43145 -21.6913 3
      vertex 5.87785 -23.0902 3
      vertex 5.87785 -23.0902 -5
    endloop
  endfacet
  facet normal 0.669131 -0.743145 9.1006e-017
    outer loop
      vertex 7.43145 -21.6913 -5
      vertex 7.43145 -21.6913 3
      vertex 5.87785 -23.0902 -5
    endloop
  endfacet
  facet normal 0.809017 -0.587785 7.19806e-017
    outer loop
      vertex 8.66025 -20 3
      vertex 7.43145 -21.6913 3
      vertex 7.43145 -21.6913 -5
    endloop
  endfacet
  facet normal 0.809017 -0.587785 7.19806e-017
    outer loop
      vertex 8.66025 -20 -5
      vertex 8.66025 -20 3
      vertex 7.43145 -21.6913 -5
    endloop
  endfacet
  facet normal 0.913545 -0.406737 4.98092e-017
    outer loop
      vertex 9.51057 -18.0902 3
      vertex 8.66025 -20 3
      vertex 8.66025 -20 -5
    endloop
  endfacet
  facet normal 0.913545 -0.406737 4.98092e-017
    outer loop
      vertex 9.51057 -18.0902 -5
      vertex 9.51057 -18.0902 3
      vertex 8.66025 -20 -5
    endloop
  endfacet
  facet normal 0.978148 -0.207912 2.5461e-017
    outer loop
      vertex 9.94522 -16.0453 3
      vertex 9.51057 -18.0902 3
      vertex 9.51057 -18.0902 -5
    endloop
  endfacet
  facet normal 0.978148 -0.207912 2.5461e-017
    outer loop
      vertex 9.94522 -16.0453 -5
      vertex 9.94522 -16.0453 3
      vertex 9.51057 -18.0902 -5
    endloop
  endfacet
  facet normal 1 -6.49608e-008 7.95514e-024
    outer loop
      vertex 9.94522 -13.9547 3
      vertex 9.94522 -16.0453 3
      vertex 9.94522 -16.0453 -5
    endloop
  endfacet
  facet normal 1 -6.49608e-008 7.95514e-024
    outer loop
      vertex 9.94522 -13.9547 -5
      vertex 9.94522 -13.9547 3
      vertex 9.94522 -16.0453 -5
    endloop
  endfacet
  facet normal 0.978148 0.207912 -2.5461e-017
    outer loop
      vertex 9.51056 -11.9098 -5
      vertex 9.51056 -11.9098 3
      vertex 9.94522 -13.9547 3
    endloop
  endfacet
  facet normal 0.978148 0.207912 -2.5461e-017
    outer loop
      vertex 9.94522 -13.9547 -5
      vertex 9.51056 -11.9098 -5
      vertex 9.94522 -13.9547 3
    endloop
  endfacet
  facet normal 0.913545 0.406737 -4.98092e-017
    outer loop
      vertex 8.66025 -10 -5
      vertex 8.66025 -10 3
      vertex 9.51056 -11.9098 3
    endloop
  endfacet
  facet normal 0.913545 0.406737 -4.98092e-017
    outer loop
      vertex 9.51056 -11.9098 -5
      vertex 8.66025 -10 -5
      vertex 9.51056 -11.9098 3
    endloop
  endfacet
  facet normal 0.809017 0.587785 -7.19806e-017
    outer loop
      vertex 7.43145 -8.30869 -5
      vertex 7.43145 -8.30869 3
      vertex 8.66025 -10 3
    endloop
  endfacet
  facet normal 0.809017 0.587785 -7.19806e-017
    outer loop
      vertex 8.66025 -10 -5
      vertex 7.43145 -8.30869 -5
      vertex 8.66025 -10 3
    endloop
  endfacet
  facet normal 0.669131 0.743145 -9.1006e-017
    outer loop
      vertex 5.87785 -6.90983 3
      vertex 7.43145 -8.30869 3
      vertex 5.87785 -6.90983 -5
    endloop
  endfacet
  facet normal 0.669131 0.743145 -9.1006e-017
    outer loop
      vertex 5.87785 -6.90983 -5
      vertex 7.43145 -8.30869 3
      vertex 7.43145 -8.30869 -5
    endloop
  endfacet
  facet normal 0.5 0.866025 -1.06054e-016
    outer loop
      vertex 4.06737 -5.86455 3
      vertex 5.87785 -6.90983 3
      vertex 4.06737 -5.86455 -5
    endloop
  endfacet
  facet normal 0.5 0.866025 -1.06054e-016
    outer loop
      vertex 4.06737 -5.86455 -5
      vertex 5.87785 -6.90983 3
      vertex 5.87785 -6.90983 -5
    endloop
  endfacet
  facet normal 0.309017 0.951057 -1.16467e-016
    outer loop
      vertex 2.07912 -5.21852 3
      vertex 4.06737 -5.86455 3
      vertex 2.07912 -5.21852 -5
    endloop
  endfacet
  facet normal 0.309017 0.951057 -1.16467e-016
    outer loop
      vertex 2.07912 -5.21852 -5
      vertex 4.06737 -5.86455 3
      vertex 4.06737 -5.86455 -5
    endloop
  endfacet
  facet normal 0.104529 0.994522 -1.2179e-016
    outer loop
      vertex -1.89222e-008 -5 3
      vertex 2.07912 -5.21852 3
      vertex -1.89222e-008 -5 -5
    endloop
  endfacet
  facet normal 0.104529 0.994522 -1.2179e-016
    outer loop
      vertex -1.89222e-008 -5 -5
      vertex 2.07912 -5.21852 3
      vertex 2.07912 -5.21852 -5
    endloop
  endfacet
  facet normal -0.104529 0.994522 -1.2179e-016
    outer loop
      vertex -2.07912 -5.21852 3
      vertex -1.89222e-008 -5 3
      vertex -2.07912 -5.21852 -5
    endloop
  endfacet
  facet normal -0.104529 0.994522 -1.2179e-016
    outer loop
      vertex -2.07912 -5.21852 -5
      vertex -1.89222e-008 -5 3
      vertex -1.89222e-008 -5 -5
    endloop
  endfacet
  facet normal -0.309017 0.951057 -1.16467e-016
    outer loop
      vertex -4.06737 -5.86454 3
      vertex -2.07912 -5.21852 3
      vertex -4.06737 -5.86454 -5
    endloop
  endfacet
  facet normal -0.309017 0.951057 -1.16467e-016
    outer loop
      vertex -4.06737 -5.86454 -5
      vertex -2.07912 -5.21852 3
      vertex -2.07912 -5.21852 -5
    endloop
  endfacet
  facet normal -0.5 0.866025 -1.06054e-016
    outer loop
      vertex -5.87785 -6.90983 3
      vertex -4.06737 -5.86454 3
      vertex -5.87785 -6.90983 -5
    endloop
  endfacet
  facet normal -0.5 0.866025 -1.06054e-016
    outer loop
      vertex -5.87785 -6.90983 -5
      vertex -4.06737 -5.86454 3
      vertex -4.06737 -5.86454 -5
    endloop
  endfacet
  facet normal -0.669131 0.743145 -9.1006e-017
    outer loop
      vertex -7.43145 -8.30869 3
      vertex -5.87785 -6.90983 3
      vertex -7.43145 -8.30869 -5
    endloop
  endfacet
  facet normal -0.669131 0.743145 -9.1006e-017
    outer loop
      vertex -7.43145 -8.30869 -5
      vertex -5.87785 -6.90983 3
      vertex -5.87785 -6.90983 -5
    endloop
  endfacet
  facet normal -0.809017 0.587785 -7.19806e-017
    outer loop
      vertex -8.66025 -10 3
      vertex -7.43145 -8.30869 3
      vertex -8.66025 -10 -5
    endloop
  endfacet
  facet normal -0.809017 0.587785 -7.19806e-017
    outer loop
      vertex -8.66025 -10 -5
      vertex -7.43145 -8.30869 3
      vertex -7.43145 -8.30869 -5
    endloop
  endfacet
  facet normal -0.913545 0.406737 -4.98092e-017
    outer loop
      vertex -9.51057 -11.9098 3
      vertex -8.66025 -10 3
      vertex -9.51057 -11.9098 -5
    endloop
  endfacet
  facet normal -0.913545 0.406737 -4.98092e-017
    outer loop
      vertex -9.51057 -11.9098 -5
      vertex -8.66025 -10 3
      vertex -8.66025 -10 -5
    endloop
  endfacet
  facet normal 0 1.22461e-016 1
    outer loop
      vertex 2.99404 -17.6525 -5
      vertex 3.61999 -21.27 -5
      vertex 7.23997 -15 -5
    endloop
  endfacet
  facet normal 0 1.22461e-016 1
    outer loop
      vertex 1.41842 -18.7401 -5
      vertex 0.482147 -18.9708 -5
      vertex -3.61999 -21.27 -5
    endloop
  endfacet
  facet normal 0 1.22461e-016 1
    outer loop
      vertex -7.23997 -15 -5
      vertex -3.88377 -14.0427 -5
      vertex -3.61999 -8.73 -5
    endloop
  endfacet
  facet normal 0 1.22461e-016 1
    outer loop
      vertex 1.41842 -11.2599 -5
      vertex 2.27226 -11.7081 -5
      vertex 3.61999 -8.73 -5
    endloop
  endfacet
  facet normal 0 1.22461e-016 1
    outer loop
      vertex -0.482147 -11.0292 -5
      vertex 0.482147 -11.0292 -5
      vertex 3.61999 -8.73 -5
    endloop
  endfacet
  facet normal 0 1.22461e-016 1
    outer loop
      vertex -3.61999 -8.73 -5
      vertex -3.54182 -13.1411 -5
      vertex -2.99404 -12.3475 -5
    endloop
  endfacet
  facet normal 0 1.22461e-016 1
    outer loop
      vertex 3.54182 -16.8589 -5
      vertex 2.99404 -17.6525 -5
      vertex 7.23997 -15 -5
    endloop
  endfacet
  facet normal 0 1.22461e-016 1
    outer loop
      vertex -3.61999 -8.73 -5
      vertex -2.99404 -12.3475 -5
      vertex -2.27226 -11.7081 -5
    endloop
  endfacet
  facet normal 0 1.22461e-016 1
    outer loop
      vertex -3.61999 -8.73 -5
      vertex -1.41842 -11.2599 -5
      vertex 3.61999 -8.73 -5
    endloop
  endfacet
  facet normal 0 1.22461e-016 1
    outer loop
      vertex -3.61999 -8.73 -5
      vertex -2.27226 -11.7081 -5
      vertex -1.41842 -11.2599 -5
    endloop
  endfacet
  facet normal 0 1.22461e-016 1
    outer loop
      vertex -2.27226 -18.2919 -5
      vertex -2.99404 -17.6525 -5
      vertex -3.61999 -21.27 -5
    endloop
  endfacet
  facet normal 0 1.22461e-016 1
    outer loop
      vertex 0.482147 -11.0292 -5
      vertex 1.41842 -11.2599 -5
      vertex 3.61999 -8.73 -5
    endloop
  endfacet
  facet normal 0 1.22461e-016 1
    outer loop
      vertex 3.61999 -8.73 -5
      vertex 2.27226 -11.7081 -5
      vertex 7.23997 -15 -5
    endloop
  endfacet
  facet normal 0 1.22461e-016 1
    outer loop
      vertex 2.27226 -11.7081 -5
      vertex 2.99404 -12.3475 -5
      vertex 7.23997 -15 -5
    endloop
  endfacet
  facet normal 0 1.22461e-016 1
    outer loop
      vertex -3.54182 -16.8589 -5
      vertex -3.88377 -15.9573 -5
      vertex -3.61999 -21.27 -5
    endloop
  endfacet
  facet normal 0 1.22461e-016 1
    outer loop
      vertex 2.99404 -12.3475 -5
      vertex 3.54182 -13.1411 -5
      vertex 7.23997 -15 -5
    endloop
  endfacet
  facet normal 0 1.22461e-016 1
    outer loop
      vertex 3.54182 -13.1411 -5
      vertex 3.88377 -14.0427 -5
      vertex 7.23997 -15 -5
    endloop
  endfacet
  facet normal 0 1.22461e-016 1
    outer loop
      vertex 3.88377 -14.0427 -5
      vertex 4 -15 -5
      vertex 7.23997 -15 -5
    endloop
  endfacet
  facet normal 0 1.22461e-016 1
    outer loop
      vertex 4 -15 -5
      vertex 3.88377 -15.9573 -5
      vertex 7.23997 -15 -5
    endloop
  endfacet
  facet normal 0 1.22461e-016 1
    outer loop
      vertex 3.88377 -15.9573 -5
      vertex 3.54182 -16.8589 -5
      vertex 7.23997 -15 -5
    endloop
  endfacet
  facet normal 0 1.22461e-016 1
    outer loop
      vertex 2.27226 -18.2919 -5
      vertex 3.61999 -21.27 -5
      vertex 2.99404 -17.6525 -5
    endloop
  endfacet
  facet normal 0 1.22461e-016 1
    outer loop
      vertex 1.41842 -18.7401 -5
      vertex 3.61999 -21.27 -5
      vertex 2.27226 -18.2919 -5
    endloop
  endfacet
  facet normal 0 1.22461e-016 1
    outer loop
      vertex 0.482147 -18.9708 -5
      vertex -0.482147 -18.9708 -5
      vertex -3.61999 -21.27 -5
    endloop
  endfacet
  facet normal 0 1.22461e-016 1
    outer loop
      vertex -3.61999 -21.27 -5
      vertex 3.61999 -21.27 -5
      vertex 1.41842 -18.7401 -5
    endloop
  endfacet
  facet normal 0 1.22461e-016 1
    outer loop
      vertex -1.41842 -18.7401 -5
      vertex -2.27226 -18.2919 -5
      vertex -3.61999 -21.27 -5
    endloop
  endfacet
  facet normal 0 1.22461e-016 1
    outer loop
      vertex -3.54182 -16.8589 -5
      vertex -3.61999 -21.27 -5
      vertex -2.99404 -17.6525 -5
    endloop
  endfacet
  facet normal 0 1.22461e-016 1
    outer loop
      vertex -7.23997 -15 -5
      vertex -3.61999 -21.27 -5
      vertex -3.88377 -15.9573 -5
    endloop
  endfacet
  facet normal 0 1.22461e-016 1
    outer loop
      vertex -7.23997 -15 -5
      vertex -4 -15 -5
      vertex -3.88377 -14.0427 -5
    endloop
  endfacet
  facet normal 0 1.22461e-016 1
    outer loop
      vertex -7.23997 -15 -5
      vertex -3.88377 -15.9573 -5
      vertex -4 -15 -5
    endloop
  endfacet
  facet normal 0 1.22461e-016 1
    outer loop
      vertex -3.88377 -14.0427 -5
      vertex -3.54182 -13.1411 -5
      vertex -3.61999 -8.73 -5
    endloop
  endfacet
  facet normal 0 1.22461e-016 1
    outer loop
      vertex -1.41842 -11.2599 -5
      vertex -0.482147 -11.0292 -5
      vertex 3.61999 -8.73 -5
    endloop
  endfacet
  facet normal 0 1.22461e-016 1
    outer loop
      vertex -0.482147 -18.9708 -5
      vertex -1.41842 -18.7401 -5
      vertex -3.61999 -21.27 -5
    endloop
  endfacet
  facet normal 0 1.22461e-016 1
    outer loop
      vertex -9.94522 -13.9547 3
      vertex -9.94522 -16.0453 3
      vertex -9.51056 -18.0902 3
    endloop
  endfacet
  facet normal 0 1.22461e-016 1
    outer loop
      vertex -7.43145 -21.6913 3
      vertex -9.94522 -13.9547 3
      vertex -8.66025 -20 3
    endloop
  endfacet
  facet normal 0 1.22461e-016 1
    outer loop
      vertex -8.66025 -20 3
      vertex -9.94522 -13.9547 3
      vertex -9.51056 -18.0902 3
    endloop
  endfacet
  facet normal 0 1.22461e-016 1
    outer loop
      vertex -5.87785 -23.0902 3
      vertex -9.94522 -13.9547 3
      vertex -7.43145 -21.6913 3
    endloop
  endfacet
  facet normal 0 1.22461e-016 1
    outer loop
      vertex -4.06737 -24.1355 3
      vertex -9.94522 -13.9547 3
      vertex -5.87785 -23.0902 3
    endloop
  endfacet
  facet normal 0 1.22461e-016 1
    outer loop
      vertex -2.07912 -24.7815 3
      vertex -9.94522 -13.9547 3
      vertex -4.06737 -24.1355 3
    endloop
  endfacet
  facet normal 0 1.22461e-016 1
    outer loop
      vertex -3.61999 -21.27 3
      vertex -9.94522 -13.9547 3
      vertex -2.07912 -24.7815 3
    endloop
  endfacet
  facet normal 0 1.22461e-016 1
    outer loop
      vertex 7.23997 -15 3
      vertex 8.66025 -20 3
      vertex 9.51057 -18.0902 3
    endloop
  endfacet
  facet normal 0 1.22461e-016 1
    outer loop
      vertex 7.23997 -15 3
      vertex 7.43145 -21.6913 3
      vertex 8.66025 -20 3
    endloop
  endfacet
  facet normal 0 1.22461e-016 1
    outer loop
      vertex 3.61999 -8.73 3
      vertex 8.66025 -10 3
      vertex 7.43145 -8.30869 3
    endloop
  endfacet
  facet normal 0 1.22461e-016 1
    outer loop
      vertex -3.61999 -8.73 3
      vertex 3.61999 -8.73 3
      vertex 5.87785 -6.90983 3
    endloop
  endfacet
  facet normal 0 1.22461e-016 1
    outer loop
      vertex -3.61999 -8.73 3
      vertex 4.06737 -5.86455 3
      vertex 2.07912 -5.21852 3
    endloop
  endfacet
  facet normal 0 1.22461e-016 1
    outer loop
      vertex 7.23997 -15 3
      vertex 3.61999 -21.27 3
      vertex 7.43145 -21.6913 3
    endloop
  endfacet
  facet normal 0 1.22461e-016 1
    outer loop
      vertex 3.61999 -8.73 3
      vertex 9.94522 -13.9547 3
      vertex 9.51056 -11.9098 3
    endloop
  endfacet
  facet normal 0 1.22461e-016 1
    outer loop
      vertex 3.61999 -8.73 3
      vertex 9.51056 -11.9098 3
      vertex 8.66025 -10 3
    endloop
  endfacet
  facet normal 0 1.22461e-016 1
    outer loop
      vertex -2.07912 -5.21852 3
      vertex -9.94522 -13.9547 3
      vertex -1.89222e-008 -5 3
    endloop
  endfacet
  facet normal 0 1.22461e-016 1
    outer loop
      vertex -4.06737 -5.86454 3
      vertex -9.94522 -13.9547 3
      vertex -2.07912 -5.21852 3
    endloop
  endfacet
  facet normal 0 1.22461e-016 1
    outer loop
      vertex -5.87785 -6.90983 3
      vertex -9.94522 -13.9547 3
      vertex -4.06737 -5.86454 3
    endloop
  endfacet
  facet normal 0 1.22461e-016 1
    outer loop
      vertex -7.43145 -8.30869 3
      vertex -9.94522 -13.9547 3
      vertex -5.87785 -6.90983 3
    endloop
  endfacet
  facet normal 0 1.22461e-016 1
    outer loop
      vertex -8.66025 -10 3
      vertex -9.94522 -13.9547 3
      vertex -7.43145 -8.30869 3
    endloop
  endfacet
  facet normal 0 1.22461e-016 1
    outer loop
      vertex -9.51057 -11.9098 3
      vertex -9.94522 -13.9547 3
      vertex -8.66025 -10 3
    endloop
  endfacet
  facet normal 0 1.22461e-016 1
    outer loop
      vertex 3.61999 -21.27 3
      vertex 4.06737 -24.1355 3
      vertex 5.87785 -23.0902 3
    endloop
  endfacet
  facet normal 0 1.22461e-016 1
    outer loop
      vertex -1.89222e-008 -5 3
      vertex -3.61999 -8.73 3
      vertex 2.07912 -5.21852 3
    endloop
  endfacet
  facet normal 0 1.22461e-016 1
    outer loop
      vertex -1.89222e-008 -5 3
      vertex -9.94522 -13.9547 3
      vertex -3.61999 -8.73 3
    endloop
  endfacet
  facet normal 0 1.22461e-016 1
    outer loop
      vertex 5.87785 -6.90983 3
      vertex 3.61999 -8.73 3
      vertex 7.43145 -8.30869 3
    endloop
  endfacet
  facet normal 0 1.22461e-016 1
    outer loop
      vertex 3.61999 -8.73 3
      vertex 7.23997 -15 3
      vertex 9.94522 -13.9547 3
    endloop
  endfacet
  facet normal 0 1.22461e-016 1
    outer loop
      vertex 9.94522 -13.9547 3
      vertex 7.23997 -15 3
      vertex 9.94522 -16.0453 3
    endloop
  endfacet
  facet normal 0 1.22461e-016 1
    outer loop
      vertex 7.43145 -21.6913 3
      vertex 3.61999 -21.27 3
      vertex 5.87785 -23.0902 3
    endloop
  endfacet
  facet normal 0 1.22461e-016 1
    outer loop
      vertex -3.61999 -8.73 3
      vertex 5.87785 -6.90983 3
      vertex 4.06737 -5.86455 3
    endloop
  endfacet
  facet normal 0 1.22461e-016 1
    outer loop
      vertex 1.89222e-008 -25 3
      vertex -3.61999 -21.27 3
      vertex -2.07912 -24.7815 3
    endloop
  endfacet
  facet normal 0 1.22461e-016 1
    outer loop
      vertex -3.61999 -21.27 3
      vertex -7.23997 -15 3
      vertex -9.94522 -13.9547 3
    endloop
  endfacet
  facet normal 0 1.22461e-016 1
    outer loop
      vertex 7.23997 -15 3
      vertex 9.51057 -18.0902 3
      vertex 9.94522 -16.0453 3
    endloop
  endfacet
  facet normal 0 1.22461e-016 1
    outer loop
      vertex 3.61999 -21.27 3
      vertex -3.61999 -21.27 3
      vertex 1.89222e-008 -25 3
    endloop
  endfacet
  facet normal 0 1.22461e-016 1
    outer loop
      vertex 3.61999 -21.27 3
      vertex 1.89222e-008 -25 3
      vertex 2.07912 -24.7815 3
    endloop
  endfacet
  facet normal 0 1.22461e-016 1
    outer loop
      vertex 3.61999 -21.27 3
      vertex 2.07912 -24.7815 3
      vertex 4.06737 -24.1355 3
    endloop
  endfacet
  facet normal 0 1.22461e-016 1
    outer loop
      vertex -7.23997 -15 3
      vertex -3.61999 -8.73 3
      vertex -9.94522 -13.9547 3
    endloop
  endfacet
  facet normal -4.06904e-016 1 -1.22461e-016
    outer loop
      vertex -3.61999 -21.27 3
      vertex 3.61999 -21.27 3
      vertex -3.61999 -21.27 -5
    endloop
  endfacet
  facet normal -4.06904e-016 1 -1.22461e-016
    outer loop
      vertex -3.61999 -21.27 -5
      vertex 3.61999 -21.27 3
      vertex 3.61999 -21.27 -5
    endloop
  endfacet
  facet normal 0.866025 0.5 -6.12303e-017
    outer loop
      vertex -7.23997 -15 -5
      vertex -7.23997 -15 3
      vertex -3.61999 -21.27 3
    endloop
  endfacet
  facet normal 0.866025 0.5 -6.12303e-017
    outer loop
      vertex -3.61999 -21.27 -5
      vertex -7.23997 -15 -5
      vertex -3.61999 -21.27 3
    endloop
  endfacet
  facet normal 0.866025 -0.5 6.12303e-017
    outer loop
      vertex -3.61999 -8.73 3
      vertex -7.23997 -15 3
      vertex -7.23997 -15 -5
    endloop
  endfacet
  facet normal 0.866025 -0.5 6.12303e-017
    outer loop
      vertex -3.61999 -8.73 -5
      vertex -3.61999 -8.73 3
      vertex -7.23997 -15 -5
    endloop
  endfacet
  facet normal 4.06904e-016 -1 1.22461e-016
    outer loop
      vertex 3.61999 -8.73 3
      vertex -3.61999 -8.73 3
      vertex -3.61999 -8.73 -5
    endloop
  endfacet
  facet normal 4.06904e-016 -1 1.22461e-016
    outer loop
      vertex 3.61999 -8.73 -5
      vertex 3.61999 -8.73 3
      vertex -3.61999 -8.73 -5
    endloop
  endfacet
  facet normal -0.866025 -0.5 6.12303e-017
    outer loop
      vertex 3.61999 -8.73 3
      vertex 3.61999 -8.73 -5
      vertex 7.23997 -15 3
    endloop
  endfacet
  facet normal -0.866025 -0.5 6.12303e-017
    outer loop
      vertex 7.23997 -15 3
      vertex 3.61999 -8.73 -5
      vertex 7.23997 -15 -5
    endloop
  endfacet
  facet normal -0.866025 0.5 -6.12303e-017
    outer loop
      vertex 3.61999 -21.27 3
      vertex 7.23997 -15 3
      vertex 3.61999 -21.27 -5
    endloop
  endfacet
  facet normal -0.866025 0.5 -6.12303e-017
    outer loop
      vertex 3.61999 -21.27 -5
      vertex 7.23997 -15 3
      vertex 7.23997 -15 -5
    endloop
  endfacet
endsolid OpenSCAD_Model
