solid OpenSCAD_Model
  facet normal -1 0 0
    outer loop
      vertex 0 18.9573 13.8838
      vertex 0 0 20
      vertex 0 36 20
    endloop
  endfacet
  facet normal -1 0 0
    outer loop
      vertex 0 0 0
      vertex 0 0 20
      vertex 0 14.2599 11.4184
    endloop
  endfacet
  facet normal -1 0 0
    outer loop
      vertex 0 0 0
      vertex 0 14.2599 11.4184
      vertex 0 14.0292 9.51785
    endloop
  endfacet
  facet normal -1 0 0
    outer loop
      vertex 0 0 0
      vertex 0 14.0292 9.51785
      vertex 0 14.7081 7.72774
    endloop
  endfacet
  facet normal -1 0 0
    outer loop
      vertex 0 0 0
      vertex 0 14.7081 7.72774
      vertex 0 16.1411 6.45818
    endloop
  endfacet
  facet normal -1 0 0
    outer loop
      vertex 0 0 0
      vertex 0 16.1411 6.45818
      vertex 0 36 0
    endloop
  endfacet
  facet normal -1 0 0
    outer loop
      vertex 0 16.1411 6.45818
      vertex 0 18 6
      vertex 0 36 0
    endloop
  endfacet
  facet normal -1 0 0
    outer loop
      vertex 0 21.2919 7.72774
      vertex 0 36 0
      vertex 0 19.8589 6.45818
    endloop
  endfacet
  facet normal -1 0 0
    outer loop
      vertex 0 19.8589 6.45818
      vertex 0 36 0
      vertex 0 18 6
    endloop
  endfacet
  facet normal -1 0 0
    outer loop
      vertex 0 21.9708 9.51785
      vertex 0 36 0
      vertex 0 21.2919 7.72774
    endloop
  endfacet
  facet normal -1 0 0
    outer loop
      vertex 0 36 0
      vertex 0 21.9708 9.51785
      vertex 0 36 20
    endloop
  endfacet
  facet normal -1 0 0
    outer loop
      vertex 0 21.9708 9.51785
      vertex 0 21.7401 11.4184
      vertex 0 36 20
    endloop
  endfacet
  facet normal -1 0 0
    outer loop
      vertex 0 15.3475 12.994
      vertex 0 0 20
      vertex 0 17.0427 13.8838
    endloop
  endfacet
  facet normal -1 0 0
    outer loop
      vertex 0 21.7401 11.4184
      vertex 0 20.6525 12.994
      vertex 0 36 20
    endloop
  endfacet
  facet normal -1 0 0
    outer loop
      vertex 0 20.6525 12.994
      vertex 0 18.9573 13.8838
      vertex 0 36 20
    endloop
  endfacet
  facet normal -1 0 0
    outer loop
      vertex 0 14.2599 11.4184
      vertex 0 0 20
      vertex 0 15.3475 12.994
    endloop
  endfacet
  facet normal -1 0 0
    outer loop
      vertex 0 17.0427 13.8838
      vertex 0 0 20
      vertex 0 18.9573 13.8838
    endloop
  endfacet
  facet normal 0 -1 0
    outer loop
      vertex 0 0 20
      vertex 0 0 0
      vertex 40 0 0
    endloop
  endfacet
  facet normal 0 -1 0
    outer loop
      vertex 40 0 20
      vertex 0 0 20
      vertex 40 0 0
    endloop
  endfacet
  facet normal 0 0 -1
    outer loop
      vertex 40 26 0
      vertex 0 36 0
      vertex 40 36 0
    endloop
  endfacet
  facet normal 0 0 -1
    outer loop
      vertex 20 26 0
      vertex 0 36 0
      vertex 40 26 0
    endloop
  endfacet
  facet normal 0 0 -1
    outer loop
      vertex 20 25.6864 0
      vertex 0 36 0
      vertex 20 26 0
    endloop
  endfacet
  facet normal 0 0 -1
    outer loop
      vertex 19.1632 25.4801 0
      vertex 0 36 0
      vertex 20 25.6864 0
    endloop
  endfacet
  facet normal 0 0 -1
    outer loop
      vertex 17.4555 24.5839 0
      vertex 0 36 0
      vertex 19.1632 25.4801 0
    endloop
  endfacet
  facet normal 0 0 -1
    outer loop
      vertex 16.0119 23.305 0
      vertex 0 36 0
      vertex 17.4555 24.5839 0
    endloop
  endfacet
  facet normal 0 0 -1
    outer loop
      vertex 0 0 0
      vertex 0 36 0
      vertex 14.9164 21.7178 0
    endloop
  endfacet
  facet normal 0 0 -1
    outer loop
      vertex 0 0 0
      vertex 14.9164 21.7178 0
      vertex 14.2325 19.9145 0
    endloop
  endfacet
  facet normal 0 0 -1
    outer loop
      vertex 0 0 0
      vertex 14.2325 19.9145 0
      vertex 14 18 0
    endloop
  endfacet
  facet normal 0 0 -1
    outer loop
      vertex 0 0 0
      vertex 14 18 0
      vertex 14.2325 16.0855 0
    endloop
  endfacet
  facet normal 0 0 -1
    outer loop
      vertex 0 0 0
      vertex 14.2325 16.0855 0
      vertex 14.9164 14.2822 0
    endloop
  endfacet
  facet normal 0 0 -1
    outer loop
      vertex 0 0 0
      vertex 14.9164 14.2822 0
      vertex 16.0119 12.695 0
    endloop
  endfacet
  facet normal 0 0 -1
    outer loop
      vertex 0 0 0
      vertex 16.0119 12.695 0
      vertex 17.4555 11.4161 0
    endloop
  endfacet
  facet normal 0 0 -1
    outer loop
      vertex 0 0 0
      vertex 17.4555 11.4161 0
      vertex 19.1632 10.5199 0
    endloop
  endfacet
  facet normal 0 0 -1
    outer loop
      vertex 40 10 0
      vertex 40 0 0
      vertex 20 10 0
    endloop
  endfacet
  facet normal 0 0 -1
    outer loop
      vertex 20 10 0
      vertex 19.1632 10.5199 0
      vertex 20 10.3136 0
    endloop
  endfacet
  facet normal 0 0 -1
    outer loop
      vertex 0 0 0
      vertex 19.1632 10.5199 0
      vertex 20 10 0
    endloop
  endfacet
  facet normal 0 0 -1
    outer loop
      vertex 0 0 0
      vertex 20 10 0
      vertex 40 0 0
    endloop
  endfacet
  facet normal 0 0 -1
    outer loop
      vertex 14.9164 21.7178 0
      vertex 0 36 0
      vertex 16.0119 23.305 0
    endloop
  endfacet
  facet normal 0 1 0
    outer loop
      vertex 0 36 0
      vertex 0 36 20
      vertex 40 36 0
    endloop
  endfacet
  facet normal 0 1 0
    outer loop
      vertex 40 36 0
      vertex 0 36 20
      vertex 40 36 20
    endloop
  endfacet
  facet normal 0 0 1
    outer loop
      vertex 20 10 20
      vertex 0 0 20
      vertex 40 0 20
    endloop
  endfacet
  facet normal 0 0 1
    outer loop
      vertex 19.1632 10.5199 20
      vertex 0 0 20
      vertex 20 10 20
    endloop
  endfacet
  facet normal 0 0 1
    outer loop
      vertex 14.9164 14.2822 20
      vertex 14.2325 16.0855 20
      vertex 0 36 20
    endloop
  endfacet
  facet normal 0 0 1
    outer loop
      vertex 17.4555 11.4161 20
      vertex 0 0 20
      vertex 19.1632 10.5199 20
    endloop
  endfacet
  facet normal 0 0 1
    outer loop
      vertex 16.0119 12.695 20
      vertex 0 0 20
      vertex 17.4555 11.4161 20
    endloop
  endfacet
  facet normal 0 0 1
    outer loop
      vertex 14.2325 16.0855 20
      vertex 14 18 20
      vertex 0 36 20
    endloop
  endfacet
  facet normal 0 0 1
    outer loop
      vertex 14.9164 14.2822 20
      vertex 0 0 20
      vertex 16.0119 12.695 20
    endloop
  endfacet
  facet normal 0 0 1
    outer loop
      vertex 0 36 20
      vertex 0 0 20
      vertex 14.9164 14.2822 20
    endloop
  endfacet
  facet normal 0 0 1
    outer loop
      vertex 14 18 20
      vertex 14.2325 19.9145 20
      vertex 0 36 20
    endloop
  endfacet
  facet normal 0 0 1
    outer loop
      vertex 17.4555 24.5839 20
      vertex 19.1632 25.4801 20
      vertex 0 36 20
    endloop
  endfacet
  facet normal 0 0 1
    outer loop
      vertex 20 10.3136 20
      vertex 19.1632 10.5199 20
      vertex 20 10 20
    endloop
  endfacet
  facet normal 0 0 1
    outer loop
      vertex 0 36 20
      vertex 14.2325 19.9145 20
      vertex 14.9164 21.7178 20
    endloop
  endfacet
  facet normal 0 0 1
    outer loop
      vertex 17.4555 24.5839 20
      vertex 0 36 20
      vertex 16.0119 23.305 20
    endloop
  endfacet
  facet normal 0 0 1
    outer loop
      vertex 20 25.6864 20
      vertex 0 36 20
      vertex 19.1632 25.4801 20
    endloop
  endfacet
  facet normal 0 0 1
    outer loop
      vertex 20 26 20
      vertex 0 36 20
      vertex 20 25.6864 20
    endloop
  endfacet
  facet normal 0 0 1
    outer loop
      vertex 40 26 20
      vertex 0 36 20
      vertex 20 26 20
    endloop
  endfacet
  facet normal 0 0 1
    outer loop
      vertex 40 36 20
      vertex 0 36 20
      vertex 40 26 20
    endloop
  endfacet
  facet normal 0 0 1
    outer loop
      vertex 14.9164 21.7178 20
      vertex 16.0119 23.305 20
      vertex 0 36 20
    endloop
  endfacet
  facet normal 0 0 1
    outer loop
      vertex 40 10 20
      vertex 20 10 20
      vertex 40 0 20
    endloop
  endfacet
  facet normal 1.26136e-016 0.822984 -0.568065
    outer loop
      vertex 9 15.3475 12.994
      vertex 9 14.2599 11.4184
      vertex 0 15.3475 12.994
    endloop
  endfacet
  facet normal 1.26136e-016 0.822984 -0.568065
    outer loop
      vertex 0 15.3475 12.994
      vertex 9 14.2599 11.4184
      vertex 0 14.2599 11.4184
    endloop
  endfacet
  facet normal 2.67644e-017 0.992709 -0.120536
    outer loop
      vertex 9 14.2599 11.4184
      vertex 9 14.0292 9.51785
      vertex 0 14.2599 11.4184
    endloop
  endfacet
  facet normal 2.67644e-017 0.992709 -0.120536
    outer loop
      vertex 0 14.2599 11.4184
      vertex 9 14.0292 9.51785
      vertex 0 14.0292 9.51785
    endloop
  endfacet
  facet normal 1.96611e-016 0.464723 -0.885456
    outer loop
      vertex 9 17.0427 13.8838
      vertex 9 15.3475 12.994
      vertex 0 17.0427 13.8838
    endloop
  endfacet
  facet normal 1.96611e-016 0.464723 -0.885456
    outer loop
      vertex 0 17.0427 13.8838
      vertex 9 15.3475 12.994
      vertex 0 15.3475 12.994
    endloop
  endfacet
  facet normal 2.22045e-016 0 -1
    outer loop
      vertex 9 18.9573 13.8838
      vertex 9 17.0427 13.8838
      vertex 0 18.9573 13.8838
    endloop
  endfacet
  facet normal 2.22045e-016 0 -1
    outer loop
      vertex 0 18.9573 13.8838
      vertex 9 17.0427 13.8838
      vertex 0 17.0427 13.8838
    endloop
  endfacet
  facet normal 1.96611e-016 -0.464723 -0.885456
    outer loop
      vertex 9 20.6525 12.994
      vertex 9 18.9573 13.8838
      vertex 0 20.6525 12.994
    endloop
  endfacet
  facet normal 1.96611e-016 -0.464723 -0.885456
    outer loop
      vertex 0 20.6525 12.994
      vertex 9 18.9573 13.8838
      vertex 0 18.9573 13.8838
    endloop
  endfacet
  facet normal 1.26136e-016 -0.822984 -0.568065
    outer loop
      vertex 0 21.7401 11.4184
      vertex 9 21.7401 11.4184
      vertex 9 20.6525 12.994
    endloop
  endfacet
  facet normal 1.26136e-016 -0.822984 -0.568065
    outer loop
      vertex 0 20.6525 12.994
      vertex 0 21.7401 11.4184
      vertex 9 20.6525 12.994
    endloop
  endfacet
  facet normal 2.67644e-017 -0.992709 -0.120536
    outer loop
      vertex 0 21.9708 9.51785
      vertex 9 21.9708 9.51785
      vertex 9 21.7401 11.4184
    endloop
  endfacet
  facet normal 2.67644e-017 -0.992709 -0.120536
    outer loop
      vertex 0 21.7401 11.4184
      vertex 0 21.9708 9.51785
      vertex 9 21.7401 11.4184
    endloop
  endfacet
  facet normal -7.87381e-017 -0.935016 0.354605
    outer loop
      vertex 9 21.2919 7.72774
      vertex 9 21.9708 9.51785
      vertex 0 21.9708 9.51785
    endloop
  endfacet
  facet normal -7.87381e-017 -0.935016 0.354605
    outer loop
      vertex 0 21.2919 7.72774
      vertex 9 21.2919 7.72774
      vertex 0 21.9708 9.51785
    endloop
  endfacet
  facet normal -1.66203e-016 -0.663123 0.748511
    outer loop
      vertex 9 19.8589 6.45818
      vertex 9 21.2919 7.72774
      vertex 0 21.2919 7.72774
    endloop
  endfacet
  facet normal -1.66203e-016 -0.663123 0.748511
    outer loop
      vertex 0 19.8589 6.45818
      vertex 9 19.8589 6.45818
      vertex 0 21.2919 7.72774
    endloop
  endfacet
  facet normal -2.15592e-016 -0.239316 0.970942
    outer loop
      vertex 9 18 6
      vertex 9 19.8589 6.45818
      vertex 0 19.8589 6.45818
    endloop
  endfacet
  facet normal -2.15592e-016 -0.239316 0.970942
    outer loop
      vertex 0 18 6
      vertex 9 18 6
      vertex 0 19.8589 6.45818
    endloop
  endfacet
  facet normal -2.15592e-016 0.239316 0.970942
    outer loop
      vertex 9 16.1411 6.45818
      vertex 9 18 6
      vertex 0 18 6
    endloop
  endfacet
  facet normal -2.15592e-016 0.239316 0.970942
    outer loop
      vertex 0 16.1411 6.45818
      vertex 9 16.1411 6.45818
      vertex 0 18 6
    endloop
  endfacet
  facet normal -1.66203e-016 0.663123 0.748511
    outer loop
      vertex 9 14.7081 7.72774
      vertex 9 16.1411 6.45818
      vertex 0 16.1411 6.45818
    endloop
  endfacet
  facet normal -1.66203e-016 0.663123 0.748511
    outer loop
      vertex 0 14.7081 7.72774
      vertex 9 14.7081 7.72774
      vertex 0 16.1411 6.45818
    endloop
  endfacet
  facet normal -7.87381e-017 0.935016 0.354605
    outer loop
      vertex 9 14.7081 7.72774
      vertex 0 14.7081 7.72774
      vertex 9 14.0292 9.51785
    endloop
  endfacet
  facet normal -7.87381e-017 0.935016 0.354605
    outer loop
      vertex 9 14.0292 9.51785
      vertex 0 14.7081 7.72774
      vertex 0 14.0292 9.51785
    endloop
  endfacet
  facet normal 1 0 0
    outer loop
      vertex 40 0 20
      vertex 40 0 0
      vertex 40 10 0
    endloop
  endfacet
  facet normal 1 0 0
    outer loop
      vertex 40 10 20
      vertex 40 0 20
      vertex 40 10 0
    endloop
  endfacet
  facet normal 0 1 0
    outer loop
      vertex 40 10 20
      vertex 40 10 0
      vertex 20 10 20
    endloop
  endfacet
  facet normal 0 1 0
    outer loop
      vertex 20 10 20
      vertex 40 10 0
      vertex 20 10 0
    endloop
  endfacet
  facet normal 1 0 0
    outer loop
      vertex 20 10.3136 0
      vertex 20 10.3136 20
      vertex 20 10 20
    endloop
  endfacet
  facet normal 1 0 0
    outer loop
      vertex 20 10 0
      vertex 20 10.3136 0
      vertex 20 10 20
    endloop
  endfacet
  facet normal 0.239316 0.970942 0
    outer loop
      vertex 20 10.3136 20
      vertex 20 10.3136 0
      vertex 19.1632 10.5199 20
    endloop
  endfacet
  facet normal 0.239316 0.970942 0
    outer loop
      vertex 19.1632 10.5199 20
      vertex 20 10.3136 0
      vertex 19.1632 10.5199 0
    endloop
  endfacet
  facet normal 0.464723 0.885456 0
    outer loop
      vertex 18.7056 10.76 10
      vertex 17.4555 11.4161 11.1364
      vertex 17.4555 11.4161 20
    endloop
  endfacet
  facet normal 0.464723 0.885456 0
    outer loop
      vertex 18.7056 10.76 10
      vertex 17.4555 11.4161 20
      vertex 19.1632 10.5199 20
    endloop
  endfacet
  facet normal 0.464723 0.885456 0
    outer loop
      vertex 18.7056 10.76 10
      vertex 19.1632 10.5199 20
      vertex 19.1632 10.5199 0
    endloop
  endfacet
  facet normal 0.464723 0.885456 0
    outer loop
      vertex 18.7056 10.76 10
      vertex 19.1632 10.5199 0
      vertex 17.4555 11.4161 8.8636
    endloop
  endfacet
  facet normal 0.464723 0.885456 0
    outer loop
      vertex 19.1632 10.5199 0
      vertex 17.4555 11.4161 0
      vertex 17.4555 11.4161 8.8636
    endloop
  endfacet
  facet normal 0.663123 0.748511 0
    outer loop
      vertex 17.4555 11.4161 8.8636
      vertex 17.4555 11.4161 0
      vertex 16.0119 12.695 6.6485
    endloop
  endfacet
  facet normal 0.663123 0.748511 0
    outer loop
      vertex 16.0119 12.695 6.6485
      vertex 17.4555 11.4161 0
      vertex 16.0119 12.695 0
    endloop
  endfacet
  facet normal 0.822984 0.568065 0
    outer loop
      vertex 14.9164 14.2822 3.89939
      vertex 16.0119 12.695 6.6485
      vertex 16.0119 12.695 0
    endloop
  endfacet
  facet normal 0.822984 0.568065 0
    outer loop
      vertex 14.9164 14.2822 0
      vertex 14.9164 14.2822 3.89939
      vertex 16.0119 12.695 0
    endloop
  endfacet
  facet normal 0.935016 0.354605 0
    outer loop
      vertex 14.2325 16.0855 3.73
      vertex 14.8793 14.38 3.73
      vertex 14.9164 14.2822 0
    endloop
  endfacet
  facet normal 0.935016 0.354605 0
    outer loop
      vertex 14.9164 14.2822 0
      vertex 14.8793 14.38 3.73
      vertex 14.9164 14.2822 3.89939
    endloop
  endfacet
  facet normal 0.935016 0.354605 0
    outer loop
      vertex 14.2325 16.0855 3.73
      vertex 14.9164 14.2822 0
      vertex 14.2325 16.0855 0
    endloop
  endfacet
  facet normal 0.992709 0.120536 0
    outer loop
      vertex 14 18 3.73
      vertex 14.2325 16.0855 3.73
      vertex 14.2325 16.0855 0
    endloop
  endfacet
  facet normal 0.992709 0.120536 0
    outer loop
      vertex 14 18 0
      vertex 14 18 3.73
      vertex 14.2325 16.0855 0
    endloop
  endfacet
  facet normal 0.992709 -0.120536 0
    outer loop
      vertex 14.2325 19.9145 0
      vertex 14.2325 19.9145 3.73
      vertex 14 18 3.73
    endloop
  endfacet
  facet normal 0.992709 -0.120536 0
    outer loop
      vertex 14 18 0
      vertex 14.2325 19.9145 0
      vertex 14 18 3.73
    endloop
  endfacet
  facet normal 0.935016 -0.354605 0
    outer loop
      vertex 14.9164 21.7178 0
      vertex 14.9164 21.7178 3.89939
      vertex 14.8793 21.62 3.73
    endloop
  endfacet
  facet normal 0.935016 -0.354605 0
    outer loop
      vertex 14.2325 19.9145 3.73
      vertex 14.9164 21.7178 0
      vertex 14.8793 21.62 3.73
    endloop
  endfacet
  facet normal 0.935016 -0.354605 0
    outer loop
      vertex 14.2325 19.9145 3.73
      vertex 14.2325 19.9145 0
      vertex 14.9164 21.7178 0
    endloop
  endfacet
  facet normal 0.822984 -0.568065 0
    outer loop
      vertex 16.0119 23.305 0
      vertex 16.0119 23.305 6.6485
      vertex 14.9164 21.7178 3.89939
    endloop
  endfacet
  facet normal 0.822984 -0.568065 0
    outer loop
      vertex 14.9164 21.7178 0
      vertex 16.0119 23.305 0
      vertex 14.9164 21.7178 3.89939
    endloop
  endfacet
  facet normal 0.663123 -0.748511 0
    outer loop
      vertex 17.4555 24.5839 0
      vertex 17.4555 24.5839 8.8636
      vertex 16.0119 23.305 6.6485
    endloop
  endfacet
  facet normal 0.663123 -0.748511 0
    outer loop
      vertex 16.0119 23.305 0
      vertex 17.4555 24.5839 0
      vertex 16.0119 23.305 6.6485
    endloop
  endfacet
  facet normal 0.464723 -0.885456 0
    outer loop
      vertex 18.7056 25.24 10
      vertex 19.1632 25.4801 20
      vertex 17.4555 24.5839 20
    endloop
  endfacet
  facet normal 0.464723 -0.885456 0
    outer loop
      vertex 18.7056 25.24 10
      vertex 17.4555 24.5839 8.8636
      vertex 19.1632 25.4801 0
    endloop
  endfacet
  facet normal 0.464723 -0.885456 0
    outer loop
      vertex 19.1632 25.4801 0
      vertex 19.1632 25.4801 20
      vertex 18.7056 25.24 10
    endloop
  endfacet
  facet normal 0.464723 -0.885456 0
    outer loop
      vertex 17.4555 24.5839 0
      vertex 19.1632 25.4801 0
      vertex 17.4555 24.5839 8.8636
    endloop
  endfacet
  facet normal 0.464723 -0.885456 0
    outer loop
      vertex 17.4555 24.5839 11.1364
      vertex 18.7056 25.24 10
      vertex 17.4555 24.5839 20
    endloop
  endfacet
  facet normal 0.239316 -0.970942 0
    outer loop
      vertex 20 25.6864 0
      vertex 20 25.6864 20
      vertex 19.1632 25.4801 20
    endloop
  endfacet
  facet normal 0.239316 -0.970942 0
    outer loop
      vertex 19.1632 25.4801 0
      vertex 20 25.6864 0
      vertex 19.1632 25.4801 20
    endloop
  endfacet
  facet normal 1 0 0
    outer loop
      vertex 20 26 0
      vertex 20 26 20
      vertex 20 25.6864 20
    endloop
  endfacet
  facet normal 1 0 0
    outer loop
      vertex 20 25.6864 0
      vertex 20 26 0
      vertex 20 25.6864 20
    endloop
  endfacet
  facet normal 0 -1 0
    outer loop
      vertex 40 26 0
      vertex 40 26 20
      vertex 20 26 20
    endloop
  endfacet
  facet normal 0 -1 0
    outer loop
      vertex 20 26 0
      vertex 40 26 0
      vertex 20 26 20
    endloop
  endfacet
  facet normal 1 0 0
    outer loop
      vertex 40 26 20
      vertex 40 26 0
      vertex 40 36 0
    endloop
  endfacet
  facet normal 1 0 0
    outer loop
      vertex 40 36 20
      vertex 40 26 20
      vertex 40 36 0
    endloop
  endfacet
  facet normal 0.663123 -0.748511 0
    outer loop
      vertex 17.4555 24.5839 11.1364
      vertex 17.4555 24.5839 20
      vertex 16.0119 23.305 20
    endloop
  endfacet
  facet normal 0.663123 -0.748511 0
    outer loop
      vertex 16.0119 23.305 13.3515
      vertex 17.4555 24.5839 11.1364
      vertex 16.0119 23.305 20
    endloop
  endfacet
  facet normal 0.822984 -0.568065 0
    outer loop
      vertex 16.0119 23.305 13.3515
      vertex 16.0119 23.305 20
      vertex 14.9164 21.7178 20
    endloop
  endfacet
  facet normal 0.822984 -0.568065 0
    outer loop
      vertex 14.9164 21.7178 16.1006
      vertex 16.0119 23.305 13.3515
      vertex 14.9164 21.7178 20
    endloop
  endfacet
  facet normal 0.935016 -0.354605 0
    outer loop
      vertex 14.8793 21.62 16.27
      vertex 14.9164 21.7178 16.1006
      vertex 14.9164 21.7178 20
    endloop
  endfacet
  facet normal 0.935016 -0.354605 0
    outer loop
      vertex 14.2325 19.9145 16.27
      vertex 14.8793 21.62 16.27
      vertex 14.2325 19.9145 20
    endloop
  endfacet
  facet normal 0.935016 -0.354605 0
    outer loop
      vertex 14.2325 19.9145 20
      vertex 14.8793 21.62 16.27
      vertex 14.9164 21.7178 20
    endloop
  endfacet
  facet normal 0.992709 -0.120536 0
    outer loop
      vertex 14.2325 19.9145 16.27
      vertex 14.2325 19.9145 20
      vertex 14 18 20
    endloop
  endfacet
  facet normal 0.992709 -0.120536 0
    outer loop
      vertex 14 18 16.27
      vertex 14.2325 19.9145 16.27
      vertex 14 18 20
    endloop
  endfacet
  facet normal 0.992709 0.120536 0
    outer loop
      vertex 14 18 20
      vertex 14.2325 16.0855 20
      vertex 14.2325 16.0855 16.27
    endloop
  endfacet
  facet normal 0.992709 0.120536 0
    outer loop
      vertex 14 18 16.27
      vertex 14 18 20
      vertex 14.2325 16.0855 16.27
    endloop
  endfacet
  facet normal 0.935016 0.354605 0
    outer loop
      vertex 14.2325 16.0855 20
      vertex 14.9164 14.2822 20
      vertex 14.9164 14.2822 16.1006
    endloop
  endfacet
  facet normal 0.935016 0.354605 0
    outer loop
      vertex 14.2325 16.0855 16.27
      vertex 14.2325 16.0855 20
      vertex 14.8793 14.38 16.27
    endloop
  endfacet
  facet normal 0.935016 0.354605 0
    outer loop
      vertex 14.8793 14.38 16.27
      vertex 14.2325 16.0855 20
      vertex 14.9164 14.2822 16.1006
    endloop
  endfacet
  facet normal 0.822984 0.568065 0
    outer loop
      vertex 14.9164 14.2822 20
      vertex 16.0119 12.695 20
      vertex 16.0119 12.695 13.3515
    endloop
  endfacet
  facet normal 0.822984 0.568065 0
    outer loop
      vertex 14.9164 14.2822 16.1006
      vertex 14.9164 14.2822 20
      vertex 16.0119 12.695 13.3515
    endloop
  endfacet
  facet normal 0.663123 0.748511 0
    outer loop
      vertex 17.4555 11.4161 20
      vertex 17.4555 11.4161 11.1364
      vertex 16.0119 12.695 20
    endloop
  endfacet
  facet normal 0.663123 0.748511 0
    outer loop
      vertex 16.0119 12.695 20
      vertex 17.4555 11.4161 11.1364
      vertex 16.0119 12.695 13.3515
    endloop
  endfacet
  facet normal 1 0 1.77321e-016
    outer loop
      vertex 9 16.1411 6.45818
      vertex 9 14.38 3.73
      vertex 9 21.62 3.73
    endloop
  endfacet
  facet normal 1 0 1.77321e-016
    outer loop
      vertex 9 20.6525 12.994
      vertex 9 21.7401 11.4184
      vertex 9 25.24 10
    endloop
  endfacet
  facet normal 1 0 1.77321e-016
    outer loop
      vertex 9 21.7401 11.4184
      vertex 9 21.9708 9.51785
      vertex 9 25.24 10
    endloop
  endfacet
  facet normal 1 0 1.77321e-016
    outer loop
      vertex 9 21.62 16.27
      vertex 9 20.6525 12.994
      vertex 9 25.24 10
    endloop
  endfacet
  facet normal 1 0 1.77321e-016
    outer loop
      vertex 9 21.62 16.27
      vertex 9 18.9573 13.8838
      vertex 9 20.6525 12.994
    endloop
  endfacet
  facet normal 1 0 1.77321e-016
    outer loop
      vertex 9 14.2599 11.4184
      vertex 9 15.3475 12.994
      vertex 9 10.76 10
    endloop
  endfacet
  facet normal 1 0 1.77321e-016
    outer loop
      vertex 9 25.24 10
      vertex 9 21.9708 9.51785
      vertex 9 21.62 3.73
    endloop
  endfacet
  facet normal 1 0 1.77321e-016
    outer loop
      vertex 9 16.1411 6.45818
      vertex 9 14.7081 7.72774
      vertex 9 10.76 10
    endloop
  endfacet
  facet normal 1 0 1.77321e-016
    outer loop
      vertex 9 21.9708 9.51785
      vertex 9 21.2919 7.72774
      vertex 9 21.62 3.73
    endloop
  endfacet
  facet normal 1 0 1.77321e-016
    outer loop
      vertex 9 21.2919 7.72774
      vertex 9 19.8589 6.45818
      vertex 9 21.62 3.73
    endloop
  endfacet
  facet normal 1 0 1.77321e-016
    outer loop
      vertex 9 19.8589 6.45818
      vertex 9 18 6
      vertex 9 21.62 3.73
    endloop
  endfacet
  facet normal 1 0 1.77321e-016
    outer loop
      vertex 9 14.0292 9.51785
      vertex 9 14.2599 11.4184
      vertex 9 10.76 10
    endloop
  endfacet
  facet normal 1 0 1.77321e-016
    outer loop
      vertex 9 10.76 10
      vertex 9 14.38 3.73
      vertex 9 16.1411 6.45818
    endloop
  endfacet
  facet normal 1 0 1.77321e-016
    outer loop
      vertex 9 18 6
      vertex 9 16.1411 6.45818
      vertex 9 21.62 3.73
    endloop
  endfacet
  facet normal 1 0 1.77321e-016
    outer loop
      vertex 9 14.38 16.27
      vertex 9 10.76 10
      vertex 9 15.3475 12.994
    endloop
  endfacet
  facet normal 1 0 1.77321e-016
    outer loop
      vertex 9 14.38 16.27
      vertex 9 17.0427 13.8838
      vertex 9 21.62 16.27
    endloop
  endfacet
  facet normal 1 0 1.77321e-016
    outer loop
      vertex 9 14.38 16.27
      vertex 9 15.3475 12.994
      vertex 9 17.0427 13.8838
    endloop
  endfacet
  facet normal 1 0 1.77321e-016
    outer loop
      vertex 9 17.0427 13.8838
      vertex 9 18.9573 13.8838
      vertex 9 21.62 16.27
    endloop
  endfacet
  facet normal 1 0 1.77321e-016
    outer loop
      vertex 9 14.7081 7.72774
      vertex 9 14.0292 9.51785
      vertex 9 10.76 10
    endloop
  endfacet
  facet normal -1.11022e-016 0.866025 0.5
    outer loop
      vertex 9 10.76 10
      vertex 18.7056 10.76 10
      vertex 9 14.38 3.73
    endloop
  endfacet
  facet normal -1.11022e-016 0.866025 0.5
    outer loop
      vertex 9 14.38 3.73
      vertex 18.7056 10.76 10
      vertex 17.4555 11.4161 8.8636
    endloop
  endfacet
  facet normal -1.11022e-016 0.866025 0.5
    outer loop
      vertex 9 14.38 3.73
      vertex 17.4555 11.4161 8.8636
      vertex 16.0119 12.695 6.6485
    endloop
  endfacet
  facet normal -1.11022e-016 0.866025 0.5
    outer loop
      vertex 16.0119 12.695 6.6485
      vertex 14.9164 14.2822 3.89939
      vertex 9 14.38 3.73
    endloop
  endfacet
  facet normal -1.11022e-016 0.866025 0.5
    outer loop
      vertex 14.9164 14.2822 3.89939
      vertex 14.8793 14.38 3.73
      vertex 9 14.38 3.73
    endloop
  endfacet
  facet normal 1.11022e-016 0.866025 -0.5
    outer loop
      vertex 9 14.38 16.27
      vertex 14.8793 14.38 16.27
      vertex 9 10.76 10
    endloop
  endfacet
  facet normal 1.11022e-016 0.866025 -0.5
    outer loop
      vertex 9 10.76 10
      vertex 14.8793 14.38 16.27
      vertex 14.9164 14.2822 16.1006
    endloop
  endfacet
  facet normal 1.11022e-016 0.866025 -0.5
    outer loop
      vertex 9 10.76 10
      vertex 14.9164 14.2822 16.1006
      vertex 16.0119 12.695 13.3515
    endloop
  endfacet
  facet normal 1.11022e-016 0.866025 -0.5
    outer loop
      vertex 16.0119 12.695 13.3515
      vertex 17.4555 11.4161 11.1364
      vertex 9 10.76 10
    endloop
  endfacet
  facet normal 1.11022e-016 0.866025 -0.5
    outer loop
      vertex 17.4555 11.4161 11.1364
      vertex 18.7056 10.76 10
      vertex 9 10.76 10
    endloop
  endfacet
  facet normal -2.22045e-016 0 1
    outer loop
      vertex 9 21.62 3.73
      vertex 9 14.38 3.73
      vertex 14.8793 14.38 3.73
    endloop
  endfacet
  facet normal -2.22045e-016 0 1
    outer loop
      vertex 14 18 3.73
      vertex 9 21.62 3.73
      vertex 14.2325 16.0855 3.73
    endloop
  endfacet
  facet normal -2.22045e-016 0 1
    outer loop
      vertex 14.2325 16.0855 3.73
      vertex 9 21.62 3.73
      vertex 14.8793 14.38 3.73
    endloop
  endfacet
  facet normal -2.22045e-016 0 1
    outer loop
      vertex 14.2325 19.9145 3.73
      vertex 9 21.62 3.73
      vertex 14 18 3.73
    endloop
  endfacet
  facet normal -2.22045e-016 0 1
    outer loop
      vertex 14.8793 21.62 3.73
      vertex 9 21.62 3.73
      vertex 14.2325 19.9145 3.73
    endloop
  endfacet
  facet normal -1.11022e-016 -0.866025 0.5
    outer loop
      vertex 18.7056 25.24 10
      vertex 9 25.24 10
      vertex 9 21.62 3.73
    endloop
  endfacet
  facet normal -1.11022e-016 -0.866025 0.5
    outer loop
      vertex 17.4555 24.5839 8.8636
      vertex 18.7056 25.24 10
      vertex 9 21.62 3.73
    endloop
  endfacet
  facet normal -1.11022e-016 -0.866025 0.5
    outer loop
      vertex 14.8793 21.62 3.73
      vertex 14.9164 21.7178 3.89939
      vertex 9 21.62 3.73
    endloop
  endfacet
  facet normal -1.11022e-016 -0.866025 0.5
    outer loop
      vertex 14.9164 21.7178 3.89939
      vertex 16.0119 23.305 6.6485
      vertex 9 21.62 3.73
    endloop
  endfacet
  facet normal -1.11022e-016 -0.866025 0.5
    outer loop
      vertex 16.0119 23.305 6.6485
      vertex 17.4555 24.5839 8.8636
      vertex 9 21.62 3.73
    endloop
  endfacet
  facet normal 1.11022e-016 -0.866025 -0.5
    outer loop
      vertex 14.8793 21.62 16.27
      vertex 9 21.62 16.27
      vertex 9 25.24 10
    endloop
  endfacet
  facet normal 1.11022e-016 -0.866025 -0.5
    outer loop
      vertex 14.9164 21.7178 16.1006
      vertex 14.8793 21.62 16.27
      vertex 9 25.24 10
    endloop
  endfacet
  facet normal 1.11022e-016 -0.866025 -0.5
    outer loop
      vertex 18.7056 25.24 10
      vertex 17.4555 24.5839 11.1364
      vertex 9 25.24 10
    endloop
  endfacet
  facet normal 1.11022e-016 -0.866025 -0.5
    outer loop
      vertex 17.4555 24.5839 11.1364
      vertex 16.0119 23.305 13.3515
      vertex 9 25.24 10
    endloop
  endfacet
  facet normal 1.11022e-016 -0.866025 -0.5
    outer loop
      vertex 16.0119 23.305 13.3515
      vertex 14.9164 21.7178 16.1006
      vertex 9 25.24 10
    endloop
  endfacet
  facet normal 2.22045e-016 0 -1
    outer loop
      vertex 9 14.38 16.27
      vertex 9 21.62 16.27
      vertex 14.8793 14.38 16.27
    endloop
  endfacet
  facet normal 2.22045e-016 0 -1
    outer loop
      vertex 14.2325 19.9145 16.27
      vertex 9 21.62 16.27
      vertex 14.8793 21.62 16.27
    endloop
  endfacet
  facet normal 2.22045e-016 0 -1
    outer loop
      vertex 14 18 16.27
      vertex 9 21.62 16.27
      vertex 14.2325 19.9145 16.27
    endloop
  endfacet
  facet normal 2.22045e-016 0 -1
    outer loop
      vertex 14.2325 16.0855 16.27
      vertex 9 21.62 16.27
      vertex 14 18 16.27
    endloop
  endfacet
  facet normal 2.22045e-016 0 -1
    outer loop
      vertex 14.8793 14.38 16.27
      vertex 9 21.62 16.27
      vertex 14.2325 16.0855 16.27
    endloop
  endfacet
endsolid OpenSCAD_Model
